  0
SECTION
  2
HEADER
  9
$ACADVER
  1
AC1032
  9
$ACADMAINTVER
 90
      266
  9
$DWGCODEPAGE
  3
ANSI_1252
  9
$REQUIREDVERSIONS
160
                 0
  9
$INSBASE
 10
0.0
 20
0.0
 30
0.0
  9
$EXTMIN
 10
1.000000000000000E+20
 20
1.000000000000000E+20
 30
1.000000000000000E+20
  9
$EXTMAX
 10
-1.000000000000000E+20
 20
-1.000000000000000E+20
 30
-1.000000000000000E+20
  9
$LIMMIN
 10
0.0
 20
0.0
  9
$LIMMAX
 10
12.0
 20
9.0
  9
$ORTHOMODE
 70
     0
  9
$REGENMODE
 70
     1
  9
$FILLMODE
 70
     1
  9
$QTEXTMODE
 70
     0
  9
$MIRRTEXT
 70
     0
  9
$LTSCALE
 40
1.0
  9
$ATTMODE
 70
     1
  9
$TEXTSIZE
 40
0.2
  9
$TRACEWID
 40
0.05
  9
$TEXTSTYLE
  7
Standard
  9
$CLAYER
  8
0
  9
$CELTYPE
  6
ByLayer
  9
$CECOLOR
 62
   256
  9
$CELTSCALE
 40
1.0
  9
$DISPSILH
 70
     0
  9
$DIMSCALE
 40
1.0
  9
$DIMASZ
 40
0.18
  9
$DIMEXO
 40
0.0625
  9
$DIMDLI
 40
0.38
  9
$DIMRND
 40
0.0
  9
$DIMDLE
 40
0.0
  9
$DIMEXE
 40
0.18
  9
$DIMTP
 40
0.0
  9
$DIMTM
 40
0.0
  9
$DIMTXT
 40
0.18
  9
$DIMCEN
 40
0.09
  9
$DIMTSZ
 40
0.0
  9
$DIMTOL
 70
     0
  9
$DIMLIM
 70
     0
  9
$DIMTIH
 70
     1
  9
$DIMTOH
 70
     1
  9
$DIMSE1
 70
     0
  9
$DIMSE2
 70
     0
  9
$DIMTAD
 70
     0
  9
$DIMZIN
 70
     0
  9
$DIMBLK
  1

  9
$DIMASO
 70
     1
  9
$DIMSHO
 70
     1
  9
$DIMPOST
  1

  9
$DIMAPOST
  1

  9
$DIMALT
 70
     0
  9
$DIMALTD
 70
     2
  9
$DIMALTF
 40
25.4
  9
$DIMLFAC
 40
1.0
  9
$DIMTOFL
 70
     0
  9
$DIMTVP
 40
0.0
  9
$DIMTIX
 70
     0
  9
$DIMSOXD
 70
     0
  9
$DIMSAH
 70
     0
  9
$DIMBLK1
  1

  9
$DIMBLK2
  1

  9
$DIMSTYLE
  2
Standard
  9
$DIMCLRD
 70
     0
  9
$DIMCLRE
 70
     0
  9
$DIMCLRT
 70
     0
  9
$DIMTFAC
 40
1.0
  9
$DIMGAP
 40
0.09
  9
$DIMJUST
 70
     0
  9
$DIMSD1
 70
     0
  9
$DIMSD2
 70
     0
  9
$DIMTOLJ
 70
     1
  9
$DIMTZIN
 70
     0
  9
$DIMALTZ
 70
     0
  9
$DIMALTTZ
 70
     0
  9
$DIMUPT
 70
     0
  9
$DIMDEC
 70
     4
  9
$DIMTDEC
 70
     4
  9
$DIMALTU
 70
     2
  9
$DIMALTTD
 70
     2
  9
$DIMTXSTY
  7
Standard
  9
$DIMAUNIT
 70
     0
  9
$DIMADEC
 70
     0
  9
$DIMALTRND
 40
0.0
  9
$DIMAZIN
 70
     0
  9
$DIMDSEP
 70
    46
  9
$DIMATFIT
 70
     3
  9
$DIMFRAC
 70
     0
  9
$DIMLDRBLK
  1

  9
$DIMLUNIT
 70
     2
  9
$DIMLWD
 70
    -2
  9
$DIMLWE
 70
    -2
  9
$DIMTMOVE
 70
     0
  9
$DIMFXL
 40
1.0
  9
$DIMFXLON
 70
     0
  9
$DIMJOGANG
 40
0.7853981633974483
  9
$DIMTFILL
 70
     0
  9
$DIMTFILLCLR
 70
     0
  9
$DIMARCSYM
 70
     0
  9
$DIMLTYPE
  6

  9
$DIMLTEX1
  6

  9
$DIMLTEX2
  6

  9
$DIMTXTDIRECTION
 70
     0
  9
$LUNITS
 70
     2
  9
$LUPREC
 70
     4
  9
$SKETCHINC
 40
0.1
  9
$FILLETRAD
 40
0.0
  9
$AUNITS
 70
     0
  9
$AUPREC
 70
     0
  9
$MENU
  1
.
  9
$ELEVATION
 40
0.0
  9
$PELEVATION
 40
0.0
  9
$THICKNESS
 40
0.0
  9
$LIMCHECK
 70
     0
  9
$CHAMFERA
 40
0.0
  9
$CHAMFERB
 40
0.0
  9
$CHAMFERC
 40
0.0
  9
$CHAMFERD
 40
0.0
  9
$SKPOLY
 70
     0
  9
$TDCREATE
 40
2461192.829155093
  9
$TDUCREATE
 40
2461192.745821759
  9
$TDUPDATE
 40
2461192.829155093
  9
$TDUUPDATE
 40
2461192.745821759
  9
$TDINDWG
 40
0.0000000000
  9
$TDUSRTIMER
 40
0.0000000000
  9
$USRTIMER
 70
     1
  9
$ANGBASE
 50
0.0
  9
$ANGDIR
 70
     0
  9
$PDMODE
 70
     0
  9
$PDSIZE
 40
0.0
  9
$PLINEWID
 40
0.0
  9
$SPLFRAME
 70
     0
  9
$SPLINETYPE
 70
     6
  9
$SPLINESEGS
 70
     8
  9
$HANDSEED
  5
CC
  9
$SURFTAB1
 70
     6
  9
$SURFTAB2
 70
     6
  9
$SURFTYPE
 70
     6
  9
$SURFU
 70
     6
  9
$SURFV
 70
     6
  9
$UCSBASE
  2

  9
$UCSNAME
  2

  9
$UCSORG
 10
0.0
 20
0.0
 30
0.0
  9
$UCSXDIR
 10
1.0
 20
0.0
 30
0.0
  9
$UCSYDIR
 10
0.0
 20
1.0
 30
0.0
  9
$UCSORTHOREF
  2

  9
$UCSORTHOVIEW
 70
     0
  9
$UCSORGTOP
 10
0.0
 20
0.0
 30
0.0
  9
$UCSORGBOTTOM
 10
0.0
 20
0.0
 30
0.0
  9
$UCSORGLEFT
 10
0.0
 20
0.0
 30
0.0
  9
$UCSORGRIGHT
 10
0.0
 20
0.0
 30
0.0
  9
$UCSORGFRONT
 10
0.0
 20
0.0
 30
0.0
  9
$UCSORGBACK
 10
0.0
 20
0.0
 30
0.0
  9
$PUCSBASE
  2

  9
$PUCSNAME
  2

  9
$PUCSORG
 10
0.0
 20
0.0
 30
0.0
  9
$PUCSXDIR
 10
1.0
 20
0.0
 30
0.0
  9
$PUCSYDIR
 10
0.0
 20
1.0
 30
0.0
  9
$PUCSORTHOREF
  2

  9
$PUCSORTHOVIEW
 70
     0
  9
$PUCSORGTOP
 10
0.0
 20
0.0
 30
0.0
  9
$PUCSORGBOTTOM
 10
0.0
 20
0.0
 30
0.0
  9
$PUCSORGLEFT
 10
0.0
 20
0.0
 30
0.0
  9
$PUCSORGRIGHT
 10
0.0
 20
0.0
 30
0.0
  9
$PUCSORGFRONT
 10
0.0
 20
0.0
 30
0.0
  9
$PUCSORGBACK
 10
0.0
 20
0.0
 30
0.0
  9
$USERI1
 70
     0
  9
$USERI2
 70
     0
  9
$USERI3
 70
     0
  9
$USERI4
 70
     0
  9
$USERI5
 70
     0
  9
$USERR1
 40
0.0
  9
$USERR2
 40
0.0
  9
$USERR3
 40
0.0
  9
$USERR4
 40
0.0
  9
$USERR5
 40
0.0
  9
$WORLDVIEW
 70
     1
  9
$SHADEDGE
 70
     3
  9
$SHADEDIF
 70
    70
  9
$TILEMODE
 70
     1
  9
$MAXACTVP
 70
    64
  9
$PINSBASE
 10
0.0
 20
0.0
 30
0.0
  9
$PLIMCHECK
 70
     0
  9
$PEXTMIN
 10
1.000000000000000E+20
 20
1.000000000000000E+20
 30
1.000000000000000E+20
  9
$PEXTMAX
 10
-1.000000000000000E+20
 20
-1.000000000000000E+20
 30
-1.000000000000000E+20
  9
$PLIMMIN
 10
0.0
 20
0.0
  9
$PLIMMAX
 10
12.0
 20
9.0
  9
$UNITMODE
 70
     0
  9
$VISRETAIN
 70
     1
  9
$PLINEGEN
 70
     0
  9
$PSLTSCALE
 70
     1
  9
$TREEDEPTH
 70
  3020
  9
$CMLSTYLE
  2
Standard
  9
$CMLJUST
 70
     0
  9
$CMLSCALE
 40
1.0
  9
$PROXYGRAPHICS
 70
     1
  9
$MEASUREMENT
 70
     0
  9
$CELWEIGHT
370
    -1
  9
$ENDCAPS
280
     0
  9
$JOINSTYLE
280
     0
  9
$LWDISPLAY
290
     1
  9
$INSUNITS
 70
     4
  9
$HYPERLINKBASE
  1

  9
$STYLESHEET
  1

  9
$XEDIT
290
     1
  9
$CEPSNTYPE
380
     0
  9
$PSTYLEMODE
290
     1
  9
$FINGERPRINTGUID
  2
{6FF91590-5F10-3645-8239-D95E582EC791}
  9
$VERSIONGUID
  2
{B9321ED4-CC9B-0E43-8792-1AB9666F75B4}
  9
$EXTNAMES
290
     1
  9
$PSVPSCALE
 40
0.0
  9
$OLESTARTUP
290
     0
  9
$SORTENTS
280
   127
  9
$INDEXCTL
280
     0
  9
$HIDETEXT
280
     1
  9
$XCLIPFRAME
280
     2
  9
$HALOGAP
280
     0
  9
$OBSCOLOR
 70
   257
  9
$OBSLTYPE
280
     0
  9
$INTERSECTIONDISPLAY
280
     0
  9
$INTERSECTIONCOLOR
 70
   257
  9
$DIMASSOC
280
     2
  9
$PROJECTNAME
  1

  9
$CAMERADISPLAY
290
     0
  9
$LENSLENGTH
 40
50.0
  9
$CAMERAHEIGHT
 40
0.0
  9
$STEPSPERSEC
 40
2.0
  9
$STEPSIZE
 40
6.0
  9
$3DDWFPREC
 40
2.0
  9
$PSOLWIDTH
 40
0.25
  9
$PSOLHEIGHT
 40
4.0
  9
$LOFTANG1
 40
1.570796326794896
  9
$LOFTANG2
 40
1.570796326794896
  9
$LOFTMAG1
 40
0.0
  9
$LOFTMAG2
 40
0.0
  9
$LOFTPARAM
 70
     7
  9
$LOFTNORMALS
280
     1
  9
$LATITUDE
 40
37.795
  9
$LONGITUDE
 40
-122.394
  9
$NORTHDIRECTION
 40
0.0
  9
$TIMEZONE
 70
 -8000
  9
$LIGHTGLYPHDISPLAY
280
     1
  9
$TILEMODELIGHTSYNCH
280
     1
  9
$CMATERIAL
347
11
  9
$SOLIDHIST
280
     0
  9
$SHOWHIST
280
     1
  9
$DWFFRAME
280
     2
  9
$DGNFRAME
280
     0
  9
$REALWORLDSCALE
290
     1
  9
$INTERFERECOLOR
 62
     1
  9
$INTERFEREOBJVS
345
33
  9
$INTERFEREVPVS
346
30
  9
$CSHADOW
280
     0
  9
$SHADOWPLANELOCATION
 40
0.0
  0
ENDSEC
  0
SECTION
  2
CLASSES
  0
CLASS
  1
ACDBDICTIONARYWDFLT
  2
AcDbDictionaryWithDefault
  3
ObjectDBX Classes
 90
        0
 91
        1
280
     0
281
     0
  0
CLASS
  1
MATERIAL
  2
AcDbMaterial
  3
ObjectDBX Classes
 90
     1153
 91
        3
280
     0
281
     0
  0
CLASS
  1
VISUALSTYLE
  2
AcDbVisualStyle
  3
ObjectDBX Classes
 90
     4095
 91
       24
280
     0
281
     0
  0
CLASS
  1
SCALE
  2
AcDbScale
  3
ObjectDBX Classes
 90
     1153
 91
       17
280
     0
281
     0
  0
CLASS
  1
TABLESTYLE
  2
AcDbTableStyle
  3
ObjectDBX Classes
 90
     4095
 91
        1
280
     0
281
     0
  0
CLASS
  1
MLEADERSTYLE
  2
AcDbMLeaderStyle
  3
ACDB_MLEADERSTYLE_CLASS
 90
     4095
 91
        1
280
     0
281
     0
  0
CLASS
  1
ACDBSECTIONVIEWSTYLE
  2
AcDbSectionViewStyle
  3
ObjectDBX Classes
 90
     1025
 91
        1
280
     0
281
     0
  0
CLASS
  1
ACDBDETAILVIEWSTYLE
  2
AcDbDetailViewStyle
  3
ObjectDBX Classes
 90
     1025
 91
        1
280
     0
281
     0
  0
CLASS
  1
DICTIONARYVAR
  2
AcDbDictionaryVar
  3
ObjectDBX Classes
 90
        0
 91
        5
280
     0
281
     0
  0
CLASS
  1
CELLSTYLEMAP
  2
AcDbCellStyleMap
  3
ObjectDBX Classes
 90
     1152
 91
        1
280
     0
281
     0
  0
ENDSEC
  0
SECTION
  2
TABLES
  0
TABLE
  2
VPORT
  5
8
330
0
100
AcDbSymbolTable
 70
     1
  0
VPORT
  5
57
330
8
100
AcDbSymbolTableRecord
100
AcDbViewportTableRecord
  2
*Active
 70
     0
 10
0.0
 20
0.0
 11
1.0
 21
1.0
 12
0.0
 22
0.0
 13
0.0
 23
0.0
 14
1.0
 24
1.0
 15
0.0
 25
0.0
 16
0.0
 26
0.0
 36
1.0
 17
149.9305555180729
 27
251.8833332703625
 37
0.0
 40
63.11249133757478
 41
1.471861917770082
 42
50.0
 43
0.0
 44
0.0
 50
0.0
 51
0.0
 71
     0
 72
   100
 73
     1
 74
     1
 75
     0
 76
     0
 77
     0
 78
     0
281
     0
 65
     1
110
0.0
120
0.0
130
0.0
111
1.0
121
0.0
131
0.0
112
0.0
122
1.0
132
0.0
 79
     0
146
0.0
 60
     3
 61
     5
292
     1
282
     1
141
0.0
142
0.0
 63
   250
421
  3355443
  0
ENDTAB
  0
TABLE
  2
LTYPE
  5
5
330
0
100
AcDbSymbolTable
 70
     1
  0
LTYPE
  5
5B
330
5
100
AcDbSymbolTableRecord
100
AcDbLinetypeTableRecord
  2
ByBlock
 70
     0
  3

 72
    65
 73
     0
 40
0.0
  0
LTYPE
  5
5C
330
5
100
AcDbSymbolTableRecord
100
AcDbLinetypeTableRecord
  2
ByLayer
 70
     0
  3

 72
    65
 73
     0
 40
0.0
  0
LTYPE
  5
5D
330
5
100
AcDbSymbolTableRecord
100
AcDbLinetypeTableRecord
  2
Continuous
 70
     0
  3
Solid line
 72
    65
 73
     0
 40
0.0
  0
ENDTAB
  0
TABLE
  2
LAYER
  5
2
330
0
100
AcDbSymbolTable
 70
     2
  0
LAYER
  5
54
330
2
100
AcDbSymbolTableRecord
100
AcDbLayerTableRecord
  2
0
 70
     0
 62
     7
  6
Continuous
370
    -3
390
F
347
21
348
0
  0
LAYER
  5
78
330
2
100
AcDbSymbolTableRecord
100
AcDbLayerTableRecord
  2
Ebene 1
 70
     0
 62
     7
  6
Continuous
370
     0
390
F
347
21
348
0
  0
ENDTAB
  0
TABLE
  2
STYLE
  5
3
330
0
100
AcDbSymbolTable
 70
     2
  0
STYLE
  5
55
330
3
100
AcDbSymbolTableRecord
100
AcDbTextStyleTableRecord
  2
Standard
 70
     0
 40
0.0
 41
1.0
 50
0.0
 71
     0
 42
0.2
  3
txt
  4

  0
STYLE
  5
5A
330
3
100
AcDbSymbolTableRecord
100
AcDbTextStyleTableRecord
  2
Annotative
 70
     0
 40
0.0
 41
1.0
 50
0.0
 71
     0
 42
0.2
  3
txt
  4

1001
AcadAnnotative
1000
AnnotativeData
1002
{
1070
     1
1070
     1
1002
}
  0
ENDTAB
  0
TABLE
  2
VIEW
  5
6
330
0
100
AcDbSymbolTable
 70
     0
  0
ENDTAB
  0
TABLE
  2
UCS
  5
7
330
0
100
AcDbSymbolTable
 70
     0
  0
ENDTAB
  0
TABLE
  2
APPID
  5
9
330
0
100
AcDbSymbolTable
 70
     2
  0
APPID
  5
56
330
9
100
AcDbSymbolTableRecord
100
AcDbRegAppTableRecord
  2
ACAD
 70
     0
  0
APPID
  5
5E
330
9
100
AcDbSymbolTableRecord
100
AcDbRegAppTableRecord
  2
AcadAnnotative
 70
     0
  0
ENDTAB
  0
TABLE
  2
DIMSTYLE
  5
A
330
0
100
AcDbSymbolTable
 70
     2
100
AcDbDimStyleTable
 71
     0
  0
DIMSTYLE
105
58
330
A
100
AcDbSymbolTableRecord
100
AcDbDimStyleTableRecord
  2
Standard
 70
     0
340
55
  0
DIMSTYLE
105
59
330
A
100
AcDbSymbolTableRecord
100
AcDbDimStyleTableRecord
  2
Annotative
 70
     0
340
55
1001
AcadAnnotative
1000
AnnotativeData
1002
{
1070
     1
1070
     1
1002
}
  0
ENDTAB
  0
TABLE
  2
BLOCK_RECORD
  5
1
330
0
100
AcDbSymbolTable
 70
    10
  0
BLOCK_RECORD
  5
70
330
1
100
AcDbSymbolTableRecord
100
AcDbBlockTableRecord
  2
*Model_Space
340
73
 70
     0
280
     1
281
     0
  0
BLOCK_RECORD
  5
6C
330
1
100
AcDbSymbolTableRecord
100
AcDbBlockTableRecord
  2
*Paper_Space
340
6F
 70
     0
280
     1
281
     0
  0
BLOCK_RECORD
  5
74
330
1
100
AcDbSymbolTableRecord
100
AcDbBlockTableRecord
  2
*Paper_Space0
340
77
 70
     0
280
     1
281
     0
  0
BLOCK_RECORD
  5
79
330
1
100
AcDbSymbolTableRecord
100
AcDbBlockTableRecord
  2
Block_0
340
0
102
{BLKREFS
331
7A
102
}
 70
     0
280
     1
281
     0
  0
BLOCK_RECORD
  5
7D
330
1
100
AcDbSymbolTableRecord
100
AcDbBlockTableRecord
  2
Block_1
340
0
102
{BLKREFS
331
7E
102
}
 70
     0
280
     1
281
     0
  0
BLOCK_RECORD
  5
81
330
1
100
AcDbSymbolTableRecord
100
AcDbBlockTableRecord
  2
Block_2
340
0
102
{BLKREFS
331
82
102
}
 70
     0
280
     1
281
     0
  0
BLOCK_RECORD
  5
96
330
1
100
AcDbSymbolTableRecord
100
AcDbBlockTableRecord
  2
Block_3
340
0
102
{BLKREFS
331
97
102
}
 70
     0
280
     1
281
     0
  0
BLOCK_RECORD
  5
9A
330
1
100
AcDbSymbolTableRecord
100
AcDbBlockTableRecord
  2
Block_4
340
0
102
{BLKREFS
331
9B
102
}
 70
     0
280
     1
281
     0
  0
BLOCK_RECORD
  5
AB
330
1
100
AcDbSymbolTableRecord
100
AcDbBlockTableRecord
  2
Block_5
340
0
102
{BLKREFS
331
AC
102
}
 70
     0
280
     1
281
     0
  0
BLOCK_RECORD
  5
AF
330
1
100
AcDbSymbolTableRecord
100
AcDbBlockTableRecord
  2
Block_6
340
0
102
{BLKREFS
331
B0
102
}
 70
     0
280
     1
281
     0
  0
BLOCK_RECORD
  5
B3
330
1
100
AcDbSymbolTableRecord
100
AcDbBlockTableRecord
  2
Block_7
340
0
102
{BLKREFS
331
B4
102
}
 70
     0
280
     1
281
     0
  0
BLOCK_RECORD
  5
B7
330
1
100
AcDbSymbolTableRecord
100
AcDbBlockTableRecord
  2
Block_8
340
0
102
{BLKREFS
331
B8
102
}
 70
     0
280
     1
281
     0
  0
ENDTAB
  0
ENDSEC
  0
SECTION
  2
BLOCKS
  0
BLOCK
  5
71
330
70
100
AcDbEntity
  8
0
100
AcDbBlockBegin
  2
*Model_Space
 70
     0
 10
0.0
 20
0.0
 30
0.0
  3
*Model_Space
  1

  0
ENDBLK
  5
72
330
70
100
AcDbEntity
  8
0
100
AcDbBlockEnd
  0
BLOCK
  5
6D
330
6C
100
AcDbEntity
 67
     1
  8
0
100
AcDbBlockBegin
  2
*Paper_Space
 70
     0
 10
0.0
 20
0.0
 30
0.0
  3
*Paper_Space
  1

  0
ENDBLK
  5
6E
330
6C
100
AcDbEntity
 67
     1
  8
0
100
AcDbBlockEnd
  0
BLOCK
  5
75
330
74
100
AcDbEntity
 67
     1
  8
0
100
AcDbBlockBegin
  2
*Paper_Space0
 70
     0
 10
0.0
 20
0.0
 30
0.0
  3
*Paper_Space0
  1

  0
ENDBLK
  5
76
330
74
100
AcDbEntity
 67
     1
  8
0
100
AcDbBlockEnd
  0
BLOCK
  5
7B
330
79
100
AcDbEntity
  8
0
100
AcDbBlockBegin
  2
Block_0
 70
     0
 10
0.0
 20
0.0
 30
0.0
  3
Block_0
  1

  0
INSERT
  5
7E
330
79
100
AcDbEntity
  8
Ebene 1
100
AcDbBlockReference
  2
Block_1
 10
0.0
 20
0.0
 30
0.0
  0
INSERT
  5
97
330
79
100
AcDbEntity
  8
Ebene 1
100
AcDbBlockReference
  2
Block_3
 10
0.0
 20
0.0
 30
0.0
  0
INSERT
  5
AC
330
79
100
AcDbEntity
  8
Ebene 1
100
AcDbBlockReference
  2
Block_5
 10
0.0
 20
0.0
 30
0.0
  0
INSERT
  5
B4
330
79
100
AcDbEntity
  8
Ebene 1
100
AcDbBlockReference
  2
Block_7
 10
0.0
 20
0.0
 30
0.0
  0
LWPOLYLINE
  5
C2
330
79
100
AcDbEntity
  8
Ebene 1
100
AcDbPolyline
 90
        4
 70
     1
 43
0.0
 10
104.3948336870089
 20
282.8208290240756
 10
104.3948336870089
 20
220.9458375166494
 10
195.4662773491369
 20
220.9458375166494
 10
195.4662773491369
 20
282.8208290240756
  0
ENDBLK
  5
7C
330
79
100
AcDbEntity
  8
0
100
AcDbBlockEnd
  0
BLOCK
  5
7F
330
7D
100
AcDbEntity
  8
0
100
AcDbBlockBegin
  2
Block_1
 70
     0
 10
0.0
 20
0.0
 30
0.0
  3
Block_1
  1

  0
INSERT
  5
82
330
7D
100
AcDbEntity
  8
Ebene 1
100
AcDbBlockReference
  2
Block_2
 10
0.0
 20
0.0
 30
0.0
  0
ENDBLK
  5
80
330
7D
100
AcDbEntity
  8
0
100
AcDbBlockEnd
  0
BLOCK
  5
83
330
81
100
AcDbEntity
  8
0
100
AcDbBlockBegin
  2
Block_2
 70
     0
 10
0.0
 20
0.0
 30
0.0
  3
Block_2
  1

  0
SPLINE
  5
85
330
81
100
AcDbEntity
  8
Ebene 1
100
AcDbSpline
210
0.0
220
0.0
230
1.0
 70
     9
 71
     3
 72
    32
 73
    28
 74
     0
 42
0.0000000001
 43
0.0000000001
 40
0.0
 40
0.0
 40
0.0
 40
0.0
 40
1.0
 40
1.0
 40
1.0
 40
2.0
 40
2.0
 40
2.0
 40
3.0
 40
3.0
 40
3.0
 40
4.0
 40
4.0
 40
4.0
 40
5.0
 40
5.0
 40
5.0
 40
6.0
 40
6.0
 40
6.0
 40
7.0
 40
7.0
 40
7.0
 40
8.0
 40
8.0
 40
8.0
 40
9.0
 40
9.0
 40
9.0
 40
9.0
 10
116.0401177010247
 20
252.0269937520974
 30
0.0
 10
116.0401177010247
 20
252.0269937520974
 30
0.0
 10
116.5076171583731
 20
252.0269937520974
 30
0.0
 10
116.5076171583731
 20
252.0269937520974
 30
0.0
 10
116.9205118522803
 20
252.0269937520974
 30
0.0
 10
117.1694200010896
 20
252.1644530619589
 30
0.0
 10
117.2726006108728
 20
252.542552291465
 30
0.0
 10
117.3151475401156
 20
252.6800116013265
 30
0.0
 10
117.3394354632867
 20
252.8586398022368
 30
0.0
 10
117.3394354632867
 20
253.4635985694466
 30
0.0
 10
117.3394354632867
 20
254.0685573366565
 30
0.0
 10
117.3151475401156
 20
254.2471855375667
 30
0.0
 10
117.2726006108728
 20
254.3848171022024
 30
0.0
 10
117.1694200010896
 20
254.7627440769343
 30
0.0
 10
116.9205118522803
 20
254.9003756415701
 30
0.0
 10
116.5076171583731
 20
254.9003756415701
 30
0.0
 10
116.5076171583731
 20
254.9003756415701
 30
0.0
 10
116.0401177010247
 20
254.9003756415701
 30
0.0
 10
116.0401177010247
 20
254.9003756415701
 30
0.0
 10
116.0156575230794
 20
254.9003756415701
 30
0.0
 10
116.003599688881
 20
254.886595259629
 30
0.0
 10
116.003599688881
 20
254.8590344957471
 30
0.0
 10
116.003599688881
 20
254.8590344957471
 30
0.0
 10
116.003599688881
 20
252.0681626431461
 30
0.0
 10
116.003599688881
 20
252.0681626431461
 30
0.0
 10
116.003599688881
 20
252.0407741340384
 30
0.0
 10
116.0156575230794
 20
252.0269937520974
 30
0.0
 10
116.0401177010247
 20
252.0269937520974
 30
0.0
  0
SPLINE
  5
86
330
81
100
AcDbEntity
  8
Ebene 1
100
AcDbSpline
210
0.0
220
0.0
230
1.0
 70
     9
 71
     3
 72
    32
 73
    28
 74
     0
 42
0.0000000001
 43
0.0000000001
 40
0.0
 40
0.0
 40
0.0
 40
0.0
 40
1.0
 40
1.0
 40
1.0
 40
2.0
 40
2.0
 40
2.0
 40
3.0
 40
3.0
 40
3.0
 40
4.0
 40
4.0
 40
4.0
 40
5.0
 40
5.0
 40
5.0
 40
6.0
 40
6.0
 40
6.0
 40
7.0
 40
7.0
 40
7.0
 40
8.0
 40
8.0
 40
8.0
 40
9.0
 40
9.0
 40
9.0
 40
9.0
 10
115.1109754486528
 20
255.7320216917094
 30
0.0
 10
115.1109754486528
 20
255.7733628375324
 30
0.0
 10
115.1352633718238
 20
255.8007513466401
 30
0.0
 10
115.1717813839674
 20
255.8007513466401
 30
0.0
 10
115.1717813839674
 20
255.8007513466401
 30
0.0
 10
116.7079494608403
 20
255.8007513466401
 30
0.0
 10
116.7079494608403
 20
255.8007513466401
 30
0.0
 10
117.4305582388715
 20
255.8007513466401
 30
0.0
 10
117.9345757083636
 20
255.450212881016
 30
0.0
 10
118.1349080108308
 20
254.7491359497676
 30
0.0
 10
118.2077717803439
 20
254.4878254572114
 30
0.0
 10
118.2441175377133
 20
254.2266872194295
 30
0.0
 10
118.2441175377133
 20
253.4635985694466
 30
0.0
 10
118.2441175377133
 20
252.700682174238
 30
0.0
 10
118.2077717803439
 20
252.4393716816819
 30
0.0
 10
118.1349080108308
 20
252.1782334438999
 30
0.0
 10
117.9345757083636
 20
251.4771565126515
 30
0.0
 10
117.4305582388715
 20
251.1264457922531
 30
0.0
 10
116.7079494608403
 20
251.1264457922531
 30
0.0
 10
116.7079494608403
 20
251.1264457922531
 30
0.0
 10
115.1717813839674
 20
251.1264457922531
 30
0.0
 10
115.1717813839674
 20
251.1264457922531
 30
0.0
 10
115.1352633718238
 20
251.1264457922531
 30
0.0
 10
115.1109754486528
 20
251.1540065561352
 30
0.0
 10
115.1109754486528
 20
251.1953477019581
 30
0.0
 10
115.1109754486528
 20
251.1953477019581
 30
0.0
 10
115.1109754486528
 20
255.7320216917094
 30
0.0
 10
115.1109754486528
 20
255.7320216917094
 30
0.0
  0
HATCH
  5
87
330
81
100
AcDbEntity
  8
Ebene 1
 62
   250
420
  1907995
440
 33554687
100
AcDbHatch
 10
0.0
 20
0.0
 30
0.0
210
0.0
220
0.0
230
1.0
  2
SOLID
 70
     1
 71
     1
 91
        2
 92
        1
 93
        1
 72
     4
 94
        3
 73
     0
 74
     0
 95
       32
 96
       28
 40
0.0
 40
0.0
 40
0.0
 40
0.0
 40
1.0
 40
1.0
 40
1.0
 40
2.0
 40
2.0
 40
2.0
 40
3.0
 40
3.0
 40
3.0
 40
4.0
 40
4.0
 40
4.0
 40
5.0
 40
5.0
 40
5.0
 40
6.0
 40
6.0
 40
6.0
 40
7.0
 40
7.0
 40
7.0
 40
8.0
 40
8.0
 40
8.0
 40
9.0
 40
9.0
 40
9.0
 40
9.0
 10
116.0401177010247
 20
252.0269937520974
 10
116.0401177010247
 20
252.0269937520974
 10
116.5076171583731
 20
252.0269937520974
 10
116.5076171583731
 20
252.0269937520974
 10
116.9205118522803
 20
252.0269937520974
 10
117.1694200010896
 20
252.1644530619589
 10
117.2726006108728
 20
252.542552291465
 10
117.3151475401156
 20
252.6800116013265
 10
117.3394354632867
 20
252.8586398022368
 10
117.3394354632867
 20
253.4635985694466
 10
117.3394354632867
 20
254.0685573366565
 10
117.3151475401156
 20
254.2471855375667
 10
117.2726006108728
 20
254.3848171022024
 10
117.1694200010896
 20
254.7627440769343
 10
116.9205118522803
 20
254.9003756415701
 10
116.5076171583731
 20
254.9003756415701
 10
116.5076171583731
 20
254.9003756415701
 10
116.0401177010247
 20
254.9003756415701
 10
116.0401177010247
 20
254.9003756415701
 10
116.0156575230794
 20
254.9003756415701
 10
116.003599688881
 20
254.886595259629
 10
116.003599688881
 20
254.8590344957471
 10
116.003599688881
 20
254.8590344957471
 10
116.003599688881
 20
252.0681626431461
 10
116.003599688881
 20
252.0681626431461
 10
116.003599688881
 20
252.0407741340384
 10
116.0156575230794
 20
252.0269937520974
 10
116.0401177010247
 20
252.0269937520974
 97
        0
 97
        1
330
85
 92
        1
 93
        1
 72
     4
 94
        3
 73
     0
 74
     0
 95
       32
 96
       28
 40
0.0
 40
0.0
 40
0.0
 40
0.0
 40
1.0
 40
1.0
 40
1.0
 40
2.0
 40
2.0
 40
2.0
 40
3.0
 40
3.0
 40
3.0
 40
4.0
 40
4.0
 40
4.0
 40
5.0
 40
5.0
 40
5.0
 40
6.0
 40
6.0
 40
6.0
 40
7.0
 40
7.0
 40
7.0
 40
8.0
 40
8.0
 40
8.0
 40
9.0
 40
9.0
 40
9.0
 40
9.0
 10
115.1109754486528
 20
255.7320216917094
 10
115.1109754486528
 20
255.7733628375324
 10
115.1352633718238
 20
255.8007513466401
 10
115.1717813839674
 20
255.8007513466401
 10
115.1717813839674
 20
255.8007513466401
 10
116.7079494608403
 20
255.8007513466401
 10
116.7079494608403
 20
255.8007513466401
 10
117.4305582388715
 20
255.8007513466401
 10
117.9345757083636
 20
255.450212881016
 10
118.1349080108308
 20
254.7491359497676
 10
118.2077717803439
 20
254.4878254572114
 10
118.2441175377133
 20
254.2266872194295
 10
118.2441175377133
 20
253.4635985694466
 10
118.2441175377133
 20
252.700682174238
 10
118.2077717803439
 20
252.4393716816819
 10
118.1349080108308
 20
252.1782334438999
 10
117.9345757083636
 20
251.4771565126515
 10
117.4305582388715
 20
251.1264457922531
 10
116.7079494608403
 20
251.1264457922531
 10
116.7079494608403
 20
251.1264457922531
 10
115.1717813839674
 20
251.1264457922531
 10
115.1717813839674
 20
251.1264457922531
 10
115.1352633718238
 20
251.1264457922531
 10
115.1109754486528
 20
251.1540065561352
 10
115.1109754486528
 20
251.1953477019581
 10
115.1109754486528
 20
251.1953477019581
 10
115.1109754486528
 20
255.7320216917094
 10
115.1109754486528
 20
255.7320216917094
 97
        0
 97
        1
330
86
 75
     2
 76
     1
 98
        1
 10
0.0
 20
0.0
450
        0
451
        0
460
0.0
461
0.0
452
        0
462
0.0
453
        0
470

  0
SPLINE
  5
88
330
81
100
AcDbEntity
  8
Ebene 1
100
AcDbSpline
210
0.0
220
0.0
230
1.0
 70
     9
 71
     3
 72
    26
 73
    22
 74
     0
 42
0.0000000001
 43
0.0000000001
 40
0.0
 40
0.0
 40
0.0
 40
0.0
 40
1.0
 40
1.0
 40
1.0
 40
2.0
 40
2.0
 40
2.0
 40
3.0
 40
3.0
 40
3.0
 40
4.0
 40
4.0
 40
4.0
 40
5.0
 40
5.0
 40
5.0
 40
6.0
 40
6.0
 40
6.0
 40
7.0
 40
7.0
 40
7.0
 40
7.0
 10
120.630018416023
 20
253.1406208677044
 30
0.0
 10
120.654306339194
 20
253.1406208677044
 30
0.0
 10
120.6665364281667
 20
253.1542289948712
 30
0.0
 10
120.6665364281667
 20
253.1817897587532
 30
0.0
 10
120.6665364281667
 20
253.2849703685364
 30
0.0
 10
120.654306339194
 20
253.3605902144377
 30
0.0
 10
120.6360473331222
 20
253.4293198693684
 30
0.0
 10
120.5693847354826
 20
253.6561794070721
 30
0.0
 10
120.3871391843129
 20
253.7936387169335
 30
0.0
 10
120.1442599526028
 20
253.7936387169335
 30
0.0
 10
119.9013807208927
 20
253.7936387169335
 30
0.0
 10
119.719135169723
 20
253.6561794070721
 30
0.0
 10
119.6524725720834
 20
253.4293198693684
 30
0.0
 10
119.6342135660116
 20
253.3605902144377
 30
0.0
 10
119.6219834770389
 20
253.2849703685364
 30
0.0
 10
119.6219834770389
 20
253.1817897587532
 30
0.0
 10
119.6219834770389
 20
253.1542289948712
 30
0.0
 10
119.6342135660116
 20
253.1406208677044
 30
0.0
 10
119.6585014891826
 20
253.1406208677044
 30
0.0
 10
119.6585014891826
 20
253.1406208677044
 30
0.0
 10
120.630018416023
 20
253.1406208677044
 30
0.0
 10
120.630018416023
 20
253.1406208677044
 30
0.0
  0
SPLINE
  5
89
330
81
100
AcDbEntity
  8
Ebene 1
100
AcDbSpline
210
0.0
220
0.0
230
1.0
 70
     9
 71
     3
 72
    53
 73
    49
 74
     0
 42
0.0000000001
 43
0.0000000001
 40
0.0
 40
0.0
 40
0.0
 40
0.0
 40
1.0
 40
1.0
 40
1.0
 40
2.0
 40
2.0
 40
2.0
 40
3.0
 40
3.0
 40
3.0
 40
4.0
 40
4.0
 40
4.0
 40
5.0
 40
5.0
 40
5.0
 40
6.0
 40
6.0
 40
6.0
 40
7.0
 40
7.0
 40
7.0
 40
8.0
 40
8.0
 40
8.0
 40
9.0
 40
9.0
 40
9.0
 40
10.0
 40
10.0
 40
10.0
 40
11.0
 40
11.0
 40
11.0
 40
12.0
 40
12.0
 40
12.0
 40
13.0
 40
13.0
 40
13.0
 40
14.0
 40
14.0
 40
14.0
 40
15.0
 40
15.0
 40
15.0
 40
16.0
 40
16.0
 40
16.0
 40
16.0
 10
118.8812879477102
 20
251.9994329882154
 30
0.0
 10
118.8206542671698
 20
252.2056219530076
 30
0.0
 10
118.778107337927
 20
252.4462618726523
 30
0.0
 10
118.778107337927
 20
252.789910147306
 30
0.0
 10
118.778107337927
 20
253.1406208677044
 30
0.0
 10
118.8144530952964
 20
253.3810885325749
 30
0.0
 10
118.875259030611
 20
253.5872774973671
 30
0.0
 10
119.0452744928081
 20
254.1853460736064
 30
0.0
 10
119.5127739501565
 20
254.5291666030344
 30
0.0
 10
120.1382310355036
 20
254.5291666030344
 30
0.0
 10
120.7878037892475
 20
254.5291666030344
 30
0.0
 10
121.2372164952983
 20
254.178455882636
 30
0.0
 10
121.4072319574954
 20
253.5941676883376
 30
0.0
 10
121.4678656380358
 20
253.3741983416044
 30
0.0
 10
121.5043836501794
 20
253.1337306767339
 30
0.0
 10
121.5043836501794
 20
252.5699408005728
 30
0.0
 10
121.5043836501794
 20
252.5287719095241
 30
0.0
 10
121.4800957270084
 20
252.5012111456421
 30
0.0
 10
121.4375487977656
 20
252.5012111456421
 30
0.0
 10
121.4375487977656
 20
252.5012111456421
 30
0.0
 10
119.6585014891826
 20
252.5012111456421
 30
0.0
 10
119.6585014891826
 20
252.5012111456421
 30
0.0
 10
119.6342135660116
 20
252.5012111456421
 30
0.0
 10
119.6219834770389
 20
252.4874307637011
 30
0.0
 10
119.6219834770389
 20
252.4600422545933
 30
0.0
 10
119.6281846489124
 20
252.3913125996626
 30
0.0
 10
119.6402424831108
 20
252.3294731357024
 30
0.0
 10
119.6585014891826
 20
252.2743516079384
 30
0.0
 10
119.7373941757948
 20
251.9856526062744
 30
0.0
 10
119.9620144014331
 20
251.834412914472
 30
0.0
 10
120.2656995684579
 20
251.834412914472
 30
0.0
 10
120.55715464651
 20
251.834412914472
 30
0.0
 10
120.7697170379499
 20
251.9513739061962
 30
0.0
 10
120.939732500147
 20
252.1300021071064
 30
0.0
 10
120.9700493404172
 20
252.1575628709884
 30
0.0
 10
121.0003661806874
 20
252.1644530619589
 30
0.0
 10
121.0246541038584
 20
252.1300021071064
 30
0.0
 10
121.0246541038584
 20
252.1300021071064
 30
0.0
 10
121.4254909635672
 20
251.703843795581
 30
0.0
 10
121.4254909635672
 20
251.703843795581
 30
0.0
 10
121.4558078038374
 20
251.676283031699
 30
0.0
 10
121.4558078038374
 20
251.6352863954245
 30
0.0
 10
121.4315198806664
 20
251.6077256315425
 30
0.0
 10
121.1522948915869
 20
251.2707952930851
 30
0.0
 10
120.7211411916079
 20
251.0509982011261
 30
0.0
 10
120.1807779647465
 20
251.0509982011261
 30
0.0
 10
119.5127739501565
 20
251.0509982011261
 30
0.0
 10
119.0513034099073
 20
251.401364411976
 30
0.0
 10
118.8812879477102
 20
251.9994329882154
 30
0.0
  0
HATCH
  5
8A
330
81
100
AcDbEntity
  8
Ebene 1
 62
   250
420
  1907995
440
 33554687
100
AcDbHatch
 10
0.0
 20
0.0
 30
0.0
210
0.0
220
0.0
230
1.0
  2
SOLID
 70
     1
 71
     1
 91
        2
 92
        1
 93
        1
 72
     4
 94
        3
 73
     0
 74
     0
 95
       26
 96
       22
 40
0.0
 40
0.0
 40
0.0
 40
0.0
 40
1.0
 40
1.0
 40
1.0
 40
2.0
 40
2.0
 40
2.0
 40
3.0
 40
3.0
 40
3.0
 40
4.0
 40
4.0
 40
4.0
 40
5.0
 40
5.0
 40
5.0
 40
6.0
 40
6.0
 40
6.0
 40
7.0
 40
7.0
 40
7.0
 40
7.0
 10
120.630018416023
 20
253.1406208677044
 10
120.654306339194
 20
253.1406208677044
 10
120.6665364281667
 20
253.1542289948712
 10
120.6665364281667
 20
253.1817897587532
 10
120.6665364281667
 20
253.2849703685364
 10
120.654306339194
 20
253.3605902144377
 10
120.6360473331222
 20
253.4293198693684
 10
120.5693847354826
 20
253.6561794070721
 10
120.3871391843129
 20
253.7936387169335
 10
120.1442599526028
 20
253.7936387169335
 10
119.9013807208927
 20
253.7936387169335
 10
119.719135169723
 20
253.6561794070721
 10
119.6524725720834
 20
253.4293198693684
 10
119.6342135660116
 20
253.3605902144377
 10
119.6219834770389
 20
253.2849703685364
 10
119.6219834770389
 20
253.1817897587532
 10
119.6219834770389
 20
253.1542289948712
 10
119.6342135660116
 20
253.1406208677044
 10
119.6585014891826
 20
253.1406208677044
 10
119.6585014891826
 20
253.1406208677044
 10
120.630018416023
 20
253.1406208677044
 10
120.630018416023
 20
253.1406208677044
 97
        0
 97
        1
330
88
 92
        1
 93
        1
 72
     4
 94
        3
 73
     0
 74
     0
 95
       53
 96
       49
 40
0.0
 40
0.0
 40
0.0
 40
0.0
 40
1.0
 40
1.0
 40
1.0
 40
2.0
 40
2.0
 40
2.0
 40
3.0
 40
3.0
 40
3.0
 40
4.0
 40
4.0
 40
4.0
 40
5.0
 40
5.0
 40
5.0
 40
6.0
 40
6.0
 40
6.0
 40
7.0
 40
7.0
 40
7.0
 40
8.0
 40
8.0
 40
8.0
 40
9.0
 40
9.0
 40
9.0
 40
10.0
 40
10.0
 40
10.0
 40
11.0
 40
11.0
 40
11.0
 40
12.0
 40
12.0
 40
12.0
 40
13.0
 40
13.0
 40
13.0
 40
14.0
 40
14.0
 40
14.0
 40
15.0
 40
15.0
 40
15.0
 40
16.0
 40
16.0
 40
16.0
 40
16.0
 10
118.8812879477102
 20
251.9994329882154
 10
118.8206542671698
 20
252.2056219530076
 10
118.778107337927
 20
252.4462618726523
 10
118.778107337927
 20
252.789910147306
 10
118.778107337927
 20
253.1406208677044
 10
118.8144530952964
 20
253.3810885325749
 10
118.875259030611
 20
253.5872774973671
 10
119.0452744928081
 20
254.1853460736064
 10
119.5127739501565
 20
254.5291666030344
 10
120.1382310355036
 20
254.5291666030344
 10
120.7878037892475
 20
254.5291666030344
 10
121.2372164952983
 20
254.178455882636
 10
121.4072319574954
 20
253.5941676883376
 10
121.4678656380358
 20
253.3741983416044
 10
121.5043836501794
 20
253.1337306767339
 10
121.5043836501794
 20
252.5699408005728
 10
121.5043836501794
 20
252.5287719095241
 10
121.4800957270084
 20
252.5012111456421
 10
121.4375487977656
 20
252.5012111456421
 10
121.4375487977656
 20
252.5012111456421
 10
119.6585014891826
 20
252.5012111456421
 10
119.6585014891826
 20
252.5012111456421
 10
119.6342135660116
 20
252.5012111456421
 10
119.6219834770389
 20
252.4874307637011
 10
119.6219834770389
 20
252.4600422545933
 10
119.6281846489124
 20
252.3913125996626
 10
119.6402424831108
 20
252.3294731357024
 10
119.6585014891826
 20
252.2743516079384
 10
119.7373941757948
 20
251.9856526062744
 10
119.9620144014331
 20
251.834412914472
 10
120.2656995684579
 20
251.834412914472
 10
120.55715464651
 20
251.834412914472
 10
120.7697170379499
 20
251.9513739061962
 10
120.939732500147
 20
252.1300021071064
 10
120.9700493404172
 20
252.1575628709884
 10
121.0003661806874
 20
252.1644530619589
 10
121.0246541038584
 20
252.1300021071064
 10
121.0246541038584
 20
252.1300021071064
 10
121.4254909635672
 20
251.703843795581
 10
121.4254909635672
 20
251.703843795581
 10
121.4558078038374
 20
251.676283031699
 10
121.4558078038374
 20
251.6352863954245
 10
121.4315198806664
 20
251.6077256315425
 10
121.1522948915869
 20
251.2707952930851
 10
120.7211411916079
 20
251.0509982011261
 10
120.1807779647465
 20
251.0509982011261
 10
119.5127739501565
 20
251.0509982011261
 10
119.0513034099073
 20
251.401364411976
 10
118.8812879477102
 20
251.9994329882154
 97
        0
 97
        1
330
89
 75
     2
 76
     1
 98
        1
 10
0.0
 20
0.0
450
        0
451
        0
460
0.0
461
0.0
452
        0
462
0.0
453
        0
470

  0
SPLINE
  5
8B
330
81
100
AcDbEntity
  8
Ebene 1
100
AcDbSpline
210
0.0
220
0.0
230
1.0
 70
     9
 71
     3
 72
    62
 73
    58
 74
     0
 42
0.0000000001
 43
0.0000000001
 40
0.0
 40
0.0
 40
0.0
 40
0.0
 40
1.0
 40
1.0
 40
1.0
 40
2.0
 40
2.0
 40
2.0
 40
3.0
 40
3.0
 40
3.0
 40
4.0
 40
4.0
 40
4.0
 40
5.0
 40
5.0
 40
5.0
 40
6.0
 40
6.0
 40
6.0
 40
7.0
 40
7.0
 40
7.0
 40
8.0
 40
8.0
 40
8.0
 40
9.0
 40
9.0
 40
9.0
 40
10.0
 40
10.0
 40
10.0
 40
11.0
 40
11.0
 40
11.0
 40
12.0
 40
12.0
 40
12.0
 40
13.0
 40
13.0
 40
13.0
 40
14.0
 40
14.0
 40
14.0
 40
15.0
 40
15.0
 40
15.0
 40
16.0
 40
16.0
 40
16.0
 40
17.0
 40
17.0
 40
17.0
 40
18.0
 40
18.0
 40
18.0
 40
19.0
 40
19.0
 40
19.0
 40
19.0
 10
123.9510904638039
 20
251.1264457922531
 30
0.0
 10
123.9145724516602
 20
251.1264457922531
 30
0.0
 10
123.8904567832635
 20
251.1540065561352
 30
0.0
 10
123.8904567832635
 20
251.1953477019581
 30
0.0
 10
123.8904567832635
 20
251.1953477019581
 30
0.0
 10
123.8904567832635
 20
253.106169912852
 30
0.0
 10
123.8904567832635
 20
253.106169912852
 30
0.0
 10
123.8904567832635
 20
253.4704887604171
 30
0.0
 10
123.738528072364
 20
253.7111286800618
 30
0.0
 10
123.4350151601135
 20
253.7111286800618
 30
0.0
 10
123.1435600820613
 20
253.7111286800618
 30
0.0
 10
122.9735446198642
 20
253.4704887604171
 30
0.0
 10
122.9735446198642
 20
253.106169912852
 30
0.0
 10
122.9735446198642
 20
253.106169912852
 30
0.0
 10
122.9735446198642
 20
251.1953477019581
 30
0.0
 10
122.9735446198642
 20
251.1953477019581
 30
0.0
 10
122.9735446198642
 20
251.1540065561352
 30
0.0
 10
122.9492566966932
 20
251.1264457922531
 30
0.0
 10
122.9127386845496
 20
251.1264457922531
 30
0.0
 10
122.9127386845496
 20
251.1264457922531
 30
0.0
 10
122.1841009894192
 20
251.1264457922531
 30
0.0
 10
122.1841009894192
 20
251.1264457922531
 30
0.0
 10
122.1477552320499
 20
251.1264457922531
 30
0.0
 10
122.1234673088788
 20
251.1540065561352
 30
0.0
 10
122.1234673088788
 20
251.1953477019581
 30
0.0
 10
122.1234673088788
 20
251.1953477019581
 30
0.0
 10
122.1234673088788
 20
254.3848171022024
 30
0.0
 10
122.1234673088788
 20
254.3848171022024
 30
0.0
 10
122.1234673088788
 20
254.4259859932512
 30
0.0
 10
122.1477552320499
 20
254.4535467571332
 30
0.0
 10
122.1841009894192
 20
254.4535467571332
 30
0.0
 10
122.1841009894192
 20
254.4535467571332
 30
0.0
 10
122.9127386845496
 20
254.4535467571332
 30
0.0
 10
122.9127386845496
 20
254.4535467571332
 30
0.0
 10
122.9492566966932
 20
254.4535467571332
 30
0.0
 10
122.9735446198642
 20
254.4259859932512
 30
0.0
 10
122.9735446198642
 20
254.3848171022024
 30
0.0
 10
122.9735446198642
 20
254.3848171022024
 30
0.0
 10
122.9735446198642
 20
254.1510673735282
 30
0.0
 10
122.9735446198642
 20
254.1510673735282
 30
0.0
 10
122.9735446198642
 20
254.1510673735282
 30
0.0
 10
122.9795735369634
 20
254.1510673735282
 30
0.0
 10
122.9795735369634
 20
254.1510673735282
 30
0.0
 10
123.1132432417911
 20
254.3572563383204
 30
0.0
 10
123.3621513906004
 20
254.5291666030344
 30
0.0
 10
123.738528072364
 20
254.5291666030344
 30
0.0
 10
124.3882730808821
 20
254.5291666030344
 30
0.0
 10
124.7403618394746
 20
254.0204982546373
 30
0.0
 10
124.7403618394746
 20
253.2916883047326
 30
0.0
 10
124.7403618394746
 20
253.2916883047326
 30
0.0
 10
124.7403618394746
 20
251.1953477019581
 30
0.0
 10
124.7403618394746
 20
251.1953477019581
 30
0.0
 10
124.7403618394746
 20
251.1540065561352
 30
0.0
 10
124.7162461710779
 20
251.1264457922531
 30
0.0
 10
124.6797281589342
 20
251.1264457922531
 30
0.0
 10
124.6797281589342
 20
251.1264457922531
 30
0.0
 10
123.9510904638039
 20
251.1264457922531
 30
0.0
 10
123.9510904638039
 20
251.1264457922531
 30
0.0
  0
HATCH
  5
8C
330
81
100
AcDbEntity
  8
Ebene 1
 62
   250
420
  1907995
440
 33554687
100
AcDbHatch
 10
0.0
 20
0.0
 30
0.0
210
0.0
220
0.0
230
1.0
  2
SOLID
 70
     1
 71
     1
 91
        1
 92
        1
 93
        1
 72
     4
 94
        3
 73
     0
 74
     0
 95
       62
 96
       58
 40
0.0
 40
0.0
 40
0.0
 40
0.0
 40
1.0
 40
1.0
 40
1.0
 40
2.0
 40
2.0
 40
2.0
 40
3.0
 40
3.0
 40
3.0
 40
4.0
 40
4.0
 40
4.0
 40
5.0
 40
5.0
 40
5.0
 40
6.0
 40
6.0
 40
6.0
 40
7.0
 40
7.0
 40
7.0
 40
8.0
 40
8.0
 40
8.0
 40
9.0
 40
9.0
 40
9.0
 40
10.0
 40
10.0
 40
10.0
 40
11.0
 40
11.0
 40
11.0
 40
12.0
 40
12.0
 40
12.0
 40
13.0
 40
13.0
 40
13.0
 40
14.0
 40
14.0
 40
14.0
 40
15.0
 40
15.0
 40
15.0
 40
16.0
 40
16.0
 40
16.0
 40
17.0
 40
17.0
 40
17.0
 40
18.0
 40
18.0
 40
18.0
 40
19.0
 40
19.0
 40
19.0
 40
19.0
 10
123.9510904638039
 20
251.1264457922531
 10
123.9145724516602
 20
251.1264457922531
 10
123.8904567832635
 20
251.1540065561352
 10
123.8904567832635
 20
251.1953477019581
 10
123.8904567832635
 20
251.1953477019581
 10
123.8904567832635
 20
253.106169912852
 10
123.8904567832635
 20
253.106169912852
 10
123.8904567832635
 20
253.4704887604171
 10
123.738528072364
 20
253.7111286800618
 10
123.4350151601135
 20
253.7111286800618
 10
123.1435600820613
 20
253.7111286800618
 10
122.9735446198642
 20
253.4704887604171
 10
122.9735446198642
 20
253.106169912852
 10
122.9735446198642
 20
253.106169912852
 10
122.9735446198642
 20
251.1953477019581
 10
122.9735446198642
 20
251.1953477019581
 10
122.9735446198642
 20
251.1540065561352
 10
122.9492566966932
 20
251.1264457922531
 10
122.9127386845496
 20
251.1264457922531
 10
122.9127386845496
 20
251.1264457922531
 10
122.1841009894192
 20
251.1264457922531
 10
122.1841009894192
 20
251.1264457922531
 10
122.1477552320499
 20
251.1264457922531
 10
122.1234673088788
 20
251.1540065561352
 10
122.1234673088788
 20
251.1953477019581
 10
122.1234673088788
 20
251.1953477019581
 10
122.1234673088788
 20
254.3848171022024
 10
122.1234673088788
 20
254.3848171022024
 10
122.1234673088788
 20
254.4259859932512
 10
122.1477552320499
 20
254.4535467571332
 10
122.1841009894192
 20
254.4535467571332
 10
122.1841009894192
 20
254.4535467571332
 10
122.9127386845496
 20
254.4535467571332
 10
122.9127386845496
 20
254.4535467571332
 10
122.9492566966932
 20
254.4535467571332
 10
122.9735446198642
 20
254.4259859932512
 10
122.9735446198642
 20
254.3848171022024
 10
122.9735446198642
 20
254.3848171022024
 10
122.9735446198642
 20
254.1510673735282
 10
122.9735446198642
 20
254.1510673735282
 10
122.9735446198642
 20
254.1510673735282
 10
122.9795735369634
 20
254.1510673735282
 10
122.9795735369634
 20
254.1510673735282
 10
123.1132432417911
 20
254.3572563383204
 10
123.3621513906004
 20
254.5291666030344
 10
123.738528072364
 20
254.5291666030344
 10
124.3882730808821
 20
254.5291666030344
 10
124.7403618394746
 20
254.0204982546373
 10
124.7403618394746
 20
253.2916883047326
 10
124.7403618394746
 20
253.2916883047326
 10
124.7403618394746
 20
251.1953477019581
 10
124.7403618394746
 20
251.1953477019581
 10
124.7403618394746
 20
251.1540065561352
 10
124.7162461710779
 20
251.1264457922531
 10
124.6797281589342
 20
251.1264457922531
 10
124.6797281589342
 20
251.1264457922531
 10
123.9510904638039
 20
251.1264457922531
 10
123.9510904638039
 20
251.1264457922531
 97
        0
 97
        1
330
8B
 75
     2
 76
     1
 98
        1
 10
0.0
 20
0.0
450
        0
451
        0
460
0.0
461
0.0
452
        0
462
0.0
453
        0
470

  0
SPLINE
  5
8D
330
81
100
AcDbEntity
  8
Ebene 1
100
AcDbSpline
210
0.0
220
0.0
230
1.0
 70
     9
 71
     3
 72
    62
 73
    58
 74
     0
 42
0.0000000001
 43
0.0000000001
 40
0.0
 40
0.0
 40
0.0
 40
0.0
 40
1.0
 40
1.0
 40
1.0
 40
2.0
 40
2.0
 40
2.0
 40
3.0
 40
3.0
 40
3.0
 40
4.0
 40
4.0
 40
4.0
 40
5.0
 40
5.0
 40
5.0
 40
6.0
 40
6.0
 40
6.0
 40
7.0
 40
7.0
 40
7.0
 40
8.0
 40
8.0
 40
8.0
 40
9.0
 40
9.0
 40
9.0
 40
10.0
 40
10.0
 40
10.0
 40
11.0
 40
11.0
 40
11.0
 40
12.0
 40
12.0
 40
12.0
 40
13.0
 40
13.0
 40
13.0
 40
14.0
 40
14.0
 40
14.0
 40
15.0
 40
15.0
 40
15.0
 40
16.0
 40
16.0
 40
16.0
 40
17.0
 40
17.0
 40
17.0
 40
18.0
 40
18.0
 40
18.0
 40
19.0
 40
19.0
 40
19.0
 40
19.0
 10
127.3085082689541
 20
251.1264457922531
 30
0.0
 10
127.2721625115847
 20
251.1264457922531
 30
0.0
 10
127.2477023336394
 20
251.1540065561352
 30
0.0
 10
127.2477023336394
 20
251.1953477019581
 30
0.0
 10
127.2477023336394
 20
251.1953477019581
 30
0.0
 10
127.2477023336394
 20
253.106169912852
 30
0.0
 10
127.2477023336394
 20
253.106169912852
 30
0.0
 10
127.2477023336394
 20
253.4704887604171
 30
0.0
 10
127.0959458775142
 20
253.7111286800618
 30
0.0
 10
126.7924329652637
 20
253.7111286800618
 30
0.0
 10
126.5009778872115
 20
253.7111286800618
 30
0.0
 10
126.3309624250145
 20
253.4704887604171
 30
0.0
 10
126.3309624250145
 20
253.106169912852
 30
0.0
 10
126.3309624250145
 20
253.106169912852
 30
0.0
 10
126.3309624250145
 20
251.1953477019581
 30
0.0
 10
126.3309624250145
 20
251.1953477019581
 30
0.0
 10
126.3309624250145
 20
251.1540065561352
 30
0.0
 10
126.3066745018434
 20
251.1264457922531
 30
0.0
 10
126.2701564896998
 20
251.1264457922531
 30
0.0
 10
126.2701564896998
 20
251.1264457922531
 30
0.0
 10
125.5415187945695
 20
251.1264457922531
 30
0.0
 10
125.5415187945695
 20
251.1264457922531
 30
0.0
 10
125.5051730372001
 20
251.1264457922531
 30
0.0
 10
125.4808851140291
 20
251.1540065561352
 30
0.0
 10
125.4808851140291
 20
251.1953477019581
 30
0.0
 10
125.4808851140291
 20
251.1953477019581
 30
0.0
 10
125.4808851140291
 20
254.3848171022024
 30
0.0
 10
125.4808851140291
 20
254.3848171022024
 30
0.0
 10
125.4808851140291
 20
254.4259859932512
 30
0.0
 10
125.5051730372001
 20
254.4535467571332
 30
0.0
 10
125.5415187945695
 20
254.4535467571332
 30
0.0
 10
125.5415187945695
 20
254.4535467571332
 30
0.0
 10
126.2701564896998
 20
254.4535467571332
 30
0.0
 10
126.2701564896998
 20
254.4535467571332
 30
0.0
 10
126.3066745018434
 20
254.4535467571332
 30
0.0
 10
126.3309624250145
 20
254.4259859932512
 30
0.0
 10
126.3309624250145
 20
254.3848171022024
 30
0.0
 10
126.3309624250145
 20
254.3848171022024
 30
0.0
 10
126.3309624250145
 20
254.1510673735282
 30
0.0
 10
126.3309624250145
 20
254.1510673735282
 30
0.0
 10
126.3309624250145
 20
254.1510673735282
 30
0.0
 10
126.3369913421136
 20
254.1510673735282
 30
0.0
 10
126.3369913421136
 20
254.1510673735282
 30
0.0
 10
126.4704887921671
 20
254.3572563383204
 30
0.0
 10
126.7195691957506
 20
254.5291666030344
 30
0.0
 10
127.0959458775142
 20
254.5291666030344
 30
0.0
 10
127.7456908860323
 20
254.5291666030344
 30
0.0
 10
128.0979518993991
 20
254.0204982546373
 30
0.0
 10
128.0979518993991
 20
253.2916883047326
 30
0.0
 10
128.0979518993991
 20
253.2916883047326
 30
0.0
 10
128.0979518993991
 20
251.1953477019581
 30
0.0
 10
128.0979518993991
 20
251.1953477019581
 30
0.0
 10
128.0979518993991
 20
251.1540065561352
 30
0.0
 10
128.0734917214538
 20
251.1264457922531
 30
0.0
 10
128.0371459640844
 20
251.1264457922531
 30
0.0
 10
128.0371459640844
 20
251.1264457922531
 30
0.0
 10
127.3085082689541
 20
251.1264457922531
 30
0.0
 10
127.3085082689541
 20
251.1264457922531
 30
0.0
  0
HATCH
  5
8E
330
81
100
AcDbEntity
  8
Ebene 1
 62
   250
420
  1907995
440
 33554687
100
AcDbHatch
 10
0.0
 20
0.0
 30
0.0
210
0.0
220
0.0
230
1.0
  2
SOLID
 70
     1
 71
     1
 91
        1
 92
        1
 93
        1
 72
     4
 94
        3
 73
     0
 74
     0
 95
       62
 96
       58
 40
0.0
 40
0.0
 40
0.0
 40
0.0
 40
1.0
 40
1.0
 40
1.0
 40
2.0
 40
2.0
 40
2.0
 40
3.0
 40
3.0
 40
3.0
 40
4.0
 40
4.0
 40
4.0
 40
5.0
 40
5.0
 40
5.0
 40
6.0
 40
6.0
 40
6.0
 40
7.0
 40
7.0
 40
7.0
 40
8.0
 40
8.0
 40
8.0
 40
9.0
 40
9.0
 40
9.0
 40
10.0
 40
10.0
 40
10.0
 40
11.0
 40
11.0
 40
11.0
 40
12.0
 40
12.0
 40
12.0
 40
13.0
 40
13.0
 40
13.0
 40
14.0
 40
14.0
 40
14.0
 40
15.0
 40
15.0
 40
15.0
 40
16.0
 40
16.0
 40
16.0
 40
17.0
 40
17.0
 40
17.0
 40
18.0
 40
18.0
 40
18.0
 40
19.0
 40
19.0
 40
19.0
 40
19.0
 10
127.3085082689541
 20
251.1264457922531
 10
127.2721625115847
 20
251.1264457922531
 10
127.2477023336394
 20
251.1540065561352
 10
127.2477023336394
 20
251.1953477019581
 10
127.2477023336394
 20
251.1953477019581
 10
127.2477023336394
 20
253.106169912852
 10
127.2477023336394
 20
253.106169912852
 10
127.2477023336394
 20
253.4704887604171
 10
127.0959458775142
 20
253.7111286800618
 10
126.7924329652637
 20
253.7111286800618
 10
126.5009778872115
 20
253.7111286800618
 10
126.3309624250145
 20
253.4704887604171
 10
126.3309624250145
 20
253.106169912852
 10
126.3309624250145
 20
253.106169912852
 10
126.3309624250145
 20
251.1953477019581
 10
126.3309624250145
 20
251.1953477019581
 10
126.3309624250145
 20
251.1540065561352
 10
126.3066745018434
 20
251.1264457922531
 10
126.2701564896998
 20
251.1264457922531
 10
126.2701564896998
 20
251.1264457922531
 10
125.5415187945695
 20
251.1264457922531
 10
125.5415187945695
 20
251.1264457922531
 10
125.5051730372001
 20
251.1264457922531
 10
125.4808851140291
 20
251.1540065561352
 10
125.4808851140291
 20
251.1953477019581
 10
125.4808851140291
 20
251.1953477019581
 10
125.4808851140291
 20
254.3848171022024
 10
125.4808851140291
 20
254.3848171022024
 10
125.4808851140291
 20
254.4259859932512
 10
125.5051730372001
 20
254.4535467571332
 10
125.5415187945695
 20
254.4535467571332
 10
125.5415187945695
 20
254.4535467571332
 10
126.2701564896998
 20
254.4535467571332
 10
126.2701564896998
 20
254.4535467571332
 10
126.3066745018434
 20
254.4535467571332
 10
126.3309624250145
 20
254.4259859932512
 10
126.3309624250145
 20
254.3848171022024
 10
126.3309624250145
 20
254.3848171022024
 10
126.3309624250145
 20
254.1510673735282
 10
126.3309624250145
 20
254.1510673735282
 10
126.3309624250145
 20
254.1510673735282
 10
126.3369913421136
 20
254.1510673735282
 10
126.3369913421136
 20
254.1510673735282
 10
126.4704887921671
 20
254.3572563383204
 10
126.7195691957506
 20
254.5291666030344
 10
127.0959458775142
 20
254.5291666030344
 10
127.7456908860323
 20
254.5291666030344
 10
128.0979518993991
 20
254.0204982546373
 10
128.0979518993991
 20
253.2916883047326
 10
128.0979518993991
 20
253.2916883047326
 10
128.0979518993991
 20
251.1953477019581
 10
128.0979518993991
 20
251.1953477019581
 10
128.0979518993991
 20
251.1540065561352
 10
128.0734917214538
 20
251.1264457922531
 10
128.0371459640844
 20
251.1264457922531
 10
128.0371459640844
 20
251.1264457922531
 10
127.3085082689541
 20
251.1264457922531
 10
127.3085082689541
 20
251.1264457922531
 97
        0
 97
        1
330
8D
 75
     2
 76
     1
 98
        1
 10
0.0
 20
0.0
450
        0
451
        0
460
0.0
461
0.0
452
        0
462
0.0
453
        0
470

  0
SPLINE
  5
8F
330
81
100
AcDbEntity
  8
Ebene 1
100
AcDbSpline
210
0.0
220
0.0
230
1.0
 70
     9
 71
     3
 72
    29
 73
    25
 74
     0
 42
0.0000000001
 43
0.0000000001
 40
0.0
 40
0.0
 40
0.0
 40
0.0
 40
1.0
 40
1.0
 40
1.0
 40
2.0
 40
2.0
 40
2.0
 40
3.0
 40
3.0
 40
3.0
 40
4.0
 40
4.0
 40
4.0
 40
5.0
 40
5.0
 40
5.0
 40
6.0
 40
6.0
 40
6.0
 40
7.0
 40
7.0
 40
7.0
 40
8.0
 40
8.0
 40
8.0
 40
8.0
 10
128.8989365997197
 20
251.1264457922531
 30
0.0
 10
128.8625908423503
 20
251.1264457922531
 30
0.0
 10
128.8383029191793
 20
251.1540065561352
 30
0.0
 10
128.8383029191793
 20
251.1953477019581
 30
0.0
 10
128.8383029191793
 20
251.1953477019581
 30
0.0
 10
128.8383029191793
 20
254.3848171022024
 30
0.0
 10
128.8383029191793
 20
254.3848171022024
 30
0.0
 10
128.8383029191793
 20
254.4259859932512
 30
0.0
 10
128.8625908423503
 20
254.4535467571332
 30
0.0
 10
128.8989365997197
 20
254.4535467571332
 30
0.0
 10
128.8989365997197
 20
254.4535467571332
 30
0.0
 10
129.62757429485
 20
254.4535467571332
 30
0.0
 10
129.62757429485
 20
254.4535467571332
 30
0.0
 10
129.6640923069937
 20
254.4535467571332
 30
0.0
 10
129.6883802301647
 20
254.4259859932512
 30
0.0
 10
129.6883802301647
 20
254.3848171022024
 30
0.0
 10
129.6883802301647
 20
254.3848171022024
 30
0.0
 10
129.6883802301647
 20
251.1953477019581
 30
0.0
 10
129.6883802301647
 20
251.1953477019581
 30
0.0
 10
129.6883802301647
 20
251.1540065561352
 30
0.0
 10
129.6640923069937
 20
251.1264457922531
 30
0.0
 10
129.62757429485
 20
251.1264457922531
 30
0.0
 10
129.62757429485
 20
251.1264457922531
 30
0.0
 10
128.8989365997197
 20
251.1264457922531
 30
0.0
 10
128.8989365997197
 20
251.1264457922531
 30
0.0
  0
SPLINE
  5
90
330
81
100
AcDbEntity
  8
Ebene 1
100
AcDbSpline
210
0.0
220
0.0
230
1.0
 70
     9
 71
     3
 72
    29
 73
    25
 74
     0
 42
0.0000000001
 43
0.0000000001
 40
0.0
 40
0.0
 40
0.0
 40
0.0
 40
1.0
 40
1.0
 40
1.0
 40
2.0
 40
2.0
 40
2.0
 40
3.0
 40
3.0
 40
3.0
 40
4.0
 40
4.0
 40
4.0
 40
5.0
 40
5.0
 40
5.0
 40
6.0
 40
6.0
 40
6.0
 40
7.0
 40
7.0
 40
7.0
 40
8.0
 40
8.0
 40
8.0
 40
8.0
 10
128.8989365997197
 20
254.9827134236675
 30
0.0
 10
128.8625908423503
 20
254.9827134236675
 30
0.0
 10
128.8383029191793
 20
255.0102741875495
 30
0.0
 10
128.8383029191793
 20
255.0514430785983
 30
0.0
 10
128.8383029191793
 20
255.0514430785983
 30
0.0
 10
128.8383029191793
 20
255.7320216917094
 30
0.0
 10
128.8383029191793
 20
255.7320216917094
 30
0.0
 10
128.8383029191793
 20
255.7733628375324
 30
0.0
 10
128.8625908423503
 20
255.8007513466401
 30
0.0
 10
128.8989365997197
 20
255.8007513466401
 30
0.0
 10
128.8989365997197
 20
255.8007513466401
 30
0.0
 10
129.62757429485
 20
255.8007513466401
 30
0.0
 10
129.62757429485
 20
255.8007513466401
 30
0.0
 10
129.6640923069937
 20
255.8007513466401
 30
0.0
 10
129.6883802301647
 20
255.7733628375324
 30
0.0
 10
129.6883802301647
 20
255.7320216917094
 30
0.0
 10
129.6883802301647
 20
255.7320216917094
 30
0.0
 10
129.6883802301647
 20
255.0514430785983
 30
0.0
 10
129.6883802301647
 20
255.0514430785983
 30
0.0
 10
129.6883802301647
 20
255.0102741875495
 30
0.0
 10
129.6640923069937
 20
254.9827134236675
 30
0.0
 10
129.62757429485
 20
254.9827134236675
 30
0.0
 10
129.62757429485
 20
254.9827134236675
 30
0.0
 10
128.8989365997197
 20
254.9827134236675
 30
0.0
 10
128.8989365997197
 20
254.9827134236675
 30
0.0
  0
HATCH
  5
91
330
81
100
AcDbEntity
  8
Ebene 1
 62
   250
420
  1907995
440
 33554687
100
AcDbHatch
 10
0.0
 20
0.0
 30
0.0
210
0.0
220
0.0
230
1.0
  2
SOLID
 70
     1
 71
     1
 91
        2
 92
        1
 93
        1
 72
     4
 94
        3
 73
     0
 74
     0
 95
       29
 96
       25
 40
0.0
 40
0.0
 40
0.0
 40
0.0
 40
1.0
 40
1.0
 40
1.0
 40
2.0
 40
2.0
 40
2.0
 40
3.0
 40
3.0
 40
3.0
 40
4.0
 40
4.0
 40
4.0
 40
5.0
 40
5.0
 40
5.0
 40
6.0
 40
6.0
 40
6.0
 40
7.0
 40
7.0
 40
7.0
 40
8.0
 40
8.0
 40
8.0
 40
8.0
 10
128.8989365997197
 20
251.1264457922531
 10
128.8625908423503
 20
251.1264457922531
 10
128.8383029191793
 20
251.1540065561352
 10
128.8383029191793
 20
251.1953477019581
 10
128.8383029191793
 20
251.1953477019581
 10
128.8383029191793
 20
254.3848171022024
 10
128.8383029191793
 20
254.3848171022024
 10
128.8383029191793
 20
254.4259859932512
 10
128.8625908423503
 20
254.4535467571332
 10
128.8989365997197
 20
254.4535467571332
 10
128.8989365997197
 20
254.4535467571332
 10
129.62757429485
 20
254.4535467571332
 10
129.62757429485
 20
254.4535467571332
 10
129.6640923069937
 20
254.4535467571332
 10
129.6883802301647
 20
254.4259859932512
 10
129.6883802301647
 20
254.3848171022024
 10
129.6883802301647
 20
254.3848171022024
 10
129.6883802301647
 20
251.1953477019581
 10
129.6883802301647
 20
251.1953477019581
 10
129.6883802301647
 20
251.1540065561352
 10
129.6640923069937
 20
251.1264457922531
 10
129.62757429485
 20
251.1264457922531
 10
129.62757429485
 20
251.1264457922531
 10
128.8989365997197
 20
251.1264457922531
 10
128.8989365997197
 20
251.1264457922531
 97
        0
 97
        1
330
8F
 92
        1
 93
        1
 72
     4
 94
        3
 73
     0
 74
     0
 95
       29
 96
       25
 40
0.0
 40
0.0
 40
0.0
 40
0.0
 40
1.0
 40
1.0
 40
1.0
 40
2.0
 40
2.0
 40
2.0
 40
3.0
 40
3.0
 40
3.0
 40
4.0
 40
4.0
 40
4.0
 40
5.0
 40
5.0
 40
5.0
 40
6.0
 40
6.0
 40
6.0
 40
7.0
 40
7.0
 40
7.0
 40
8.0
 40
8.0
 40
8.0
 40
8.0
 10
128.8989365997197
 20
254.9827134236675
 10
128.8625908423503
 20
254.9827134236675
 10
128.8383029191793
 20
255.0102741875495
 10
128.8383029191793
 20
255.0514430785983
 10
128.8383029191793
 20
255.0514430785983
 10
128.8383029191793
 20
255.7320216917094
 10
128.8383029191793
 20
255.7320216917094
 10
128.8383029191793
 20
255.7733628375324
 10
128.8625908423503
 20
255.8007513466401
 10
128.8989365997197
 20
255.8007513466401
 10
128.8989365997197
 20
255.8007513466401
 10
129.62757429485
 20
255.8007513466401
 10
129.62757429485
 20
255.8007513466401
 10
129.6640923069937
 20
255.8007513466401
 10
129.6883802301647
 20
255.7733628375324
 10
129.6883802301647
 20
255.7320216917094
 10
129.6883802301647
 20
255.7320216917094
 10
129.6883802301647
 20
255.0514430785983
 10
129.6883802301647
 20
255.0514430785983
 10
129.6883802301647
 20
255.0102741875495
 10
129.6640923069937
 20
254.9827134236675
 10
129.62757429485
 20
254.9827134236675
 10
129.62757429485
 20
254.9827134236675
 10
128.8989365997197
 20
254.9827134236675
 10
128.8989365997197
 20
254.9827134236675
 97
        0
 97
        1
330
90
 75
     2
 76
     1
 98
        1
 10
0.0
 20
0.0
450
        0
451
        0
460
0.0
461
0.0
452
        0
462
0.0
453
        0
470

  0
SPLINE
  5
92
330
81
100
AcDbEntity
  8
Ebene 1
100
AcDbSpline
210
0.0
220
0.0
230
1.0
 70
     9
 71
     3
 72
    65
 73
    61
 74
     0
 42
0.0000000001
 43
0.0000000001
 40
0.0
 40
0.0
 40
0.0
 40
0.0
 40
1.0
 40
1.0
 40
1.0
 40
2.0
 40
2.0
 40
2.0
 40
3.0
 40
3.0
 40
3.0
 40
4.0
 40
4.0
 40
4.0
 40
5.0
 40
5.0
 40
5.0
 40
6.0
 40
6.0
 40
6.0
 40
7.0
 40
7.0
 40
7.0
 40
8.0
 40
8.0
 40
8.0
 40
9.0
 40
9.0
 40
9.0
 40
10.0
 40
10.0
 40
10.0
 40
11.0
 40
11.0
 40
11.0
 40
12.0
 40
12.0
 40
12.0
 40
13.0
 40
13.0
 40
13.0
 40
14.0
 40
14.0
 40
14.0
 40
15.0
 40
15.0
 40
15.0
 40
16.0
 40
16.0
 40
16.0
 40
17.0
 40
17.0
 40
17.0
 40
18.0
 40
18.0
 40
18.0
 40
19.0
 40
19.0
 40
19.0
 40
20.0
 40
20.0
 40
20.0
 40
20.0
 10
130.2711181314947
 20
251.5663844857195
 30
0.0
 10
130.2468302083237
 20
251.5939452496015
 30
0.0
 10
130.2468302083237
 20
251.6352863954245
 30
0.0
 10
130.2711181314947
 20
251.662502649758
 30
0.0
 10
130.2711181314947
 20
251.662502649758
 30
0.0
 10
130.6659260741043
 20
252.1644530619589
 30
0.0
 10
130.6659260741043
 20
252.1644530619589
 30
0.0
 10
130.6900417425011
 20
252.1918415710667
 30
0.0
 10
130.7205308375456
 20
252.1918415710667
 30
0.0
 10
130.7508476778157
 20
252.1644530619589
 30
0.0
 10
131.0119859155977
 20
251.9375935242552
 30
0.0
 10
131.3459879228926
 20
251.7999619596194
 30
0.0
 10
131.6495008351432
 20
251.7999619596194
 30
0.0
 10
131.9592149192671
 20
251.7999619596194
 30
0.0
 10
132.1049424582932
 20
251.9307033332847
 30
0.0
 10
132.1049424582932
 20
252.1162217251654
 30
0.0
 10
132.1049424582932
 20
252.2743516079384
 30
0.0
 10
132.026049771681
 20
252.3706420267511
 30
0.0
 10
131.6860188472868
 20
252.4050929816036
 30
0.0
 10
131.6860188472868
 20
252.4050929816036
 30
0.0
 10
131.358045757091
 20
252.4462618726523
 30
0.0
 10
131.358045757091
 20
252.4462618726523
 30
0.0
 10
130.7386175888431
 20
252.5149915275831
 30
0.0
 10
130.3985866644489
 20
252.8655299932073
 30
0.0
 10
130.3985866644489
 20
253.4635985694466
 30
0.0
 10
130.3985866644489
 20
254.1166164186758
 30
0.0
 10
130.8419704534006
 20
254.5291666030344
 30
0.0
 10
131.6069539059003
 20
254.5291666030344
 30
0.0
 10
132.1049424582932
 20
254.5291666030344
 30
0.0
 10
132.5238660692996
 20
254.3503661473499
 30
0.0
 10
132.7970621412799
 20
254.1166164186758
 30
0.0
 10
132.8213500644509
 20
254.089227909568
 30
0.0
 10
132.8273789815501
 20
254.047886763745
 30
0.0
 10
132.8032633131533
 20
254.0136080636667
 30
0.0
 10
132.8032633131533
 20
254.0136080636667
 30
0.0
 10
132.4632323887592
 20
253.5392184153479
 30
0.0
 10
132.4632323887592
 20
253.5392184153479
 30
0.0
 10
132.4387722108139
 20
253.5049397152696
 30
0.0
 10
132.4084553705437
 20
253.5049397152696
 30
0.0
 10
132.3781385302735
 20
253.5254380334069
 30
0.0
 10
132.1778062278062
 20
253.6697875342388
 30
0.0
 10
131.8863511497541
 20
253.7936387169335
 30
0.0
 10
131.5826659827293
 20
253.7936387169335
 30
0.0
 10
131.33375783392
 20
253.7936387169335
 30
0.0
 10
131.212318218065
 20
253.6835679161798
 30
0.0
 10
131.212318218065
 20
253.5185478424363
 30
0.0
 10
131.212318218065
 20
253.3673081506339
 30
0.0
 10
131.285181987578
 20
253.2780801775659
 30
0.0
 10
131.619183994873
 20
253.2436292227134
 30
0.0
 10
131.619183994873
 20
253.2436292227134
 30
0.0
 10
131.9409559131953
 20
253.2024603316647
 30
0.0
 10
131.9409559131953
 20
253.2024603316647
 30
0.0
 10
132.633075596182
 20
253.1268404857634
 30
0.0
 10
132.9185017571349
 20
252.7487412562573
 30
0.0
 10
132.9185017571349
 20
252.1918415710667
 30
0.0
 10
132.9124728400358
 20
251.5112629579555
 30
0.0
 10
132.4449733826874
 20
251.0509982011261
 30
0.0
 10
131.6069539059003
 20
251.0509982011261
 30
0.0
 10
130.9937269095259
 20
251.0509982011261
 30
0.0
 10
130.5505153753484
 20
251.2914658659966
 30
0.0
 10
130.2711181314947
 20
251.5663844857195
 30
0.0
  0
HATCH
  5
93
330
81
100
AcDbEntity
  8
Ebene 1
 62
   250
420
  1907995
440
 33554687
100
AcDbHatch
 10
0.0
 20
0.0
 30
0.0
210
0.0
220
0.0
230
1.0
  2
SOLID
 70
     1
 71
     1
 91
        1
 92
        1
 93
        1
 72
     4
 94
        3
 73
     0
 74
     0
 95
       65
 96
       61
 40
0.0
 40
0.0
 40
0.0
 40
0.0
 40
1.0
 40
1.0
 40
1.0
 40
2.0
 40
2.0
 40
2.0
 40
3.0
 40
3.0
 40
3.0
 40
4.0
 40
4.0
 40
4.0
 40
5.0
 40
5.0
 40
5.0
 40
6.0
 40
6.0
 40
6.0
 40
7.0
 40
7.0
 40
7.0
 40
8.0
 40
8.0
 40
8.0
 40
9.0
 40
9.0
 40
9.0
 40
10.0
 40
10.0
 40
10.0
 40
11.0
 40
11.0
 40
11.0
 40
12.0
 40
12.0
 40
12.0
 40
13.0
 40
13.0
 40
13.0
 40
14.0
 40
14.0
 40
14.0
 40
15.0
 40
15.0
 40
15.0
 40
16.0
 40
16.0
 40
16.0
 40
17.0
 40
17.0
 40
17.0
 40
18.0
 40
18.0
 40
18.0
 40
19.0
 40
19.0
 40
19.0
 40
20.0
 40
20.0
 40
20.0
 40
20.0
 10
130.2711181314947
 20
251.5663844857195
 10
130.2468302083237
 20
251.5939452496015
 10
130.2468302083237
 20
251.6352863954245
 10
130.2711181314947
 20
251.662502649758
 10
130.2711181314947
 20
251.662502649758
 10
130.6659260741043
 20
252.1644530619589
 10
130.6659260741043
 20
252.1644530619589
 10
130.6900417425011
 20
252.1918415710667
 10
130.7205308375456
 20
252.1918415710667
 10
130.7508476778157
 20
252.1644530619589
 10
131.0119859155977
 20
251.9375935242552
 10
131.3459879228926
 20
251.7999619596194
 10
131.6495008351432
 20
251.7999619596194
 10
131.9592149192671
 20
251.7999619596194
 10
132.1049424582932
 20
251.9307033332847
 10
132.1049424582932
 20
252.1162217251654
 10
132.1049424582932
 20
252.2743516079384
 10
132.026049771681
 20
252.3706420267511
 10
131.6860188472868
 20
252.4050929816036
 10
131.6860188472868
 20
252.4050929816036
 10
131.358045757091
 20
252.4462618726523
 10
131.358045757091
 20
252.4462618726523
 10
130.7386175888431
 20
252.5149915275831
 10
130.3985866644489
 20
252.8655299932073
 10
130.3985866644489
 20
253.4635985694466
 10
130.3985866644489
 20
254.1166164186758
 10
130.8419704534006
 20
254.5291666030344
 10
131.6069539059003
 20
254.5291666030344
 10
132.1049424582932
 20
254.5291666030344
 10
132.5238660692996
 20
254.3503661473499
 10
132.7970621412799
 20
254.1166164186758
 10
132.8213500644509
 20
254.089227909568
 10
132.8273789815501
 20
254.047886763745
 10
132.8032633131533
 20
254.0136080636667
 10
132.8032633131533
 20
254.0136080636667
 10
132.4632323887592
 20
253.5392184153479
 10
132.4632323887592
 20
253.5392184153479
 10
132.4387722108139
 20
253.5049397152696
 10
132.4084553705437
 20
253.5049397152696
 10
132.3781385302735
 20
253.5254380334069
 10
132.1778062278062
 20
253.6697875342388
 10
131.8863511497541
 20
253.7936387169335
 10
131.5826659827293
 20
253.7936387169335
 10
131.33375783392
 20
253.7936387169335
 10
131.212318218065
 20
253.6835679161798
 10
131.212318218065
 20
253.5185478424363
 10
131.212318218065
 20
253.3673081506339
 10
131.285181987578
 20
253.2780801775659
 10
131.619183994873
 20
253.2436292227134
 10
131.619183994873
 20
253.2436292227134
 10
131.9409559131953
 20
253.2024603316647
 10
131.9409559131953
 20
253.2024603316647
 10
132.633075596182
 20
253.1268404857634
 10
132.9185017571349
 20
252.7487412562573
 10
132.9185017571349
 20
252.1918415710667
 10
132.9124728400358
 20
251.5112629579555
 10
132.4449733826874
 20
251.0509982011261
 10
131.6069539059003
 20
251.0509982011261
 10
130.9937269095259
 20
251.0509982011261
 10
130.5505153753484
 20
251.2914658659966
 10
130.2711181314947
 20
251.5663844857195
 97
        0
 97
        1
330
92
 75
     2
 76
     1
 98
        1
 10
0.0
 20
0.0
450
        0
451
        0
460
0.0
461
0.0
452
        0
462
0.0
453
        0
470

  0
SPLINE
  5
94
330
81
100
AcDbEntity
  8
Ebene 1
100
AcDbSpline
210
0.0
220
0.0
230
1.0
 70
     9
 71
     3
 72
    65
 73
    61
 74
     0
 42
0.0000000001
 43
0.0000000001
 40
0.0
 40
0.0
 40
0.0
 40
0.0
 40
1.0
 40
1.0
 40
1.0
 40
2.0
 40
2.0
 40
2.0
 40
3.0
 40
3.0
 40
3.0
 40
4.0
 40
4.0
 40
4.0
 40
5.0
 40
5.0
 40
5.0
 40
6.0
 40
6.0
 40
6.0
 40
7.0
 40
7.0
 40
7.0
 40
8.0
 40
8.0
 40
8.0
 40
9.0
 40
9.0
 40
9.0
 40
10.0
 40
10.0
 40
10.0
 40
11.0
 40
11.0
 40
11.0
 40
12.0
 40
12.0
 40
12.0
 40
13.0
 40
13.0
 40
13.0
 40
14.0
 40
14.0
 40
14.0
 40
15.0
 40
15.0
 40
15.0
 40
16.0
 40
16.0
 40
16.0
 40
17.0
 40
17.0
 40
17.0
 40
18.0
 40
18.0
 40
18.0
 40
19.0
 40
19.0
 40
19.0
 40
20.0
 40
20.0
 40
20.0
 40
20.0
 10
134.9641994562763
 20
255.7320216917094
 30
0.0
 10
134.9641994562763
 20
255.7733628375324
 30
0.0
 10
134.9884873794473
 20
255.8007513466401
 30
0.0
 10
135.025005391591
 20
255.8007513466401
 30
0.0
 10
135.025005391591
 20
255.8007513466401
 30
0.0
 10
135.7960177611899
 20
255.8007513466401
 30
0.0
 10
135.7960177611899
 20
255.8007513466401
 30
0.0
 10
135.8325357733335
 20
255.8007513466401
 30
0.0
 10
135.8568236965045
 20
255.7733628375324
 30
0.0
 10
135.8568236965045
 20
255.7320216917094
 30
0.0
 10
135.8568236965045
 20
255.7320216917094
 30
0.0
 10
135.8568236965045
 20
253.7111286800618
 30
0.0
 10
135.8568236965045
 20
253.7111286800618
 30
0.0
 10
135.8568236965045
 20
253.7111286800618
 30
0.0
 10
137.2291774830538
 20
255.7389118826799
 30
0.0
 10
137.2291774830538
 20
255.7389118826799
 30
0.0
 10
137.259494323324
 20
255.7869709646991
 30
0.0
 10
137.283782246495
 20
255.8007513466401
 30
0.0
 10
137.3323580928371
 20
255.8007513466401
 30
0.0
 10
137.3323580928371
 20
255.8007513466401
 30
0.0
 10
138.2127522440926
 20
255.8007513466401
 30
0.0
 10
138.2127522440926
 20
255.8007513466401
 30
0.0
 10
138.2492702562363
 20
255.8007513466401
 30
0.0
 10
138.2673570075338
 20
255.7526922646208
 30
0.0
 10
138.2370401672637
 20
255.7113511187979
 30
0.0
 10
138.2370401672637
 20
255.7113511187979
 30
0.0
 10
136.9862982513437
 20
253.9379882177655
 30
0.0
 10
136.9862982513437
 20
253.9379882177655
 30
0.0
 10
136.9862982513437
 20
253.9379882177655
 30
0.0
 10
138.3524508660195
 20
251.2087835743506
 30
0.0
 10
138.3524508660195
 20
251.2087835743506
 30
0.0
 10
138.3767387891905
 20
251.1608967471056
 30
0.0
 10
138.3584797831187
 20
251.1264457922531
 30
0.0
 10
138.3159328538759
 20
251.1264457922531
 30
0.0
 10
138.3159328538759
 20
251.1264457922531
 30
0.0
 10
137.4234808684219
 20
251.1264457922531
 30
0.0
 10
137.4234808684219
 20
251.1264457922531
 30
0.0
 10
137.3749050220799
 20
251.1264457922531
 30
0.0
 10
137.356646016008
 20
251.1402261741941
 30
0.0
 10
137.3323580928371
 20
251.1884575109876
 30
0.0
 10
137.3323580928371
 20
251.1884575109876
 30
0.0
 10
136.3971869233659
 20
253.1542289948712
 30
0.0
 10
136.3971869233659
 20
253.1542289948712
 30
0.0
 10
136.3971869233659
 20
253.1542289948712
 30
0.0
 10
135.8568236965045
 20
252.3844224086921
 30
0.0
 10
135.8568236965045
 20
252.3844224086921
 30
0.0
 10
135.8568236965045
 20
252.3844224086921
 30
0.0
 10
135.8568236965045
 20
251.1953477019581
 30
0.0
 10
135.8568236965045
 20
251.1953477019581
 30
0.0
 10
135.8568236965045
 20
251.1540065561352
 30
0.0
 10
135.8325357733335
 20
251.1264457922531
 30
0.0
 10
135.7960177611899
 20
251.1264457922531
 30
0.0
 10
135.7960177611899
 20
251.1264457922531
 30
0.0
 10
135.025005391591
 20
251.1264457922531
 30
0.0
 10
135.025005391591
 20
251.1264457922531
 30
0.0
 10
134.9884873794473
 20
251.1264457922531
 30
0.0
 10
134.9641994562763
 20
251.1540065561352
 30
0.0
 10
134.9641994562763
 20
251.1953477019581
 30
0.0
 10
134.9641994562763
 20
251.1953477019581
 30
0.0
 10
134.9641994562763
 20
255.7320216917094
 30
0.0
 10
134.9641994562763
 20
255.7320216917094
 30
0.0
  0
HATCH
  5
95
330
81
100
AcDbEntity
  8
Ebene 1
 62
   250
420
  1907995
440
 33554687
100
AcDbHatch
 10
0.0
 20
0.0
 30
0.0
210
0.0
220
0.0
230
1.0
  2
SOLID
 70
     1
 71
     1
 91
        1
 92
        1
 93
        1
 72
     4
 94
        3
 73
     0
 74
     0
 95
       65
 96
       61
 40
0.0
 40
0.0
 40
0.0
 40
0.0
 40
1.0
 40
1.0
 40
1.0
 40
2.0
 40
2.0
 40
2.0
 40
3.0
 40
3.0
 40
3.0
 40
4.0
 40
4.0
 40
4.0
 40
5.0
 40
5.0
 40
5.0
 40
6.0
 40
6.0
 40
6.0
 40
7.0
 40
7.0
 40
7.0
 40
8.0
 40
8.0
 40
8.0
 40
9.0
 40
9.0
 40
9.0
 40
10.0
 40
10.0
 40
10.0
 40
11.0
 40
11.0
 40
11.0
 40
12.0
 40
12.0
 40
12.0
 40
13.0
 40
13.0
 40
13.0
 40
14.0
 40
14.0
 40
14.0
 40
15.0
 40
15.0
 40
15.0
 40
16.0
 40
16.0
 40
16.0
 40
17.0
 40
17.0
 40
17.0
 40
18.0
 40
18.0
 40
18.0
 40
19.0
 40
19.0
 40
19.0
 40
20.0
 40
20.0
 40
20.0
 40
20.0
 10
134.9641994562763
 20
255.7320216917094
 10
134.9641994562763
 20
255.7733628375324
 10
134.9884873794473
 20
255.8007513466401
 10
135.025005391591
 20
255.8007513466401
 10
135.025005391591
 20
255.8007513466401
 10
135.7960177611899
 20
255.8007513466401
 10
135.7960177611899
 20
255.8007513466401
 10
135.8325357733335
 20
255.8007513466401
 10
135.8568236965045
 20
255.7733628375324
 10
135.8568236965045
 20
255.7320216917094
 10
135.8568236965045
 20
255.7320216917094
 10
135.8568236965045
 20
253.7111286800618
 10
135.8568236965045
 20
253.7111286800618
 10
135.8568236965045
 20
253.7111286800618
 10
137.2291774830538
 20
255.7389118826799
 10
137.2291774830538
 20
255.7389118826799
 10
137.259494323324
 20
255.7869709646991
 10
137.283782246495
 20
255.8007513466401
 10
137.3323580928371
 20
255.8007513466401
 10
137.3323580928371
 20
255.8007513466401
 10
138.2127522440926
 20
255.8007513466401
 10
138.2127522440926
 20
255.8007513466401
 10
138.2492702562363
 20
255.8007513466401
 10
138.2673570075338
 20
255.7526922646208
 10
138.2370401672637
 20
255.7113511187979
 10
138.2370401672637
 20
255.7113511187979
 10
136.9862982513437
 20
253.9379882177655
 10
136.9862982513437
 20
253.9379882177655
 10
136.9862982513437
 20
253.9379882177655
 10
138.3524508660195
 20
251.2087835743506
 10
138.3524508660195
 20
251.2087835743506
 10
138.3767387891905
 20
251.1608967471056
 10
138.3584797831187
 20
251.1264457922531
 10
138.3159328538759
 20
251.1264457922531
 10
138.3159328538759
 20
251.1264457922531
 10
137.4234808684219
 20
251.1264457922531
 10
137.4234808684219
 20
251.1264457922531
 10
137.3749050220799
 20
251.1264457922531
 10
137.356646016008
 20
251.1402261741941
 10
137.3323580928371
 20
251.1884575109876
 10
137.3323580928371
 20
251.1884575109876
 10
136.3971869233659
 20
253.1542289948712
 10
136.3971869233659
 20
253.1542289948712
 10
136.3971869233659
 20
253.1542289948712
 10
135.8568236965045
 20
252.3844224086921
 10
135.8568236965045
 20
252.3844224086921
 10
135.8568236965045
 20
252.3844224086921
 10
135.8568236965045
 20
251.1953477019581
 10
135.8568236965045
 20
251.1953477019581
 10
135.8568236965045
 20
251.1540065561352
 10
135.8325357733335
 20
251.1264457922531
 10
135.7960177611899
 20
251.1264457922531
 10
135.7960177611899
 20
251.1264457922531
 10
135.025005391591
 20
251.1264457922531
 10
135.025005391591
 20
251.1264457922531
 10
134.9884873794473
 20
251.1264457922531
 10
134.9641994562763
 20
251.1540065561352
 10
134.9641994562763
 20
251.1953477019581
 10
134.9641994562763
 20
251.1953477019581
 10
134.9641994562763
 20
255.7320216917094
 10
134.9641994562763
 20
255.7320216917094
 97
        0
 97
        1
330
94
 75
     2
 76
     1
 98
        1
 10
0.0
 20
0.0
450
        0
451
        0
460
0.0
461
0.0
452
        0
462
0.0
453
        0
470

  0
ENDBLK
  5
84
330
81
100
AcDbEntity
  8
0
100
AcDbBlockEnd
  0
BLOCK
  5
98
330
96
100
AcDbEntity
  8
0
100
AcDbBlockBegin
  2
Block_3
 70
     0
 10
0.0
 20
0.0
 30
0.0
  3
Block_3
  1

  0
INSERT
  5
9B
330
96
100
AcDbEntity
  8
Ebene 1
100
AcDbBlockReference
  2
Block_4
 10
0.0
 20
0.0
 30
0.0
  0
ENDBLK
  5
99
330
96
100
AcDbEntity
  8
0
100
AcDbBlockEnd
  0
BLOCK
  5
9C
330
9A
100
AcDbEntity
  8
0
100
AcDbBlockBegin
  2
Block_4
 70
     0
 10
0.0
 20
0.0
 30
0.0
  3
Block_4
  1

  0
SPLINE
  5
9E
330
9A
100
AcDbEntity
  8
Ebene 1
100
AcDbSpline
210
0.0
220
0.0
230
1.0
 70
     9
 71
     3
 72
    29
 73
    25
 74
     0
 42
0.0000000001
 43
0.0000000001
 40
0.0
 40
0.0
 40
0.0
 40
0.0
 40
1.0
 40
1.0
 40
1.0
 40
2.0
 40
2.0
 40
2.0
 40
3.0
 40
3.0
 40
3.0
 40
4.0
 40
4.0
 40
4.0
 40
5.0
 40
5.0
 40
5.0
 40
6.0
 40
6.0
 40
6.0
 40
7.0
 40
7.0
 40
7.0
 40
8.0
 40
8.0
 40
8.0
 40
8.0
 10
140.4155462973614
 20
252.2194023349486
 30
0.0
 10
140.4580932266042
 20
252.3706420267511
 30
0.0
 10
140.4701510608026
 20
252.5081013366126
 30
0.0
 10
140.4701510608026
 20
252.789910147306
 30
0.0
 10
140.4701510608026
 20
253.0717189579994
 30
0.0
 10
140.4580932266042
 20
253.2093505226352
 30
0.0
 10
140.4155462973614
 20
253.3605902144377
 30
0.0
 10
140.3487114449475
 20
253.5941676883376
 30
0.0
 10
140.1847248998496
 20
253.7180188710323
 30
0.0
 10
139.9601046742114
 20
253.7180188710323
 30
0.0
 10
139.7354844485731
 20
253.7180188710323
 30
0.0
 10
139.5714979034752
 20
253.5941676883376
 30
0.0
 10
139.5046630510613
 20
253.3605902144377
 30
0.0
 10
139.4622883765928
 20
253.2093505226352
 30
0.0
 10
139.4500582876201
 20
253.0717189579994
 30
0.0
 10
139.4500582876201
 20
252.789910147306
 30
0.0
 10
139.4500582876201
 20
252.5081013366126
 30
0.0
 10
139.4622883765928
 20
252.3706420267511
 30
0.0
 10
139.5046630510613
 20
252.2194023349486
 30
0.0
 10
139.5714979034752
 20
251.9856526062744
 30
0.0
 10
139.7354844485731
 20
251.861973678354
 30
0.0
 10
139.9601046742114
 20
251.861973678354
 30
0.0
 10
140.1847248998496
 20
251.861973678354
 30
0.0
 10
140.3487114449475
 20
251.9856526062744
 30
0.0
 10
140.4155462973614
 20
252.2194023349486
 30
0.0
  0
SPLINE
  5
9F
330
9A
100
AcDbEntity
  8
Ebene 1
100
AcDbSpline
210
0.0
220
0.0
230
1.0
 70
     9
 71
     3
 72
    29
 73
    25
 74
     0
 42
0.0000000001
 43
0.0000000001
 40
0.0
 40
0.0
 40
0.0
 40
0.0
 40
1.0
 40
1.0
 40
1.0
 40
2.0
 40
2.0
 40
2.0
 40
3.0
 40
3.0
 40
3.0
 40
4.0
 40
4.0
 40
4.0
 40
5.0
 40
5.0
 40
5.0
 40
6.0
 40
6.0
 40
6.0
 40
7.0
 40
7.0
 40
7.0
 40
8.0
 40
8.0
 40
8.0
 40
8.0
 10
138.6850748351204
 20
251.9856526062744
 30
0.0
 10
138.6182399827065
 20
252.2262925259191
 30
0.0
 10
138.5879231424363
 20
252.4600422545933
 30
0.0
 10
138.5879231424363
 20
252.789910147306
 30
0.0
 10
138.5879231424363
 20
253.1199502947929
 30
0.0
 10
138.6182399827065
 20
253.3537000234672
 30
0.0
 10
138.6850748351204
 20
253.5941676883376
 30
0.0
 10
138.8550902973175
 20
254.1991264555475
 30
0.0
 10
139.3408487607377
 20
254.5291666030344
 30
0.0
 10
139.9601046742114
 20
254.5291666030344
 30
0.0
 10
140.5795328424593
 20
254.5291666030344
 30
0.0
 10
141.0652913058795
 20
254.1991264555475
 30
0.0
 10
141.2353067680766
 20
253.5941676883376
 30
0.0
 10
141.3019693657162
 20
253.3537000234672
 30
0.0
 10
141.3324584607606
 20
253.1199502947929
 30
0.0
 10
141.3324584607606
 20
252.789910147306
 30
0.0
 10
141.3324584607606
 20
252.4600422545933
 30
0.0
 10
141.3019693657162
 20
252.2262925259191
 30
0.0
 10
141.2353067680766
 20
251.9856526062744
 30
0.0
 10
141.0652913058795
 20
251.3806938390645
 30
0.0
 10
140.5795328424593
 20
251.0509982011261
 30
0.0
 10
139.9601046742114
 20
251.0509982011261
 30
0.0
 10
139.3408487607377
 20
251.0509982011261
 30
0.0
 10
138.8550902973175
 20
251.3806938390645
 30
0.0
 10
138.6850748351204
 20
251.9856526062744
 30
0.0
  0
HATCH
  5
A0
330
9A
100
AcDbEntity
  8
Ebene 1
 62
   250
420
  1907995
440
 33554687
100
AcDbHatch
 10
0.0
 20
0.0
 30
0.0
210
0.0
220
0.0
230
1.0
  2
SOLID
 70
     1
 71
     1
 91
        2
 92
        1
 93
        1
 72
     4
 94
        3
 73
     0
 74
     0
 95
       29
 96
       25
 40
0.0
 40
0.0
 40
0.0
 40
0.0
 40
1.0
 40
1.0
 40
1.0
 40
2.0
 40
2.0
 40
2.0
 40
3.0
 40
3.0
 40
3.0
 40
4.0
 40
4.0
 40
4.0
 40
5.0
 40
5.0
 40
5.0
 40
6.0
 40
6.0
 40
6.0
 40
7.0
 40
7.0
 40
7.0
 40
8.0
 40
8.0
 40
8.0
 40
8.0
 10
140.4155462973614
 20
252.2194023349486
 10
140.4580932266042
 20
252.3706420267511
 10
140.4701510608026
 20
252.5081013366126
 10
140.4701510608026
 20
252.789910147306
 10
140.4701510608026
 20
253.0717189579994
 10
140.4580932266042
 20
253.2093505226352
 10
140.4155462973614
 20
253.3605902144377
 10
140.3487114449475
 20
253.5941676883376
 10
140.1847248998496
 20
253.7180188710323
 10
139.9601046742114
 20
253.7180188710323
 10
139.7354844485731
 20
253.7180188710323
 10
139.5714979034752
 20
253.5941676883376
 10
139.5046630510613
 20
253.3605902144377
 10
139.4622883765928
 20
253.2093505226352
 10
139.4500582876201
 20
253.0717189579994
 10
139.4500582876201
 20
252.789910147306
 10
139.4500582876201
 20
252.5081013366126
 10
139.4622883765928
 20
252.3706420267511
 10
139.5046630510613
 20
252.2194023349486
 10
139.5714979034752
 20
251.9856526062744
 10
139.7354844485731
 20
251.861973678354
 10
139.9601046742114
 20
251.861973678354
 10
140.1847248998496
 20
251.861973678354
 10
140.3487114449475
 20
251.9856526062744
 10
140.4155462973614
 20
252.2194023349486
 97
        0
 97
        1
330
9E
 92
        1
 93
        1
 72
     4
 94
        3
 73
     0
 74
     0
 95
       29
 96
       25
 40
0.0
 40
0.0
 40
0.0
 40
0.0
 40
1.0
 40
1.0
 40
1.0
 40
2.0
 40
2.0
 40
2.0
 40
3.0
 40
3.0
 40
3.0
 40
4.0
 40
4.0
 40
4.0
 40
5.0
 40
5.0
 40
5.0
 40
6.0
 40
6.0
 40
6.0
 40
7.0
 40
7.0
 40
7.0
 40
8.0
 40
8.0
 40
8.0
 40
8.0
 10
138.6850748351204
 20
251.9856526062744
 10
138.6182399827065
 20
252.2262925259191
 10
138.5879231424363
 20
252.4600422545933
 10
138.5879231424363
 20
252.789910147306
 10
138.5879231424363
 20
253.1199502947929
 10
138.6182399827065
 20
253.3537000234672
 10
138.6850748351204
 20
253.5941676883376
 10
138.8550902973175
 20
254.1991264555475
 10
139.3408487607377
 20
254.5291666030344
 10
139.9601046742114
 20
254.5291666030344
 10
140.5795328424593
 20
254.5291666030344
 10
141.0652913058795
 20
254.1991264555475
 10
141.2353067680766
 20
253.5941676883376
 10
141.3019693657162
 20
253.3537000234672
 10
141.3324584607606
 20
253.1199502947929
 10
141.3324584607606
 20
252.789910147306
 10
141.3324584607606
 20
252.4600422545933
 10
141.3019693657162
 20
252.2262925259191
 10
141.2353067680766
 20
251.9856526062744
 10
141.0652913058795
 20
251.3806938390645
 10
140.5795328424593
 20
251.0509982011261
 10
139.9601046742114
 20
251.0509982011261
 10
139.3408487607377
 20
251.0509982011261
 10
138.8550902973175
 20
251.3806938390645
 10
138.6850748351204
 20
251.9856526062744
 97
        0
 97
        1
330
9F
 75
     2
 76
     1
 98
        1
 10
0.0
 20
0.0
450
        0
451
        0
460
0.0
461
0.0
452
        0
462
0.0
453
        0
470

  0
SPLINE
  5
A1
330
9A
100
AcDbEntity
  8
Ebene 1
100
AcDbSpline
210
0.0
220
0.0
230
1.0
 70
     9
 71
     3
 72
    41
 73
    37
 74
     0
 42
0.0000000001
 43
0.0000000001
 40
0.0
 40
0.0
 40
0.0
 40
0.0
 40
1.0
 40
1.0
 40
1.0
 40
2.0
 40
2.0
 40
2.0
 40
3.0
 40
3.0
 40
3.0
 40
4.0
 40
4.0
 40
4.0
 40
5.0
 40
5.0
 40
5.0
 40
6.0
 40
6.0
 40
6.0
 40
7.0
 40
7.0
 40
7.0
 40
8.0
 40
8.0
 40
8.0
 40
9.0
 40
9.0
 40
9.0
 40
10.0
 40
10.0
 40
10.0
 40
11.0
 40
11.0
 40
11.0
 40
12.0
 40
12.0
 40
12.0
 40
12.0
 10
142.8501952767874
 20
251.0851046464301
 30
0.0
 10
142.2004502682693
 20
251.0851046464301
 30
0.0
 10
141.9393120304874
 20
251.4082546029466
 30
0.0
 10
141.9393120304874
 20
252.1437824890474
 30
0.0
 10
141.9393120304874
 20
252.1437824890474
 30
0.0
 10
141.9393120304874
 20
255.7320216917094
 30
0.0
 10
141.9393120304874
 20
255.7320216917094
 30
0.0
 10
141.9393120304874
 20
255.7733628375324
 30
0.0
 10
141.9635999536584
 20
255.8007513466401
 30
0.0
 10
142.000117965802
 20
255.8007513466401
 30
0.0
 10
142.000117965802
 20
255.8007513466401
 30
0.0
 10
142.7287556609324
 20
255.8007513466401
 30
0.0
 10
142.7287556609324
 20
255.8007513466401
 30
0.0
 10
142.7651014183018
 20
255.8007513466401
 30
0.0
 10
142.7893893414728
 20
255.7733628375324
 30
0.0
 10
142.7893893414728
 20
255.7320216917094
 30
0.0
 10
142.7893893414728
 20
255.7320216917094
 30
0.0
 10
142.7893893414728
 20
252.2194023349486
 30
0.0
 10
142.7893893414728
 20
252.2194023349486
 30
0.0
 10
142.7893893414728
 20
251.9925427972449
 30
0.0
 10
142.8684542828593
 20
251.9031425694027
 30
0.0
 10
143.0444986621555
 20
251.9031425694027
 30
0.0
 10
143.0444986621555
 20
251.9031425694027
 30
0.0
 10
143.1719671951098
 20
251.9031425694027
 30
0.0
 10
143.1719671951098
 20
251.9031425694027
 30
0.0
 10
143.2084852072534
 20
251.9031425694027
 30
0.0
 10
143.2326008756501
 20
251.8757540602949
 30
0.0
 10
143.2326008756501
 20
251.834412914472
 30
0.0
 10
143.2326008756501
 20
251.834412914472
 30
0.0
 10
143.2326008756501
 20
251.1540065561352
 30
0.0
 10
143.2326008756501
 20
251.1540065561352
 30
0.0
 10
143.2326008756501
 20
251.1126654103121
 30
0.0
 10
143.2084852072534
 20
251.0851046464301
 30
0.0
 10
143.1719671951098
 20
251.0851046464301
 30
0.0
 10
143.1719671951098
 20
251.0851046464301
 30
0.0
 10
142.8501952767874
 20
251.0851046464301
 30
0.0
 10
142.8501952767874
 20
251.0851046464301
 30
0.0
  0
HATCH
  5
A2
330
9A
100
AcDbEntity
  8
Ebene 1
 62
   250
420
  1907995
440
 33554687
100
AcDbHatch
 10
0.0
 20
0.0
 30
0.0
210
0.0
220
0.0
230
1.0
  2
SOLID
 70
     1
 71
     1
 91
        1
 92
        1
 93
        1
 72
     4
 94
        3
 73
     0
 74
     0
 95
       41
 96
       37
 40
0.0
 40
0.0
 40
0.0
 40
0.0
 40
1.0
 40
1.0
 40
1.0
 40
2.0
 40
2.0
 40
2.0
 40
3.0
 40
3.0
 40
3.0
 40
4.0
 40
4.0
 40
4.0
 40
5.0
 40
5.0
 40
5.0
 40
6.0
 40
6.0
 40
6.0
 40
7.0
 40
7.0
 40
7.0
 40
8.0
 40
8.0
 40
8.0
 40
9.0
 40
9.0
 40
9.0
 40
10.0
 40
10.0
 40
10.0
 40
11.0
 40
11.0
 40
11.0
 40
12.0
 40
12.0
 40
12.0
 40
12.0
 10
142.8501952767874
 20
251.0851046464301
 10
142.2004502682693
 20
251.0851046464301
 10
141.9393120304874
 20
251.4082546029466
 10
141.9393120304874
 20
252.1437824890474
 10
141.9393120304874
 20
252.1437824890474
 10
141.9393120304874
 20
255.7320216917094
 10
141.9393120304874
 20
255.7320216917094
 10
141.9393120304874
 20
255.7733628375324
 10
141.9635999536584
 20
255.8007513466401
 10
142.000117965802
 20
255.8007513466401
 10
142.000117965802
 20
255.8007513466401
 10
142.7287556609324
 20
255.8007513466401
 10
142.7287556609324
 20
255.8007513466401
 10
142.7651014183018
 20
255.8007513466401
 10
142.7893893414728
 20
255.7733628375324
 10
142.7893893414728
 20
255.7320216917094
 10
142.7893893414728
 20
255.7320216917094
 10
142.7893893414728
 20
252.2194023349486
 10
142.7893893414728
 20
252.2194023349486
 10
142.7893893414728
 20
251.9925427972449
 10
142.8684542828593
 20
251.9031425694027
 10
143.0444986621555
 20
251.9031425694027
 10
143.0444986621555
 20
251.9031425694027
 10
143.1719671951098
 20
251.9031425694027
 10
143.1719671951098
 20
251.9031425694027
 10
143.2084852072534
 20
251.9031425694027
 10
143.2326008756501
 20
251.8757540602949
 10
143.2326008756501
 20
251.834412914472
 10
143.2326008756501
 20
251.834412914472
 10
143.2326008756501
 20
251.1540065561352
 10
143.2326008756501
 20
251.1540065561352
 10
143.2326008756501
 20
251.1126654103121
 10
143.2084852072534
 20
251.0851046464301
 10
143.1719671951098
 20
251.0851046464301
 10
143.1719671951098
 20
251.0851046464301
 10
142.8501952767874
 20
251.0851046464301
 10
142.8501952767874
 20
251.0851046464301
 97
        0
 97
        1
330
A1
 75
     2
 76
     1
 98
        1
 10
0.0
 20
0.0
450
        0
451
        0
460
0.0
461
0.0
452
        0
462
0.0
453
        0
470

  0
SPLINE
  5
A3
330
9A
100
AcDbEntity
  8
Ebene 1
100
AcDbSpline
210
0.0
220
0.0
230
1.0
 70
     9
 71
     3
 72
    41
 73
    37
 74
     0
 42
0.0000000001
 43
0.0000000001
 40
0.0
 40
0.0
 40
0.0
 40
0.0
 40
1.0
 40
1.0
 40
1.0
 40
2.0
 40
2.0
 40
2.0
 40
3.0
 40
3.0
 40
3.0
 40
4.0
 40
4.0
 40
4.0
 40
5.0
 40
5.0
 40
5.0
 40
6.0
 40
6.0
 40
6.0
 40
7.0
 40
7.0
 40
7.0
 40
8.0
 40
8.0
 40
8.0
 40
9.0
 40
9.0
 40
9.0
 40
10.0
 40
10.0
 40
10.0
 40
11.0
 40
11.0
 40
11.0
 40
12.0
 40
12.0
 40
12.0
 40
12.0
 10
144.6957329282358
 20
251.0851046464301
 30
0.0
 10
144.0459879197176
 20
251.0851046464301
 30
0.0
 10
143.7848496819357
 20
251.4082546029466
 30
0.0
 10
143.7848496819357
 20
252.1437824890474
 30
0.0
 10
143.7848496819357
 20
252.1437824890474
 30
0.0
 10
143.7848496819357
 20
255.7320216917094
 30
0.0
 10
143.7848496819357
 20
255.7320216917094
 30
0.0
 10
143.7848496819357
 20
255.7733628375324
 30
0.0
 10
143.8091376051067
 20
255.8007513466401
 30
0.0
 10
143.8456556172504
 20
255.8007513466401
 30
0.0
 10
143.8456556172504
 20
255.8007513466401
 30
0.0
 10
144.5742933123807
 20
255.8007513466401
 30
0.0
 10
144.5742933123807
 20
255.8007513466401
 30
0.0
 10
144.6106390697501
 20
255.8007513466401
 30
0.0
 10
144.6349269929211
 20
255.7733628375324
 30
0.0
 10
144.6349269929211
 20
255.7320216917094
 30
0.0
 10
144.6349269929211
 20
255.7320216917094
 30
0.0
 10
144.6349269929211
 20
252.2194023349486
 30
0.0
 10
144.6349269929211
 20
252.2194023349486
 30
0.0
 10
144.6349269929211
 20
251.9925427972449
 30
0.0
 10
144.7139919343076
 20
251.9031425694027
 30
0.0
 10
144.8900363136039
 20
251.9031425694027
 30
0.0
 10
144.8900363136039
 20
251.9031425694027
 30
0.0
 10
145.0175048465581
 20
251.9031425694027
 30
0.0
 10
145.0175048465581
 20
251.9031425694027
 30
0.0
 10
145.0540228587018
 20
251.9031425694027
 30
0.0
 10
145.0781385270985
 20
251.8757540602949
 30
0.0
 10
145.0781385270985
 20
251.834412914472
 30
0.0
 10
145.0781385270985
 20
251.834412914472
 30
0.0
 10
145.0781385270985
 20
251.1540065561352
 30
0.0
 10
145.0781385270985
 20
251.1540065561352
 30
0.0
 10
145.0781385270985
 20
251.1126654103121
 30
0.0
 10
145.0540228587018
 20
251.0851046464301
 30
0.0
 10
145.0175048465581
 20
251.0851046464301
 30
0.0
 10
145.0175048465581
 20
251.0851046464301
 30
0.0
 10
144.6957329282358
 20
251.0851046464301
 30
0.0
 10
144.6957329282358
 20
251.0851046464301
 30
0.0
  0
HATCH
  5
A4
330
9A
100
AcDbEntity
  8
Ebene 1
 62
   250
420
  1907995
440
 33554687
100
AcDbHatch
 10
0.0
 20
0.0
 30
0.0
210
0.0
220
0.0
230
1.0
  2
SOLID
 70
     1
 71
     1
 91
        1
 92
        1
 93
        1
 72
     4
 94
        3
 73
     0
 74
     0
 95
       41
 96
       37
 40
0.0
 40
0.0
 40
0.0
 40
0.0
 40
1.0
 40
1.0
 40
1.0
 40
2.0
 40
2.0
 40
2.0
 40
3.0
 40
3.0
 40
3.0
 40
4.0
 40
4.0
 40
4.0
 40
5.0
 40
5.0
 40
5.0
 40
6.0
 40
6.0
 40
6.0
 40
7.0
 40
7.0
 40
7.0
 40
8.0
 40
8.0
 40
8.0
 40
9.0
 40
9.0
 40
9.0
 40
10.0
 40
10.0
 40
10.0
 40
11.0
 40
11.0
 40
11.0
 40
12.0
 40
12.0
 40
12.0
 40
12.0
 10
144.6957329282358
 20
251.0851046464301
 10
144.0459879197176
 20
251.0851046464301
 10
143.7848496819357
 20
251.4082546029466
 10
143.7848496819357
 20
252.1437824890474
 10
143.7848496819357
 20
252.1437824890474
 10
143.7848496819357
 20
255.7320216917094
 10
143.7848496819357
 20
255.7320216917094
 10
143.7848496819357
 20
255.7733628375324
 10
143.8091376051067
 20
255.8007513466401
 10
143.8456556172504
 20
255.8007513466401
 10
143.8456556172504
 20
255.8007513466401
 10
144.5742933123807
 20
255.8007513466401
 10
144.5742933123807
 20
255.8007513466401
 10
144.6106390697501
 20
255.8007513466401
 10
144.6349269929211
 20
255.7733628375324
 10
144.6349269929211
 20
255.7320216917094
 10
144.6349269929211
 20
255.7320216917094
 10
144.6349269929211
 20
252.2194023349486
 10
144.6349269929211
 20
252.2194023349486
 10
144.6349269929211
 20
251.9925427972449
 10
144.7139919343076
 20
251.9031425694027
 10
144.8900363136039
 20
251.9031425694027
 10
144.8900363136039
 20
251.9031425694027
 10
145.0175048465581
 20
251.9031425694027
 10
145.0175048465581
 20
251.9031425694027
 10
145.0540228587018
 20
251.9031425694027
 10
145.0781385270985
 20
251.8757540602949
 10
145.0781385270985
 20
251.834412914472
 10
145.0781385270985
 20
251.834412914472
 10
145.0781385270985
 20
251.1540065561352
 10
145.0781385270985
 20
251.1540065561352
 10
145.0781385270985
 20
251.1126654103121
 10
145.0540228587018
 20
251.0851046464301
 10
145.0175048465581
 20
251.0851046464301
 10
145.0175048465581
 20
251.0851046464301
 10
144.6957329282358
 20
251.0851046464301
 10
144.6957329282358
 20
251.0851046464301
 97
        0
 97
        1
330
A3
 75
     2
 76
     1
 98
        1
 10
0.0
 20
0.0
450
        0
451
        0
460
0.0
461
0.0
452
        0
462
0.0
453
        0
470

  0
SPLINE
  5
A5
330
9A
100
AcDbEntity
  8
Ebene 1
100
AcDbSpline
210
0.0
220
0.0
230
1.0
 70
     9
 71
     3
 72
    29
 73
    25
 74
     0
 42
0.0000000001
 43
0.0000000001
 40
0.0
 40
0.0
 40
0.0
 40
0.0
 40
1.0
 40
1.0
 40
1.0
 40
2.0
 40
2.0
 40
2.0
 40
3.0
 40
3.0
 40
3.0
 40
4.0
 40
4.0
 40
4.0
 40
5.0
 40
5.0
 40
5.0
 40
6.0
 40
6.0
 40
6.0
 40
7.0
 40
7.0
 40
7.0
 40
8.0
 40
8.0
 40
8.0
 40
8.0
 10
147.3246852930299
 20
252.2194023349486
 30
0.0
 10
147.3672322222727
 20
252.3706420267511
 30
0.0
 10
147.3792900564711
 20
252.5081013366126
 30
0.0
 10
147.3792900564711
 20
252.789910147306
 30
0.0
 10
147.3792900564711
 20
253.0717189579994
 30
0.0
 10
147.3672322222727
 20
253.2093505226352
 30
0.0
 10
147.3246852930299
 20
253.3605902144377
 30
0.0
 10
147.2578504406161
 20
253.5941676883376
 30
0.0
 10
147.0938638955182
 20
253.7180188710323
 30
0.0
 10
146.8692436698799
 20
253.7180188710323
 30
0.0
 10
146.6446234442416
 20
253.7180188710323
 30
0.0
 10
146.4806368991437
 20
253.5941676883376
 30
0.0
 10
146.4138020467299
 20
253.3605902144377
 30
0.0
 10
146.3714273722613
 20
253.2093505226352
 30
0.0
 10
146.3591972832887
 20
253.0717189579994
 30
0.0
 10
146.3591972832887
 20
252.789910147306
 30
0.0
 10
146.3591972832887
 20
252.5081013366126
 30
0.0
 10
146.3714273722613
 20
252.3706420267511
 30
0.0
 10
146.4138020467299
 20
252.2194023349486
 30
0.0
 10
146.4806368991437
 20
251.9856526062744
 30
0.0
 10
146.6446234442416
 20
251.861973678354
 30
0.0
 10
146.8692436698799
 20
251.861973678354
 30
0.0
 10
147.0938638955182
 20
251.861973678354
 30
0.0
 10
147.2578504406161
 20
251.9856526062744
 30
0.0
 10
147.3246852930299
 20
252.2194023349486
 30
0.0
  0
SPLINE
  5
A6
330
9A
100
AcDbEntity
  8
Ebene 1
100
AcDbSpline
210
0.0
220
0.0
230
1.0
 70
     9
 71
     3
 72
    29
 73
    25
 74
     0
 42
0.0000000001
 43
0.0000000001
 40
0.0
 40
0.0
 40
0.0
 40
0.0
 40
1.0
 40
1.0
 40
1.0
 40
2.0
 40
2.0
 40
2.0
 40
3.0
 40
3.0
 40
3.0
 40
4.0
 40
4.0
 40
4.0
 40
5.0
 40
5.0
 40
5.0
 40
6.0
 40
6.0
 40
6.0
 40
7.0
 40
7.0
 40
7.0
 40
8.0
 40
8.0
 40
8.0
 40
8.0
 10
145.5942138307889
 20
251.9856526062744
 30
0.0
 10
145.5273789783751
 20
252.2262925259191
 30
0.0
 10
145.4970621381049
 20
252.4600422545933
 30
0.0
 10
145.4970621381049
 20
252.789910147306
 30
0.0
 10
145.4970621381049
 20
253.1199502947929
 30
0.0
 10
145.5273789783751
 20
253.3537000234672
 30
0.0
 10
145.5942138307889
 20
253.5941676883376
 30
0.0
 10
145.764229292986
 20
254.1991264555475
 30
0.0
 10
146.2499877564062
 20
254.5291666030344
 30
0.0
 10
146.8692436698799
 20
254.5291666030344
 30
0.0
 10
147.4886718381278
 20
254.5291666030344
 30
0.0
 10
147.974430301548
 20
254.1991264555475
 30
0.0
 10
148.1444457637451
 20
253.5941676883376
 30
0.0
 10
148.2111083613847
 20
253.3537000234672
 30
0.0
 10
148.2415974564292
 20
253.1199502947929
 30
0.0
 10
148.2415974564292
 20
252.789910147306
 30
0.0
 10
148.2415974564292
 20
252.4600422545933
 30
0.0
 10
148.2111083613847
 20
252.2262925259191
 30
0.0
 10
148.1444457637451
 20
251.9856526062744
 30
0.0
 10
147.974430301548
 20
251.3806938390645
 30
0.0
 10
147.4886718381278
 20
251.0509982011261
 30
0.0
 10
146.8692436698799
 20
251.0509982011261
 30
0.0
 10
146.2499877564062
 20
251.0509982011261
 30
0.0
 10
145.764229292986
 20
251.3806938390645
 30
0.0
 10
145.5942138307889
 20
251.9856526062744
 30
0.0
  0
HATCH
  5
A7
330
9A
100
AcDbEntity
  8
Ebene 1
 62
   250
420
  1907995
440
 33554687
100
AcDbHatch
 10
0.0
 20
0.0
 30
0.0
210
0.0
220
0.0
230
1.0
  2
SOLID
 70
     1
 71
     1
 91
        2
 92
        1
 93
        1
 72
     4
 94
        3
 73
     0
 74
     0
 95
       29
 96
       25
 40
0.0
 40
0.0
 40
0.0
 40
0.0
 40
1.0
 40
1.0
 40
1.0
 40
2.0
 40
2.0
 40
2.0
 40
3.0
 40
3.0
 40
3.0
 40
4.0
 40
4.0
 40
4.0
 40
5.0
 40
5.0
 40
5.0
 40
6.0
 40
6.0
 40
6.0
 40
7.0
 40
7.0
 40
7.0
 40
8.0
 40
8.0
 40
8.0
 40
8.0
 10
147.3246852930299
 20
252.2194023349486
 10
147.3672322222727
 20
252.3706420267511
 10
147.3792900564711
 20
252.5081013366126
 10
147.3792900564711
 20
252.789910147306
 10
147.3792900564711
 20
253.0717189579994
 10
147.3672322222727
 20
253.2093505226352
 10
147.3246852930299
 20
253.3605902144377
 10
147.2578504406161
 20
253.5941676883376
 10
147.0938638955182
 20
253.7180188710323
 10
146.8692436698799
 20
253.7180188710323
 10
146.6446234442416
 20
253.7180188710323
 10
146.4806368991437
 20
253.5941676883376
 10
146.4138020467299
 20
253.3605902144377
 10
146.3714273722613
 20
253.2093505226352
 10
146.3591972832887
 20
253.0717189579994
 10
146.3591972832887
 20
252.789910147306
 10
146.3591972832887
 20
252.5081013366126
 10
146.3714273722613
 20
252.3706420267511
 10
146.4138020467299
 20
252.2194023349486
 10
146.4806368991437
 20
251.9856526062744
 10
146.6446234442416
 20
251.861973678354
 10
146.8692436698799
 20
251.861973678354
 10
147.0938638955182
 20
251.861973678354
 10
147.2578504406161
 20
251.9856526062744
 10
147.3246852930299
 20
252.2194023349486
 97
        0
 97
        1
330
A5
 92
        1
 93
        1
 72
     4
 94
        3
 73
     0
 74
     0
 95
       29
 96
       25
 40
0.0
 40
0.0
 40
0.0
 40
0.0
 40
1.0
 40
1.0
 40
1.0
 40
2.0
 40
2.0
 40
2.0
 40
3.0
 40
3.0
 40
3.0
 40
4.0
 40
4.0
 40
4.0
 40
5.0
 40
5.0
 40
5.0
 40
6.0
 40
6.0
 40
6.0
 40
7.0
 40
7.0
 40
7.0
 40
8.0
 40
8.0
 40
8.0
 40
8.0
 10
145.5942138307889
 20
251.9856526062744
 10
145.5273789783751
 20
252.2262925259191
 10
145.4970621381049
 20
252.4600422545933
 10
145.4970621381049
 20
252.789910147306
 10
145.4970621381049
 20
253.1199502947929
 10
145.5273789783751
 20
253.3537000234672
 10
145.5942138307889
 20
253.5941676883376
 10
145.764229292986
 20
254.1991264555475
 10
146.2499877564062
 20
254.5291666030344
 10
146.8692436698799
 20
254.5291666030344
 10
147.4886718381278
 20
254.5291666030344
 10
147.974430301548
 20
254.1991264555475
 10
148.1444457637451
 20
253.5941676883376
 10
148.2111083613847
 20
253.3537000234672
 10
148.2415974564292
 20
253.1199502947929
 10
148.2415974564292
 20
252.789910147306
 10
148.2415974564292
 20
252.4600422545933
 10
148.2111083613847
 20
252.2262925259191
 10
148.1444457637451
 20
251.9856526062744
 10
147.974430301548
 20
251.3806938390645
 10
147.4886718381278
 20
251.0509982011261
 10
146.8692436698799
 20
251.0509982011261
 10
146.2499877564062
 20
251.0509982011261
 10
145.764229292986
 20
251.3806938390645
 10
145.5942138307889
 20
251.9856526062744
 97
        0
 97
        1
330
A6
 75
     2
 76
     1
 98
        1
 10
0.0
 20
0.0
450
        0
451
        0
460
0.0
461
0.0
452
        0
462
0.0
453
        0
470

  0
SPLINE
  5
A8
330
9A
100
AcDbEntity
  8
Ebene 1
100
AcDbSpline
210
0.0
220
0.0
230
1.0
 70
     9
 71
     3
 72
    89
 73
    85
 74
     0
 42
0.0000000001
 43
0.0000000001
 40
0.0
 40
0.0
 40
0.0
 40
0.0
 40
1.0
 40
1.0
 40
1.0
 40
2.0
 40
2.0
 40
2.0
 40
3.0
 40
3.0
 40
3.0
 40
4.0
 40
4.0
 40
4.0
 40
5.0
 40
5.0
 40
5.0
 40
6.0
 40
6.0
 40
6.0
 40
7.0
 40
7.0
 40
7.0
 40
8.0
 40
8.0
 40
8.0
 40
9.0
 40
9.0
 40
9.0
 40
10.0
 40
10.0
 40
10.0
 40
11.0
 40
11.0
 40
11.0
 40
12.0
 40
12.0
 40
12.0
 40
13.0
 40
13.0
 40
13.0
 40
14.0
 40
14.0
 40
14.0
 40
15.0
 40
15.0
 40
15.0
 40
16.0
 40
16.0
 40
16.0
 40
17.0
 40
17.0
 40
17.0
 40
18.0
 40
18.0
 40
18.0
 40
19.0
 40
19.0
 40
19.0
 40
20.0
 40
20.0
 40
20.0
 40
21.0
 40
21.0
 40
21.0
 40
22.0
 40
22.0
 40
22.0
 40
23.0
 40
23.0
 40
23.0
 40
24.0
 40
24.0
 40
24.0
 40
25.0
 40
25.0
 40
25.0
 40
26.0
 40
26.0
 40
26.0
 40
27.0
 40
27.0
 40
27.0
 40
28.0
 40
28.0
 40
28.0
 40
28.0
 10
151.0891411297624
 20
251.1264457922531
 30
0.0
 10
151.0526231176188
 20
251.1264457922531
 30
0.0
 10
151.0281629396735
 20
251.1540065561352
 30
0.0
 10
151.0281629396735
 20
251.1953477019581
 30
0.0
 10
151.0281629396735
 20
251.1953477019581
 30
0.0
 10
151.0281629396735
 20
253.7042384890913
 30
0.0
 10
151.0281629396735
 20
253.7042384890913
 30
0.0
 10
151.0281629396735
 20
253.7316269981991
 30
0.0
 10
151.0161051054751
 20
253.74540738014
 30
0.0
 10
150.9919894370784
 20
253.74540738014
 30
0.0
 10
150.9919894370784
 20
253.74540738014
 30
0.0
 10
150.8097438859087
 20
253.74540738014
 30
0.0
 10
150.8097438859087
 20
253.74540738014
 30
0.0
 10
150.773225873765
 20
253.74540738014
 30
0.0
 10
150.7491102053682
 20
253.7729681440221
 30
0.0
 10
150.7491102053682
 20
253.8141370350708
 30
0.0
 10
150.7491102053682
 20
253.8141370350708
 30
0.0
 10
150.7491102053682
 20
254.3848171022024
 30
0.0
 10
150.7491102053682
 20
254.3848171022024
 30
0.0
 10
150.7491102053682
 20
254.4259859932512
 30
0.0
 10
150.773225873765
 20
254.4535467571332
 30
0.0
 10
150.8097438859087
 20
254.4535467571332
 30
0.0
 10
150.8097438859087
 20
254.4535467571332
 30
0.0
 10
150.9919894370784
 20
254.4535467571332
 30
0.0
 10
150.9919894370784
 20
254.4535467571332
 30
0.0
 10
151.0161051054751
 20
254.4535467571332
 30
0.0
 10
151.0281629396735
 20
254.4671548842999
 30
0.0
 10
151.0281629396735
 20
254.4947156481819
 30
0.0
 10
151.0281629396735
 20
254.4947156481819
 30
0.0
 10
151.0281629396735
 20
254.6528455309549
 30
0.0
 10
151.0281629396735
 20
254.6528455309549
 30
0.0
 10
151.0281629396735
 20
255.4639932629569
 30
0.0
 10
151.3623372017427
 20
255.8007513466401
 30
0.0
 10
152.0606580566029
 20
255.8007513466401
 30
0.0
 10
152.0606580566029
 20
255.8007513466401
 30
0.0
 10
152.3944878091236
 20
255.8007513466401
 30
0.0
 10
152.3944878091236
 20
255.8007513466401
 30
0.0
 10
152.4310058212672
 20
255.8007513466401
 30
0.0
 10
152.455121489664
 20
255.7733628375324
 30
0.0
 10
152.455121489664
 20
255.7320216917094
 30
0.0
 10
152.455121489664
 20
255.7320216917094
 30
0.0
 10
152.455121489664
 20
255.0858940334507
 30
0.0
 10
152.455121489664
 20
255.0858940334507
 30
0.0
 10
152.455121489664
 20
255.044725142402
 30
0.0
 10
152.4310058212672
 20
255.01716437852
 30
0.0
 10
152.3944878091236
 20
255.01716437852
 30
0.0
 10
152.3944878091236
 20
255.01716437852
 30
0.0
 10
152.206385595629
 20
255.01716437852
 30
0.0
 10
152.206385595629
 20
255.01716437852
 30
0.0
 10
151.9390461859735
 20
255.01716437852
 30
0.0
 10
151.8722113335597
 20
254.9415445326188
 30
0.0
 10
151.8722113335597
 20
254.6597357219253
 30
0.0
 10
151.8722113335597
 20
254.6597357219253
 30
0.0
 10
151.8722113335597
 20
254.4947156481819
 30
0.0
 10
151.8722113335597
 20
254.4947156481819
 30
0.0
 10
151.8722113335597
 20
254.4671548842999
 30
0.0
 10
151.8846136773066
 20
254.4535467571332
 30
0.0
 10
151.9087293457034
 20
254.4535467571332
 30
0.0
 10
151.9087293457034
 20
254.4535467571332
 30
0.0
 10
152.3882866372501
 20
254.4535467571332
 30
0.0
 10
152.3882866372501
 20
254.4535467571332
 30
0.0
 10
152.4248046493938
 20
254.4535467571332
 30
0.0
 10
152.4492648273391
 20
254.4259859932512
 30
0.0
 10
152.4492648273391
 20
254.3848171022024
 30
0.0
 10
152.4492648273391
 20
254.3848171022024
 30
0.0
 10
152.4492648273391
 20
253.8141370350708
 30
0.0
 10
152.4492648273391
 20
253.8141370350708
 30
0.0
 10
152.4492648273391
 20
253.7729681440221
 30
0.0
 10
152.4248046493938
 20
253.74540738014
 30
0.0
 10
152.3882866372501
 20
253.74540738014
 30
0.0
 10
152.3882866372501
 20
253.74540738014
 30
0.0
 10
151.9087293457034
 20
253.74540738014
 30
0.0
 10
151.9087293457034
 20
253.74540738014
 30
0.0
 10
151.8846136773066
 20
253.74540738014
 30
0.0
 10
151.8722113335597
 20
253.7316269981991
 30
0.0
 10
151.8722113335597
 20
253.7042384890913
 30
0.0
 10
151.8722113335597
 20
253.7042384890913
 30
0.0
 10
151.8722113335597
 20
251.1953477019581
 30
0.0
 10
151.8722113335597
 20
251.1953477019581
 30
0.0
 10
151.8722113335597
 20
251.1540065561352
 30
0.0
 10
151.848095665163
 20
251.1264457922531
 30
0.0
 10
151.8115776530193
 20
251.1264457922531
 30
0.0
 10
151.8115776530193
 20
251.1264457922531
 30
0.0
 10
151.0891411297624
 20
251.1264457922531
 30
0.0
 10
151.0891411297624
 20
251.1264457922531
 30
0.0
  0
SPLINE
  5
A9
330
9A
100
AcDbEntity
  8
Ebene 1
100
AcDbSpline
210
0.0
220
0.0
230
1.0
 70
     9
 71
     3
 72
    89
 73
    85
 74
     0
 42
0.0000000001
 43
0.0000000001
 40
0.0
 40
0.0
 40
0.0
 40
0.0
 40
1.0
 40
1.0
 40
1.0
 40
2.0
 40
2.0
 40
2.0
 40
3.0
 40
3.0
 40
3.0
 40
4.0
 40
4.0
 40
4.0
 40
5.0
 40
5.0
 40
5.0
 40
6.0
 40
6.0
 40
6.0
 40
7.0
 40
7.0
 40
7.0
 40
8.0
 40
8.0
 40
8.0
 40
9.0
 40
9.0
 40
9.0
 40
10.0
 40
10.0
 40
10.0
 40
11.0
 40
11.0
 40
11.0
 40
12.0
 40
12.0
 40
12.0
 40
13.0
 40
13.0
 40
13.0
 40
14.0
 40
14.0
 40
14.0
 40
15.0
 40
15.0
 40
15.0
 40
16.0
 40
16.0
 40
16.0
 40
17.0
 40
17.0
 40
17.0
 40
18.0
 40
18.0
 40
18.0
 40
19.0
 40
19.0
 40
19.0
 40
20.0
 40
20.0
 40
20.0
 40
21.0
 40
21.0
 40
21.0
 40
22.0
 40
22.0
 40
22.0
 40
23.0
 40
23.0
 40
23.0
 40
24.0
 40
24.0
 40
24.0
 40
25.0
 40
25.0
 40
25.0
 40
26.0
 40
26.0
 40
26.0
 40
27.0
 40
27.0
 40
27.0
 40
28.0
 40
28.0
 40
28.0
 40
28.0
 10
149.0306965773257
 20
251.1264457922531
 30
0.0
 10
148.994178565182
 20
251.1264457922531
 30
0.0
 10
148.969890642011
 20
251.1540065561352
 30
0.0
 10
148.969890642011
 20
251.1953477019581
 30
0.0
 10
148.969890642011
 20
251.1953477019581
 30
0.0
 10
148.969890642011
 20
253.7042384890913
 30
0.0
 10
148.969890642011
 20
253.7042384890913
 30
0.0
 10
148.969890642011
 20
253.7316269981991
 30
0.0
 10
148.9578328078126
 20
253.74540738014
 30
0.0
 10
148.9335448846416
 20
253.74540738014
 30
0.0
 10
148.9335448846416
 20
253.74540738014
 30
0.0
 10
148.7512993334719
 20
253.74540738014
 30
0.0
 10
148.7512993334719
 20
253.74540738014
 30
0.0
 10
148.7149535761025
 20
253.74540738014
 30
0.0
 10
148.6906656529315
 20
253.7729681440221
 30
0.0
 10
148.6906656529315
 20
253.8141370350708
 30
0.0
 10
148.6906656529315
 20
253.8141370350708
 30
0.0
 10
148.6906656529315
 20
254.3848171022024
 30
0.0
 10
148.6906656529315
 20
254.3848171022024
 30
0.0
 10
148.6906656529315
 20
254.4259859932512
 30
0.0
 10
148.7149535761025
 20
254.4535467571332
 30
0.0
 10
148.7512993334719
 20
254.4535467571332
 30
0.0
 10
148.7512993334719
 20
254.4535467571332
 30
0.0
 10
148.9335448846416
 20
254.4535467571332
 30
0.0
 10
148.9335448846416
 20
254.4535467571332
 30
0.0
 10
148.9578328078126
 20
254.4535467571332
 30
0.0
 10
148.969890642011
 20
254.4671548842999
 30
0.0
 10
148.969890642011
 20
254.4947156481819
 30
0.0
 10
148.969890642011
 20
254.4947156481819
 30
0.0
 10
148.969890642011
 20
254.6528455309549
 30
0.0
 10
148.969890642011
 20
254.6528455309549
 30
0.0
 10
148.969890642011
 20
255.4639932629569
 30
0.0
 10
149.3038926493059
 20
255.8007513466401
 30
0.0
 10
150.0022135041661
 20
255.8007513466401
 30
0.0
 10
150.0022135041661
 20
255.8007513466401
 30
0.0
 10
150.3360432566868
 20
255.8007513466401
 30
0.0
 10
150.3360432566868
 20
255.8007513466401
 30
0.0
 10
150.3725612688304
 20
255.8007513466401
 30
0.0
 10
150.3970214467757
 20
255.7733628375324
 30
0.0
 10
150.3970214467757
 20
255.7320216917094
 30
0.0
 10
150.3970214467757
 20
255.7320216917094
 30
0.0
 10
150.3970214467757
 20
255.0858940334507
 30
0.0
 10
150.3970214467757
 20
255.0858940334507
 30
0.0
 10
150.3970214467757
 20
255.044725142402
 30
0.0
 10
150.3725612688304
 20
255.01716437852
 30
0.0
 10
150.3360432566868
 20
255.01716437852
 30
0.0
 10
150.3360432566868
 20
255.01716437852
 30
0.0
 10
150.1479410431922
 20
255.01716437852
 30
0.0
 10
150.1479410431922
 20
255.01716437852
 30
0.0
 10
149.880773888311
 20
255.01716437852
 30
0.0
 10
149.8139390358972
 20
254.9415445326188
 30
0.0
 10
149.8139390358972
 20
254.6597357219253
 30
0.0
 10
149.8139390358972
 20
254.6597357219253
 30
0.0
 10
149.8139390358972
 20
254.4947156481819
 30
0.0
 10
149.8139390358972
 20
254.4947156481819
 30
0.0
 10
149.8139390358972
 20
254.4671548842999
 30
0.0
 10
149.8261691248698
 20
254.4535467571332
 30
0.0
 10
149.8502847932666
 20
254.4535467571332
 30
0.0
 10
149.8502847932666
 20
254.4535467571332
 30
0.0
 10
150.3301865943619
 20
254.4535467571332
 30
0.0
 10
150.3301865943619
 20
254.4535467571332
 30
0.0
 10
150.366360096957
 20
254.4535467571332
 30
0.0
 10
150.3908202749023
 20
254.4259859932512
 30
0.0
 10
150.3908202749023
 20
254.3848171022024
 30
0.0
 10
150.3908202749023
 20
254.3848171022024
 30
0.0
 10
150.3908202749023
 20
253.8141370350708
 30
0.0
 10
150.3908202749023
 20
253.8141370350708
 30
0.0
 10
150.3908202749023
 20
253.7729681440221
 30
0.0
 10
150.366360096957
 20
253.74540738014
 30
0.0
 10
150.3301865943619
 20
253.74540738014
 30
0.0
 10
150.3301865943619
 20
253.74540738014
 30
0.0
 10
149.8502847932666
 20
253.74540738014
 30
0.0
 10
149.8502847932666
 20
253.74540738014
 30
0.0
 10
149.8261691248698
 20
253.74540738014
 30
0.0
 10
149.8139390358972
 20
253.7316269981991
 30
0.0
 10
149.8139390358972
 20
253.7042384890913
 30
0.0
 10
149.8139390358972
 20
253.7042384890913
 30
0.0
 10
149.8139390358972
 20
251.1953477019581
 30
0.0
 10
149.8139390358972
 20
251.1953477019581
 30
0.0
 10
149.8139390358972
 20
251.1540065561352
 30
0.0
 10
149.7896511127262
 20
251.1264457922531
 30
0.0
 10
149.7531331005825
 20
251.1264457922531
 30
0.0
 10
149.7531331005825
 20
251.1264457922531
 30
0.0
 10
149.0306965773257
 20
251.1264457922531
 30
0.0
 10
149.0306965773257
 20
251.1264457922531
 30
0.0
  0
HATCH
  5
AA
330
9A
100
AcDbEntity
  8
Ebene 1
 62
   250
420
  1907995
440
 33554687
100
AcDbHatch
 10
0.0
 20
0.0
 30
0.0
210
0.0
220
0.0
230
1.0
  2
SOLID
 70
     1
 71
     1
 91
        2
 92
        1
 93
        1
 72
     4
 94
        3
 73
     0
 74
     0
 95
       89
 96
       85
 40
0.0
 40
0.0
 40
0.0
 40
0.0
 40
1.0
 40
1.0
 40
1.0
 40
2.0
 40
2.0
 40
2.0
 40
3.0
 40
3.0
 40
3.0
 40
4.0
 40
4.0
 40
4.0
 40
5.0
 40
5.0
 40
5.0
 40
6.0
 40
6.0
 40
6.0
 40
7.0
 40
7.0
 40
7.0
 40
8.0
 40
8.0
 40
8.0
 40
9.0
 40
9.0
 40
9.0
 40
10.0
 40
10.0
 40
10.0
 40
11.0
 40
11.0
 40
11.0
 40
12.0
 40
12.0
 40
12.0
 40
13.0
 40
13.0
 40
13.0
 40
14.0
 40
14.0
 40
14.0
 40
15.0
 40
15.0
 40
15.0
 40
16.0
 40
16.0
 40
16.0
 40
17.0
 40
17.0
 40
17.0
 40
18.0
 40
18.0
 40
18.0
 40
19.0
 40
19.0
 40
19.0
 40
20.0
 40
20.0
 40
20.0
 40
21.0
 40
21.0
 40
21.0
 40
22.0
 40
22.0
 40
22.0
 40
23.0
 40
23.0
 40
23.0
 40
24.0
 40
24.0
 40
24.0
 40
25.0
 40
25.0
 40
25.0
 40
26.0
 40
26.0
 40
26.0
 40
27.0
 40
27.0
 40
27.0
 40
28.0
 40
28.0
 40
28.0
 40
28.0
 10
151.0891411297624
 20
251.1264457922531
 10
151.0526231176188
 20
251.1264457922531
 10
151.0281629396735
 20
251.1540065561352
 10
151.0281629396735
 20
251.1953477019581
 10
151.0281629396735
 20
251.1953477019581
 10
151.0281629396735
 20
253.7042384890913
 10
151.0281629396735
 20
253.7042384890913
 10
151.0281629396735
 20
253.7316269981991
 10
151.0161051054751
 20
253.74540738014
 10
150.9919894370784
 20
253.74540738014
 10
150.9919894370784
 20
253.74540738014
 10
150.8097438859087
 20
253.74540738014
 10
150.8097438859087
 20
253.74540738014
 10
150.773225873765
 20
253.74540738014
 10
150.7491102053682
 20
253.7729681440221
 10
150.7491102053682
 20
253.8141370350708
 10
150.7491102053682
 20
253.8141370350708
 10
150.7491102053682
 20
254.3848171022024
 10
150.7491102053682
 20
254.3848171022024
 10
150.7491102053682
 20
254.4259859932512
 10
150.773225873765
 20
254.4535467571332
 10
150.8097438859087
 20
254.4535467571332
 10
150.8097438859087
 20
254.4535467571332
 10
150.9919894370784
 20
254.4535467571332
 10
150.9919894370784
 20
254.4535467571332
 10
151.0161051054751
 20
254.4535467571332
 10
151.0281629396735
 20
254.4671548842999
 10
151.0281629396735
 20
254.4947156481819
 10
151.0281629396735
 20
254.4947156481819
 10
151.0281629396735
 20
254.6528455309549
 10
151.0281629396735
 20
254.6528455309549
 10
151.0281629396735
 20
255.4639932629569
 10
151.3623372017427
 20
255.8007513466401
 10
152.0606580566029
 20
255.8007513466401
 10
152.0606580566029
 20
255.8007513466401
 10
152.3944878091236
 20
255.8007513466401
 10
152.3944878091236
 20
255.8007513466401
 10
152.4310058212672
 20
255.8007513466401
 10
152.455121489664
 20
255.7733628375324
 10
152.455121489664
 20
255.7320216917094
 10
152.455121489664
 20
255.7320216917094
 10
152.455121489664
 20
255.0858940334507
 10
152.455121489664
 20
255.0858940334507
 10
152.455121489664
 20
255.044725142402
 10
152.4310058212672
 20
255.01716437852
 10
152.3944878091236
 20
255.01716437852
 10
152.3944878091236
 20
255.01716437852
 10
152.206385595629
 20
255.01716437852
 10
152.206385595629
 20
255.01716437852
 10
151.9390461859735
 20
255.01716437852
 10
151.8722113335597
 20
254.9415445326188
 10
151.8722113335597
 20
254.6597357219253
 10
151.8722113335597
 20
254.6597357219253
 10
151.8722113335597
 20
254.4947156481819
 10
151.8722113335597
 20
254.4947156481819
 10
151.8722113335597
 20
254.4671548842999
 10
151.8846136773066
 20
254.4535467571332
 10
151.9087293457034
 20
254.4535467571332
 10
151.9087293457034
 20
254.4535467571332
 10
152.3882866372501
 20
254.4535467571332
 10
152.3882866372501
 20
254.4535467571332
 10
152.4248046493938
 20
254.4535467571332
 10
152.4492648273391
 20
254.4259859932512
 10
152.4492648273391
 20
254.3848171022024
 10
152.4492648273391
 20
254.3848171022024
 10
152.4492648273391
 20
253.8141370350708
 10
152.4492648273391
 20
253.8141370350708
 10
152.4492648273391
 20
253.7729681440221
 10
152.4248046493938
 20
253.74540738014
 10
152.3882866372501
 20
253.74540738014
 10
152.3882866372501
 20
253.74540738014
 10
151.9087293457034
 20
253.74540738014
 10
151.9087293457034
 20
253.74540738014
 10
151.8846136773066
 20
253.74540738014
 10
151.8722113335597
 20
253.7316269981991
 10
151.8722113335597
 20
253.7042384890913
 10
151.8722113335597
 20
253.7042384890913
 10
151.8722113335597
 20
251.1953477019581
 10
151.8722113335597
 20
251.1953477019581
 10
151.8722113335597
 20
251.1540065561352
 10
151.848095665163
 20
251.1264457922531
 10
151.8115776530193
 20
251.1264457922531
 10
151.8115776530193
 20
251.1264457922531
 10
151.0891411297624
 20
251.1264457922531
 10
151.0891411297624
 20
251.1264457922531
 97
        0
 97
        1
330
A8
 92
        1
 93
        1
 72
     4
 94
        3
 73
     0
 74
     0
 95
       89
 96
       85
 40
0.0
 40
0.0
 40
0.0
 40
0.0
 40
1.0
 40
1.0
 40
1.0
 40
2.0
 40
2.0
 40
2.0
 40
3.0
 40
3.0
 40
3.0
 40
4.0
 40
4.0
 40
4.0
 40
5.0
 40
5.0
 40
5.0
 40
6.0
 40
6.0
 40
6.0
 40
7.0
 40
7.0
 40
7.0
 40
8.0
 40
8.0
 40
8.0
 40
9.0
 40
9.0
 40
9.0
 40
10.0
 40
10.0
 40
10.0
 40
11.0
 40
11.0
 40
11.0
 40
12.0
 40
12.0
 40
12.0
 40
13.0
 40
13.0
 40
13.0
 40
14.0
 40
14.0
 40
14.0
 40
15.0
 40
15.0
 40
15.0
 40
16.0
 40
16.0
 40
16.0
 40
17.0
 40
17.0
 40
17.0
 40
18.0
 40
18.0
 40
18.0
 40
19.0
 40
19.0
 40
19.0
 40
20.0
 40
20.0
 40
20.0
 40
21.0
 40
21.0
 40
21.0
 40
22.0
 40
22.0
 40
22.0
 40
23.0
 40
23.0
 40
23.0
 40
24.0
 40
24.0
 40
24.0
 40
25.0
 40
25.0
 40
25.0
 40
26.0
 40
26.0
 40
26.0
 40
27.0
 40
27.0
 40
27.0
 40
28.0
 40
28.0
 40
28.0
 40
28.0
 10
149.0306965773257
 20
251.1264457922531
 10
148.994178565182
 20
251.1264457922531
 10
148.969890642011
 20
251.1540065561352
 10
148.969890642011
 20
251.1953477019581
 10
148.969890642011
 20
251.1953477019581
 10
148.969890642011
 20
253.7042384890913
 10
148.969890642011
 20
253.7042384890913
 10
148.969890642011
 20
253.7316269981991
 10
148.9578328078126
 20
253.74540738014
 10
148.9335448846416
 20
253.74540738014
 10
148.9335448846416
 20
253.74540738014
 10
148.7512993334719
 20
253.74540738014
 10
148.7512993334719
 20
253.74540738014
 10
148.7149535761025
 20
253.74540738014
 10
148.6906656529315
 20
253.7729681440221
 10
148.6906656529315
 20
253.8141370350708
 10
148.6906656529315
 20
253.8141370350708
 10
148.6906656529315
 20
254.3848171022024
 10
148.6906656529315
 20
254.3848171022024
 10
148.6906656529315
 20
254.4259859932512
 10
148.7149535761025
 20
254.4535467571332
 10
148.7512993334719
 20
254.4535467571332
 10
148.7512993334719
 20
254.4535467571332
 10
148.9335448846416
 20
254.4535467571332
 10
148.9335448846416
 20
254.4535467571332
 10
148.9578328078126
 20
254.4535467571332
 10
148.969890642011
 20
254.4671548842999
 10
148.969890642011
 20
254.4947156481819
 10
148.969890642011
 20
254.4947156481819
 10
148.969890642011
 20
254.6528455309549
 10
148.969890642011
 20
254.6528455309549
 10
148.969890642011
 20
255.4639932629569
 10
149.3038926493059
 20
255.8007513466401
 10
150.0022135041661
 20
255.8007513466401
 10
150.0022135041661
 20
255.8007513466401
 10
150.3360432566868
 20
255.8007513466401
 10
150.3360432566868
 20
255.8007513466401
 10
150.3725612688304
 20
255.8007513466401
 10
150.3970214467757
 20
255.7733628375324
 10
150.3970214467757
 20
255.7320216917094
 10
150.3970214467757
 20
255.7320216917094
 10
150.3970214467757
 20
255.0858940334507
 10
150.3970214467757
 20
255.0858940334507
 10
150.3970214467757
 20
255.044725142402
 10
150.3725612688304
 20
255.01716437852
 10
150.3360432566868
 20
255.01716437852
 10
150.3360432566868
 20
255.01716437852
 10
150.1479410431922
 20
255.01716437852
 10
150.1479410431922
 20
255.01716437852
 10
149.880773888311
 20
255.01716437852
 10
149.8139390358972
 20
254.9415445326188
 10
149.8139390358972
 20
254.6597357219253
 10
149.8139390358972
 20
254.6597357219253
 10
149.8139390358972
 20
254.4947156481819
 10
149.8139390358972
 20
254.4947156481819
 10
149.8139390358972
 20
254.4671548842999
 10
149.8261691248698
 20
254.4535467571332
 10
149.8502847932666
 20
254.4535467571332
 10
149.8502847932666
 20
254.4535467571332
 10
150.3301865943619
 20
254.4535467571332
 10
150.3301865943619
 20
254.4535467571332
 10
150.366360096957
 20
254.4535467571332
 10
150.3908202749023
 20
254.4259859932512
 10
150.3908202749023
 20
254.3848171022024
 10
150.3908202749023
 20
254.3848171022024
 10
150.3908202749023
 20
253.8141370350708
 10
150.3908202749023
 20
253.8141370350708
 10
150.3908202749023
 20
253.7729681440221
 10
150.366360096957
 20
253.74540738014
 10
150.3301865943619
 20
253.74540738014
 10
150.3301865943619
 20
253.74540738014
 10
149.8502847932666
 20
253.74540738014
 10
149.8502847932666
 20
253.74540738014
 10
149.8261691248698
 20
253.74540738014
 10
149.8139390358972
 20
253.7316269981991
 10
149.8139390358972
 20
253.7042384890913
 10
149.8139390358972
 20
253.7042384890913
 10
149.8139390358972
 20
251.1953477019581
 10
149.8139390358972
 20
251.1953477019581
 10
149.8139390358972
 20
251.1540065561352
 10
149.7896511127262
 20
251.1264457922531
 10
149.7531331005825
 20
251.1264457922531
 10
149.7531331005825
 20
251.1264457922531
 10
149.0306965773257
 20
251.1264457922531
 10
149.0306965773257
 20
251.1264457922531
 97
        0
 97
        1
330
A9
 75
     2
 76
     1
 98
        1
 10
0.0
 20
0.0
450
        0
451
        0
460
0.0
461
0.0
452
        0
462
0.0
453
        0
470

  0
ENDBLK
  5
9D
330
9A
100
AcDbEntity
  8
0
100
AcDbBlockEnd
  0
BLOCK
  5
AD
330
AB
100
AcDbEntity
  8
0
100
AcDbBlockBegin
  2
Block_5
 70
     0
 10
0.0
 20
0.0
 30
0.0
  3
Block_5
  1

  0
INSERT
  5
B0
330
AB
100
AcDbEntity
  8
Ebene 1
100
AcDbBlockReference
  2
Block_6
 10
0.0
 20
0.0
 30
0.0
  0
ENDBLK
  5
AE
330
AB
100
AcDbEntity
  8
0
100
AcDbBlockEnd
  0
BLOCK
  5
B1
330
AF
100
AcDbEntity
  8
0
100
AcDbBlockBegin
  2
Block_6
 70
     0
 10
0.0
 20
0.0
 30
0.0
  3
Block_6
  1

  0
ENDBLK
  5
B2
330
AF
100
AcDbEntity
  8
0
100
AcDbBlockEnd
  0
BLOCK
  5
B5
330
B3
100
AcDbEntity
  8
0
100
AcDbBlockBegin
  2
Block_7
 70
     0
 10
0.0
 20
0.0
 30
0.0
  3
Block_7
  1

  0
INSERT
  5
B8
330
B3
100
AcDbEntity
  8
Ebene 1
100
AcDbBlockReference
  2
Block_8
 10
0.0
 20
0.0
 30
0.0
  0
ENDBLK
  5
B6
330
B3
100
AcDbEntity
  8
0
100
AcDbBlockEnd
  0
BLOCK
  5
B9
330
B7
100
AcDbEntity
  8
0
100
AcDbBlockBegin
  2
Block_8
 70
     0
 10
0.0
 20
0.0
 30
0.0
  3
Block_8
  1

  0
SPLINE
  5
BB
330
B7
100
AcDbEntity
  8
Ebene 1
100
AcDbSpline
210
0.0
220
0.0
230
1.0
 70
     9
 71
     3
 72
    59
 73
    55
 74
     0
 42
0.0000000001
 43
0.0000000001
 40
0.0
 40
0.0
 40
0.0
 40
0.0
 40
1.0
 40
1.0
 40
1.0
 40
2.0
 40
2.0
 40
2.0
 40
3.0
 40
3.0
 40
3.0
 40
4.0
 40
4.0
 40
4.0
 40
5.0
 40
5.0
 40
5.0
 40
6.0
 40
6.0
 40
6.0
 40
7.0
 40
7.0
 40
7.0
 40
8.0
 40
8.0
 40
8.0
 40
9.0
 40
9.0
 40
9.0
 40
10.0
 40
10.0
 40
10.0
 40
11.0
 40
11.0
 40
11.0
 40
12.0
 40
12.0
 40
12.0
 40
13.0
 40
13.0
 40
13.0
 40
14.0
 40
14.0
 40
14.0
 40
15.0
 40
15.0
 40
15.0
 40
16.0
 40
16.0
 40
16.0
 40
17.0
 40
17.0
 40
17.0
 40
18.0
 40
18.0
 40
18.0
 40
18.0
 10
114.9592189925275
 20
247.6679144346108
 30
0.0
 10
114.9592189925275
 20
248.1853677764953
 30
0.0
 10
114.9793728011162
 20
248.3641682321798
 30
0.0
 10
115.0320827620406
 20
248.5429686878643
 30
0.0
 10
115.1697143266763
 20
249.0328612658668
 30
0.0
 10
115.4975151620978
 20
249.2757404975769
 30
0.0
 10
115.9469278681487
 20
249.2757404975769
 30
0.0
 10
116.3556884474736
 20
249.2757404975769
 30
0.0
 10
116.671603703471
 20
249.0466416478078
 30
0.0
 10
116.8293890766954
 20
248.6480441001644
 30
0.0
 10
116.8374850510857
 20
248.6253064699617
 30
0.0
 10
116.8335231912777
 20
248.6022243302106
 30
0.0
 10
116.8131971279147
 20
248.5887884578181
 30
0.0
 10
116.8131971279147
 20
248.5887884578181
 30
0.0
 10
116.5703178962046
 20
248.4558077720874
 30
0.0
 10
116.5703178962046
 20
248.4558077720874
 30
0.0
 10
116.5460299730336
 20
248.4420273901465
 30
0.0
 10
116.5217420498626
 20
248.4558077720874
 30
0.0
 10
116.5136460754723
 20
248.4785454022901
 30
0.0
 10
116.4042642938156
 20
248.7214246340002
 30
0.0
 10
116.2344210863928
 20
248.8957464655539
 30
0.0
 10
115.9469278681487
 20
248.8957464655539
 30
0.0
 10
115.6473768157062
 20
248.8957464655539
 30
0.0
 10
115.4651312645365
 20
248.7307263918104
 30
0.0
 10
115.376247801017
 20
248.4375487660156
 30
0.0
 10
115.3397297888734
 20
248.3093912139643
 30
0.0
 10
115.3235378400927
 20
248.1581515221618
 30
0.0
 10
115.3235378400927
 20
247.6679144346108
 30
0.0
 10
115.3235378400927
 20
247.1776773470597
 30
0.0
 10
115.3397297888734
 20
247.0264376552573
 30
0.0
 10
115.376247801017
 20
246.898280103206
 30
0.0
 10
115.4651312645365
 20
246.6051024774112
 30
0.0
 10
115.6473768157062
 20
246.4400824036677
 30
0.0
 10
115.9469278681487
 20
246.4400824036677
 30
0.0
 10
116.2344210863928
 20
246.4400824036677
 30
0.0
 10
116.4042642938156
 20
246.6144042352214
 30
0.0
 10
116.5136460754723
 20
246.856938957383
 30
0.0
 10
116.5217420498626
 20
246.8800210971342
 30
0.0
 10
116.5460299730336
 20
246.8938014790752
 30
0.0
 10
116.5703178962046
 20
246.8800210971342
 30
0.0
 10
116.5703178962046
 20
246.8800210971342
 30
0.0
 10
116.8131971279147
 20
246.7470404114035
 30
0.0
 10
116.8131971279147
 20
246.7470404114035
 30
0.0
 10
116.8335231912777
 20
246.7332600294625
 30
0.0
 10
116.8374850510857
 20
246.7105223992599
 30
0.0
 10
116.8293890766954
 20
246.6874402595087
 30
0.0
 10
116.671603703471
 20
246.2891872214138
 30
0.0
 10
116.3556884474736
 20
246.0600883716447
 30
0.0
 10
115.9469278681487
 20
246.0600883716447
 30
0.0
 10
115.4975151620978
 20
246.0600883716447
 30
0.0
 10
115.1697143266763
 20
246.3026230938063
 30
0.0
 10
115.0320827620406
 20
246.7928601813574
 30
0.0
 10
114.9793728011162
 20
246.9716606370418
 30
0.0
 10
114.9592189925275
 20
247.1501165831778
 30
0.0
 10
114.9592189925275
 20
247.6679144346108
 30
0.0
  0
HATCH
  5
BC
330
B7
100
AcDbEntity
  8
Ebene 1
 62
   250
420
  1907995
440
 33554687
100
AcDbHatch
 10
0.0
 20
0.0
 30
0.0
210
0.0
220
0.0
230
1.0
  2
SOLID
 70
     1
 71
     1
 91
        1
 92
        1
 93
        1
 72
     4
 94
        3
 73
     0
 74
     0
 95
       59
 96
       55
 40
0.0
 40
0.0
 40
0.0
 40
0.0
 40
1.0
 40
1.0
 40
1.0
 40
2.0
 40
2.0
 40
2.0
 40
3.0
 40
3.0
 40
3.0
 40
4.0
 40
4.0
 40
4.0
 40
5.0
 40
5.0
 40
5.0
 40
6.0
 40
6.0
 40
6.0
 40
7.0
 40
7.0
 40
7.0
 40
8.0
 40
8.0
 40
8.0
 40
9.0
 40
9.0
 40
9.0
 40
10.0
 40
10.0
 40
10.0
 40
11.0
 40
11.0
 40
11.0
 40
12.0
 40
12.0
 40
12.0
 40
13.0
 40
13.0
 40
13.0
 40
14.0
 40
14.0
 40
14.0
 40
15.0
 40
15.0
 40
15.0
 40
16.0
 40
16.0
 40
16.0
 40
17.0
 40
17.0
 40
17.0
 40
18.0
 40
18.0
 40
18.0
 40
18.0
 10
114.9592189925275
 20
247.6679144346108
 10
114.9592189925275
 20
248.1853677764953
 10
114.9793728011162
 20
248.3641682321798
 10
115.0320827620406
 20
248.5429686878643
 10
115.1697143266763
 20
249.0328612658668
 10
115.4975151620978
 20
249.2757404975769
 10
115.9469278681487
 20
249.2757404975769
 10
116.3556884474736
 20
249.2757404975769
 10
116.671603703471
 20
249.0466416478078
 10
116.8293890766954
 20
248.6480441001644
 10
116.8374850510857
 20
248.6253064699617
 10
116.8335231912777
 20
248.6022243302106
 10
116.8131971279147
 20
248.5887884578181
 10
116.8131971279147
 20
248.5887884578181
 10
116.5703178962046
 20
248.4558077720874
 10
116.5703178962046
 20
248.4558077720874
 10
116.5460299730336
 20
248.4420273901465
 10
116.5217420498626
 20
248.4558077720874
 10
116.5136460754723
 20
248.4785454022901
 10
116.4042642938156
 20
248.7214246340002
 10
116.2344210863928
 20
248.8957464655539
 10
115.9469278681487
 20
248.8957464655539
 10
115.6473768157062
 20
248.8957464655539
 10
115.4651312645365
 20
248.7307263918104
 10
115.376247801017
 20
248.4375487660156
 10
115.3397297888734
 20
248.3093912139643
 10
115.3235378400927
 20
248.1581515221618
 10
115.3235378400927
 20
247.6679144346108
 10
115.3235378400927
 20
247.1776773470597
 10
115.3397297888734
 20
247.0264376552573
 10
115.376247801017
 20
246.898280103206
 10
115.4651312645365
 20
246.6051024774112
 10
115.6473768157062
 20
246.4400824036677
 10
115.9469278681487
 20
246.4400824036677
 10
116.2344210863928
 20
246.4400824036677
 10
116.4042642938156
 20
246.6144042352214
 10
116.5136460754723
 20
246.856938957383
 10
116.5217420498626
 20
246.8800210971342
 10
116.5460299730336
 20
246.8938014790752
 10
116.5703178962046
 20
246.8800210971342
 10
116.5703178962046
 20
246.8800210971342
 10
116.8131971279147
 20
246.7470404114035
 10
116.8131971279147
 20
246.7470404114035
 10
116.8335231912777
 20
246.7332600294625
 10
116.8374850510857
 20
246.7105223992599
 10
116.8293890766954
 20
246.6874402595087
 10
116.671603703471
 20
246.2891872214138
 10
116.3556884474736
 20
246.0600883716447
 10
115.9469278681487
 20
246.0600883716447
 10
115.4975151620978
 20
246.0600883716447
 10
115.1697143266763
 20
246.3026230938063
 10
115.0320827620406
 20
246.7928601813574
 10
114.9793728011162
 20
246.9716606370418
 10
114.9592189925275
 20
247.1501165831778
 10
114.9592189925275
 20
247.6679144346108
 97
        0
 97
        1
330
BB
 75
     2
 76
     1
 98
        1
 10
0.0
 20
0.0
450
        0
451
        0
460
0.0
461
0.0
452
        0
462
0.0
453
        0
470

  0
SPLINE
  5
BD
330
B7
100
AcDbEntity
  8
Ebene 1
100
AcDbSpline
210
0.0
220
0.0
230
1.0
 70
     9
 71
     3
 72
    77
 73
    73
 74
     0
 42
0.0000000001
 43
0.0000000001
 40
0.0
 40
0.0
 40
0.0
 40
0.0
 40
1.0
 40
1.0
 40
1.0
 40
2.0
 40
2.0
 40
2.0
 40
3.0
 40
3.0
 40
3.0
 40
4.0
 40
4.0
 40
4.0
 40
5.0
 40
5.0
 40
5.0
 40
6.0
 40
6.0
 40
6.0
 40
7.0
 40
7.0
 40
7.0
 40
8.0
 40
8.0
 40
8.0
 40
9.0
 40
9.0
 40
9.0
 40
10.0
 40
10.0
 40
10.0
 40
11.0
 40
11.0
 40
11.0
 40
12.0
 40
12.0
 40
12.0
 40
13.0
 40
13.0
 40
13.0
 40
14.0
 40
14.0
 40
14.0
 40
15.0
 40
15.0
 40
15.0
 40
16.0
 40
16.0
 40
16.0
 40
17.0
 40
17.0
 40
17.0
 40
18.0
 40
18.0
 40
18.0
 40
19.0
 40
19.0
 40
19.0
 40
20.0
 40
20.0
 40
20.0
 40
21.0
 40
21.0
 40
21.0
 40
22.0
 40
22.0
 40
22.0
 40
23.0
 40
23.0
 40
23.0
 40
24.0
 40
24.0
 40
24.0
 40
24.0
 10
117.3473591829027
 20
249.1796223335384
 30
0.0
 10
117.3473591829027
 20
249.2071830974204
 30
0.0
 10
117.3635511316834
 20
249.2254421034923
 30
0.0
 10
117.3878390548544
 20
249.2254421034923
 30
0.0
 10
117.3878390548544
 20
249.2254421034923
 30
0.0
 10
119.0435519450655
 20
249.2254421034923
 30
0.0
 10
119.0435519450655
 20
249.2254421034923
 30
0.0
 10
119.0676676134622
 20
249.2254421034923
 30
0.0
 10
119.0838595622429
 20
249.2071830974204
 30
0.0
 10
119.0838595622429
 20
249.1796223335384
 30
0.0
 10
119.0838595622429
 20
249.1796223335384
 30
0.0
 10
119.0838595622429
 20
248.8909233318745
 30
0.0
 10
119.0838595622429
 20
248.8909233318745
 30
0.0
 10
119.0838595622429
 20
248.8633625679925
 30
0.0
 10
119.0676676134622
 20
248.8451035619207
 30
0.0
 10
119.0435519450655
 20
248.8451035619207
 30
0.0
 10
119.0435519450655
 20
248.8451035619207
 30
0.0
 10
117.7320040938309
 20
248.8451035619207
 30
0.0
 10
117.7320040938309
 20
248.8451035619207
 30
0.0
 10
117.7158121450502
 20
248.8451035619207
 30
0.0
 10
117.7075439158856
 20
248.8361463136591
 30
0.0
 10
117.7075439158856
 20
248.8175427980387
 30
0.0
 10
117.7075439158856
 20
248.8175427980387
 30
0.0
 10
117.7075439158856
 20
247.9014919085108
 30
0.0
 10
117.7075439158856
 20
247.9014919085108
 30
0.0
 10
117.7075439158856
 20
247.8832329024389
 30
0.0
 10
117.7158121450502
 20
247.8739311446287
 30
0.0
 10
117.7320040938309
 20
247.8739311446287
 30
0.0
 10
117.7320040938309
 20
247.8739311446287
 30
0.0
 10
118.8451144451151
 20
247.8739311446287
 30
0.0
 10
118.8451144451151
 20
247.8739311446287
 30
0.0
 10
118.8694023682861
 20
247.8739311446287
 30
0.0
 10
118.8855943170668
 20
247.8556721385569
 30
0.0
 10
118.8855943170668
 20
247.8281113746749
 30
0.0
 10
118.8855943170668
 20
247.8281113746749
 30
0.0
 10
118.8855943170668
 20
247.5397568825595
 30
0.0
 10
118.8855943170668
 20
247.5397568825595
 30
0.0
 10
118.8855943170668
 20
247.5121961186775
 30
0.0
 10
118.8694023682861
 20
247.4939371126057
 30
0.0
 10
118.8451144451151
 20
247.4939371126057
 30
0.0
 10
118.8451144451151
 20
247.4939371126057
 30
0.0
 10
117.7320040938309
 20
247.4939371126057
 30
0.0
 10
117.7320040938309
 20
247.4939371126057
 30
0.0
 10
117.7158121450502
 20
247.4939371126057
 30
0.0
 10
117.7075439158856
 20
247.4846353547955
 30
0.0
 10
117.7075439158856
 20
247.4663763487237
 30
0.0
 10
117.7075439158856
 20
247.4663763487237
 30
0.0
 10
117.7075439158856
 20
246.5179415616344
 30
0.0
 10
117.7075439158856
 20
246.5179415616344
 30
0.0
 10
117.7075439158856
 20
246.4996825555626
 30
0.0
 10
117.7158121450502
 20
246.4907253073009
 30
0.0
 10
117.7320040938309
 20
246.4907253073009
 30
0.0
 10
117.7320040938309
 20
246.4907253073009
 30
0.0
 10
119.0435519450655
 20
246.4907253073009
 30
0.0
 10
119.0435519450655
 20
246.4907253073009
 30
0.0
 10
119.0676676134622
 20
246.4907253073009
 30
0.0
 10
119.0838595622429
 20
246.4721217916806
 30
0.0
 10
119.0838595622429
 20
246.4449055373471
 30
0.0
 10
119.0838595622429
 20
246.4449055373471
 30
0.0
 10
119.0838595622429
 20
246.1562065356832
 30
0.0
 10
119.0838595622429
 20
246.1562065356832
 30
0.0
 10
119.0838595622429
 20
246.1286457718012
 30
0.0
 10
119.0676676134622
 20
246.1103867657294
 30
0.0
 10
119.0435519450655
 20
246.1103867657294
 30
0.0
 10
119.0435519450655
 20
246.1103867657294
 30
0.0
 10
117.3878390548544
 20
246.1103867657294
 30
0.0
 10
117.3878390548544
 20
246.1103867657294
 30
0.0
 10
117.3635511316834
 20
246.1103867657294
 30
0.0
 10
117.3473591829027
 20
246.1286457718012
 30
0.0
 10
117.3473591829027
 20
246.1562065356832
 30
0.0
 10
117.3473591829027
 20
246.1562065356832
 30
0.0
 10
117.3473591829027
 20
249.1796223335384
 30
0.0
 10
117.3473591829027
 20
249.1796223335384
 30
0.0
  0
HATCH
  5
BE
330
B7
100
AcDbEntity
  8
Ebene 1
 62
   250
420
  1907995
440
 33554687
100
AcDbHatch
 10
0.0
 20
0.0
 30
0.0
210
0.0
220
0.0
230
1.0
  2
SOLID
 70
     1
 71
     1
 91
        1
 92
        1
 93
        1
 72
     4
 94
        3
 73
     0
 74
     0
 95
       77
 96
       73
 40
0.0
 40
0.0
 40
0.0
 40
0.0
 40
1.0
 40
1.0
 40
1.0
 40
2.0
 40
2.0
 40
2.0
 40
3.0
 40
3.0
 40
3.0
 40
4.0
 40
4.0
 40
4.0
 40
5.0
 40
5.0
 40
5.0
 40
6.0
 40
6.0
 40
6.0
 40
7.0
 40
7.0
 40
7.0
 40
8.0
 40
8.0
 40
8.0
 40
9.0
 40
9.0
 40
9.0
 40
10.0
 40
10.0
 40
10.0
 40
11.0
 40
11.0
 40
11.0
 40
12.0
 40
12.0
 40
12.0
 40
13.0
 40
13.0
 40
13.0
 40
14.0
 40
14.0
 40
14.0
 40
15.0
 40
15.0
 40
15.0
 40
16.0
 40
16.0
 40
16.0
 40
17.0
 40
17.0
 40
17.0
 40
18.0
 40
18.0
 40
18.0
 40
19.0
 40
19.0
 40
19.0
 40
20.0
 40
20.0
 40
20.0
 40
21.0
 40
21.0
 40
21.0
 40
22.0
 40
22.0
 40
22.0
 40
23.0
 40
23.0
 40
23.0
 40
24.0
 40
24.0
 40
24.0
 40
24.0
 10
117.3473591829027
 20
249.1796223335384
 10
117.3473591829027
 20
249.2071830974204
 10
117.3635511316834
 20
249.2254421034923
 10
117.3878390548544
 20
249.2254421034923
 10
117.3878390548544
 20
249.2254421034923
 10
119.0435519450655
 20
249.2254421034923
 10
119.0435519450655
 20
249.2254421034923
 10
119.0676676134622
 20
249.2254421034923
 10
119.0838595622429
 20
249.2071830974204
 10
119.0838595622429
 20
249.1796223335384
 10
119.0838595622429
 20
249.1796223335384
 10
119.0838595622429
 20
248.8909233318745
 10
119.0838595622429
 20
248.8909233318745
 10
119.0838595622429
 20
248.8633625679925
 10
119.0676676134622
 20
248.8451035619207
 10
119.0435519450655
 20
248.8451035619207
 10
119.0435519450655
 20
248.8451035619207
 10
117.7320040938309
 20
248.8451035619207
 10
117.7320040938309
 20
248.8451035619207
 10
117.7158121450502
 20
248.8451035619207
 10
117.7075439158856
 20
248.8361463136591
 10
117.7075439158856
 20
248.8175427980387
 10
117.7075439158856
 20
248.8175427980387
 10
117.7075439158856
 20
247.9014919085108
 10
117.7075439158856
 20
247.9014919085108
 10
117.7075439158856
 20
247.8832329024389
 10
117.7158121450502
 20
247.8739311446287
 10
117.7320040938309
 20
247.8739311446287
 10
117.7320040938309
 20
247.8739311446287
 10
118.8451144451151
 20
247.8739311446287
 10
118.8451144451151
 20
247.8739311446287
 10
118.8694023682861
 20
247.8739311446287
 10
118.8855943170668
 20
247.8556721385569
 10
118.8855943170668
 20
247.8281113746749
 10
118.8855943170668
 20
247.8281113746749
 10
118.8855943170668
 20
247.5397568825595
 10
118.8855943170668
 20
247.5397568825595
 10
118.8855943170668
 20
247.5121961186775
 10
118.8694023682861
 20
247.4939371126057
 10
118.8451144451151
 20
247.4939371126057
 10
118.8451144451151
 20
247.4939371126057
 10
117.7320040938309
 20
247.4939371126057
 10
117.7320040938309
 20
247.4939371126057
 10
117.7158121450502
 20
247.4939371126057
 10
117.7075439158856
 20
247.4846353547955
 10
117.7075439158856
 20
247.4663763487237
 10
117.7075439158856
 20
247.4663763487237
 10
117.7075439158856
 20
246.5179415616344
 10
117.7075439158856
 20
246.5179415616344
 10
117.7075439158856
 20
246.4996825555626
 10
117.7158121450502
 20
246.4907253073009
 10
117.7320040938309
 20
246.4907253073009
 10
117.7320040938309
 20
246.4907253073009
 10
119.0435519450655
 20
246.4907253073009
 10
119.0435519450655
 20
246.4907253073009
 10
119.0676676134622
 20
246.4907253073009
 10
119.0838595622429
 20
246.4721217916806
 10
119.0838595622429
 20
246.4449055373471
 10
119.0838595622429
 20
246.4449055373471
 10
119.0838595622429
 20
246.1562065356832
 10
119.0838595622429
 20
246.1562065356832
 10
119.0838595622429
 20
246.1286457718012
 10
119.0676676134622
 20
246.1103867657294
 10
119.0435519450655
 20
246.1103867657294
 10
119.0435519450655
 20
246.1103867657294
 10
117.3878390548544
 20
246.1103867657294
 10
117.3878390548544
 20
246.1103867657294
 10
117.3635511316834
 20
246.1103867657294
 10
117.3473591829027
 20
246.1286457718012
 10
117.3473591829027
 20
246.1562065356832
 10
117.3473591829027
 20
246.1562065356832
 10
117.3473591829027
 20
249.1796223335384
 10
117.3473591829027
 20
249.1796223335384
 97
        0
 97
        1
330
BD
 75
     2
 76
     1
 98
        1
 10
0.0
 20
0.0
450
        0
451
        0
460
0.0
461
0.0
452
        0
462
0.0
453
        0
470

  0
SPLINE
  5
BF
330
B7
100
AcDbEntity
  8
Ebene 1
100
AcDbSpline
210
0.0
220
0.0
230
1.0
 70
     9
 71
     3
 72
    29
 73
    25
 74
     0
 42
0.0000000001
 43
0.0000000001
 40
0.0
 40
0.0
 40
0.0
 40
0.0
 40
1.0
 40
1.0
 40
1.0
 40
2.0
 40
2.0
 40
2.0
 40
3.0
 40
3.0
 40
3.0
 40
4.0
 40
4.0
 40
4.0
 40
5.0
 40
5.0
 40
5.0
 40
6.0
 40
6.0
 40
6.0
 40
7.0
 40
7.0
 40
7.0
 40
8.0
 40
8.0
 40
8.0
 40
8.0
 10
121.1238728538336
 20
246.9027587273368
 30
0.0
 10
121.1562567513949
 20
247.0174804069956
 30
0.0
 10
121.1846787891483
 20
247.2190184928828
 30
0.0
 10
121.1846787891483
 20
247.6679144346108
 30
0.0
 10
121.1846787891483
 20
248.1168103763389
 30
0.0
 10
121.1562567513949
 20
248.318348462226
 30
0.0
 10
121.1238728538336
 20
248.4330701418848
 30
0.0
 10
121.0389512501222
 20
248.7307263918104
 30
0.0
 10
120.8446478647541
 20
248.8957464655539
 30
0.0
 10
120.5370008379213
 20
248.8957464655539
 30
0.0
 10
120.2333156708965
 20
248.8957464655539
 30
0.0
 10
120.0390122855284
 20
248.7307263918104
 30
0.0
 10
119.954090681817
 20
248.4330701418848
 30
0.0
 10
119.9217067842557
 20
248.318348462226
 30
0.0
 10
119.8932847465024
 20
248.1168103763389
 30
0.0
 10
119.8932847465024
 20
247.6679144346108
 30
0.0
 10
119.8932847465024
 20
247.2190184928828
 30
0.0
 10
119.9217067842557
 20
247.0174804069956
 30
0.0
 10
119.954090681817
 20
246.9027587273368
 30
0.0
 10
120.0390122855284
 20
246.6051024774112
 30
0.0
 10
120.2333156708965
 20
246.4400824036677
 30
0.0
 10
120.5370008379213
 20
246.4400824036677
 30
0.0
 10
120.8446478647541
 20
246.4400824036677
 30
0.0
 10
121.0389512501222
 20
246.6051024774112
 30
0.0
 10
121.1238728538336
 20
246.9027587273368
 30
0.0
  0
SPLINE
  5
C0
330
B7
100
AcDbEntity
  8
Ebene 1
100
AcDbSpline
210
0.0
220
0.0
230
1.0
 70
     9
 71
     3
 72
    29
 73
    25
 74
     0
 42
0.0000000001
 43
0.0000000001
 40
0.0
 40
0.0
 40
0.0
 40
0.0
 40
1.0
 40
1.0
 40
1.0
 40
2.0
 40
2.0
 40
2.0
 40
3.0
 40
3.0
 40
3.0
 40
4.0
 40
4.0
 40
4.0
 40
5.0
 40
5.0
 40
5.0
 40
6.0
 40
6.0
 40
6.0
 40
7.0
 40
7.0
 40
7.0
 40
8.0
 40
8.0
 40
8.0
 40
8.0
 10
119.6018296684502
 20
246.7883815572265
 30
0.0
 10
119.5492919623002
 20
246.967182012911
 30
0.0
 10
119.5289658989372
 20
247.1549397168571
 30
0.0
 10
119.5289658989372
 20
247.6679144346108
 30
0.0
 10
119.5289658989372
 20
248.1808891523645
 30
0.0
 10
119.5492919623002
 20
248.3686468563106
 30
0.0
 10
119.6018296684502
 20
248.5474473119951
 30
0.0
 10
119.7435953476682
 20
249.028382641736
 30
0.0
 10
120.0753580428978
 20
249.2757404975769
 30
0.0
 10
120.5370008379213
 20
249.2757404975769
 30
0.0
 10
121.0024332379785
 20
249.2757404975769
 30
0.0
 10
121.3343681879824
 20
249.028382641736
 30
0.0
 10
121.4761338672004
 20
248.5474473119951
 30
0.0
 10
121.5286715733504
 20
248.3686468563106
 30
0.0
 10
121.5488253819392
 20
248.1808891523645
 30
0.0
 10
121.5488253819392
 20
247.6679144346108
 30
0.0
 10
121.5488253819392
 20
247.1549397168571
 30
0.0
 10
121.5286715733504
 20
246.967182012911
 30
0.0
 10
121.4761338672004
 20
246.7883815572265
 30
0.0
 10
121.3343681879824
 20
246.3074462274857
 30
0.0
 10
121.0024332379785
 20
246.0600883716447
 30
0.0
 10
120.5370008379213
 20
246.0600883716447
 30
0.0
 10
120.0753580428978
 20
246.0600883716447
 30
0.0
 10
119.7435953476682
 20
246.3074462274857
 30
0.0
 10
119.6018296684502
 20
246.7883815572265
 30
0.0
  0
HATCH
  5
C1
330
B7
100
AcDbEntity
  8
Ebene 1
 62
   250
420
  1907995
440
 33554687
100
AcDbHatch
 10
0.0
 20
0.0
 30
0.0
210
0.0
220
0.0
230
1.0
  2
SOLID
 70
     1
 71
     1
 91
        2
 92
        1
 93
        1
 72
     4
 94
        3
 73
     0
 74
     0
 95
       29
 96
       25
 40
0.0
 40
0.0
 40
0.0
 40
0.0
 40
1.0
 40
1.0
 40
1.0
 40
2.0
 40
2.0
 40
2.0
 40
3.0
 40
3.0
 40
3.0
 40
4.0
 40
4.0
 40
4.0
 40
5.0
 40
5.0
 40
5.0
 40
6.0
 40
6.0
 40
6.0
 40
7.0
 40
7.0
 40
7.0
 40
8.0
 40
8.0
 40
8.0
 40
8.0
 10
121.1238728538336
 20
246.9027587273368
 10
121.1562567513949
 20
247.0174804069956
 10
121.1846787891483
 20
247.2190184928828
 10
121.1846787891483
 20
247.6679144346108
 10
121.1846787891483
 20
248.1168103763389
 10
121.1562567513949
 20
248.318348462226
 10
121.1238728538336
 20
248.4330701418848
 10
121.0389512501222
 20
248.7307263918104
 10
120.8446478647541
 20
248.8957464655539
 10
120.5370008379213
 20
248.8957464655539
 10
120.2333156708965
 20
248.8957464655539
 10
120.0390122855284
 20
248.7307263918104
 10
119.954090681817
 20
248.4330701418848
 10
119.9217067842557
 20
248.318348462226
 10
119.8932847465024
 20
248.1168103763389
 10
119.8932847465024
 20
247.6679144346108
 10
119.8932847465024
 20
247.2190184928828
 10
119.9217067842557
 20
247.0174804069956
 10
119.954090681817
 20
246.9027587273368
 10
120.0390122855284
 20
246.6051024774112
 10
120.2333156708965
 20
246.4400824036677
 10
120.5370008379213
 20
246.4400824036677
 10
120.8446478647541
 20
246.4400824036677
 10
121.0389512501222
 20
246.6051024774112
 10
121.1238728538336
 20
246.9027587273368
 97
        0
 97
        1
330
BF
 92
        1
 93
        1
 72
     4
 94
        3
 73
     0
 74
     0
 95
       29
 96
       25
 40
0.0
 40
0.0
 40
0.0
 40
0.0
 40
1.0
 40
1.0
 40
1.0
 40
2.0
 40
2.0
 40
2.0
 40
3.0
 40
3.0
 40
3.0
 40
4.0
 40
4.0
 40
4.0
 40
5.0
 40
5.0
 40
5.0
 40
6.0
 40
6.0
 40
6.0
 40
7.0
 40
7.0
 40
7.0
 40
8.0
 40
8.0
 40
8.0
 40
8.0
 10
119.6018296684502
 20
246.7883815572265
 10
119.5492919623002
 20
246.967182012911
 10
119.5289658989372
 20
247.1549397168571
 10
119.5289658989372
 20
247.6679144346108
 10
119.5289658989372
 20
248.1808891523645
 10
119.5492919623002
 20
248.3686468563106
 10
119.6018296684502
 20
248.5474473119951
 10
119.7435953476682
 20
249.028382641736
 10
120.0753580428978
 20
249.2757404975769
 10
120.5370008379213
 20
249.2757404975769
 10
121.0024332379785
 20
249.2757404975769
 10
121.3343681879824
 20
249.028382641736
 10
121.4761338672004
 20
248.5474473119951
 10
121.5286715733504
 20
248.3686468563106
 10
121.5488253819392
 20
248.1808891523645
 10
121.5488253819392
 20
247.6679144346108
 10
121.5488253819392
 20
247.1549397168571
 10
121.5286715733504
 20
246.967182012911
 10
121.4761338672004
 20
246.7883815572265
 10
121.3343681879824
 20
246.3074462274857
 10
121.0024332379785
 20
246.0600883716447
 10
120.5370008379213
 20
246.0600883716447
 10
120.0753580428978
 20
246.0600883716447
 10
119.7435953476682
 20
246.3074462274857
 10
119.6018296684502
 20
246.7883815572265
 97
        0
 97
        1
330
C0
 75
     2
 76
     1
 98
        1
 10
0.0
 20
0.0
450
        0
451
        0
460
0.0
461
0.0
452
        0
462
0.0
453
        0
470

  0
ENDBLK
  5
BA
330
B7
100
AcDbEntity
  8
0
100
AcDbBlockEnd
  0
ENDSEC
  0
SECTION
  2
ENTITIES
  0
INSERT
  5
7A
330
70
100
AcDbEntity
  8
Ebene 1
100
AcDbBlockReference
  2
Block_0
 10
0.0
 20
0.0
 30
0.0
  0
ENDSEC
  0
SECTION
  2
OBJECTS
  0
DICTIONARY
  5
C
330
0
100
AcDbDictionary
281
     1
  3
ACAD_COLOR
350
63
  3
ACAD_DETAILVIEWSTYLE
350
6A
  3
ACAD_GROUP
350
D
  3
ACAD_LAYOUT
350
62
  3
ACAD_MATERIAL
350
10
  3
ACAD_MLEADERSTYLE
350
66
  3
ACAD_MLINESTYLE
350
5F
  3
ACAD_PLOTSETTINGS
350
61
  3
ACAD_PLOTSTYLENAME
350
E
  3
ACAD_SCALELIST
350
42
  3
ACAD_SECTIONVIEWSTYLE
350
68
  3
ACAD_TABLESTYLE
350
64
  3
ACAD_VISUALSTYLE
350
29
  3
ACDB_RECOMPOSE_DATA
350
CB
  3
AcDbVariableDictionary
350
C3
  0
DICTIONARY
  5
63
102
{ACAD_REACTORS
330
C
102
}
330
C
100
AcDbDictionary
281
     1
  0
DICTIONARY
  5
6A
102
{ACAD_REACTORS
330
C
102
}
330
C
100
AcDbDictionary
281
     1
  3
Imperial24
350
6B
  0
DICTIONARY
  5
D
102
{ACAD_REACTORS
330
C
102
}
330
C
100
AcDbDictionary
281
     1
  0
DICTIONARY
  5
62
102
{ACAD_REACTORS
330
C
102
}
330
C
100
AcDbDictionary
281
     1
  3
Layout1
350
6F
  3
Layout2
350
77
  3
Model
350
73
  0
DICTIONARY
  5
10
102
{ACAD_REACTORS
330
C
102
}
330
C
100
AcDbDictionary
281
     1
  3
ByBlock
350
19
  3
ByLayer
350
11
  3
Global
350
21
  0
DICTIONARY
  5
66
102
{ACAD_REACTORS
330
C
102
}
330
C
100
AcDbDictionary
281
     1
  3
Standard
350
67
  0
DICTIONARY
  5
5F
102
{ACAD_REACTORS
330
C
102
}
330
C
100
AcDbDictionary
281
     1
  3
Standard
350
60
  0
DICTIONARY
  5
61
102
{ACAD_REACTORS
330
C
102
}
330
C
100
AcDbDictionary
281
     1
  0
ACDBDICTIONARYWDFLT
  5
E
102
{ACAD_REACTORS
330
C
102
}
330
C
100
AcDbDictionary
281
     1
  3
Normal
350
F
100
AcDbDictionaryWithDefault
340
F
  0
DICTIONARY
  5
42
102
{ACAD_REACTORS
330
C
102
}
330
C
100
AcDbDictionary
281
     1
  3
A0
350
43
  3
A1
350
44
  3
A2
350
45
  3
A3
350
46
  3
A4
350
47
  3
A5
350
48
  3
A6
350
49
  3
A7
350
4A
  3
A8
350
4B
  3
A9
350
4C
  3
B0
350
4D
  3
B1
350
4E
  3
B2
350
4F
  3
B3
350
50
  3
B4
350
51
  3
B5
350
52
  3
B6
350
53
  0
DICTIONARY
  5
68
102
{ACAD_REACTORS
330
C
102
}
330
C
100
AcDbDictionary
281
     1
  3
Imperial24
350
69
  0
DICTIONARY
  5
64
102
{ACAD_REACTORS
330
C
102
}
330
C
100
AcDbDictionary
281
     1
  3
Standard
350
65
  0
DICTIONARY
  5
29
102
{ACAD_REACTORS
330
C
102
}
330
C
100
AcDbDictionary
281
     1
  3
2dWireframe
350
2F
  3
Basic
350
2E
  3
Brighten
350
35
  3
ColorChange
350
39
  3
Conceptual
350
32
  3
Dim
350
34
  3
EdgeColorOff
350
41
  3
Facepattern
350
38
  3
Flat
350
2A
  3
FlatWithEdges
350
2B
  3
Gouraud
350
2C
  3
GouraudWithEdges
350
2D
  3
Hidden
350
31
  3
JitterOff
350
3F
  3
Linepattern
350
37
  3
OverhangOff
350
40
  3
Realistic
350
33
  3
Shaded
350
3E
  3
Shaded with edges
350
3D
  3
Shades of Gray
350
3A
  3
Sketchy
350
3B
  3
Thicken
350
36
  3
Wireframe
350
30
  3
X-Ray
350
3C
  0
XRECORD
  5
CB
102
{ACAD_REACTORS
330
C
102
}
330
C
100
AcDbXrecord
280
     1
 90
        1
330
65
  0
DICTIONARY
  5
C3
102
{ACAD_REACTORS
330
C
102
}
330
C
100
AcDbDictionary
281
     1
  3
CANNOSCALE
350
C8
  3
CMLEADERSTYLE
350
C5
  3
CTABLESTYLE
350
C4
  3
CVIEWDETAILSTYLE
350
C6
  3
CVIEWSECTIONSTYLE
350
C7
  0
ACDBDETAILVIEWSTYLE
  5
6B
102
{ACAD_REACTORS
330
6A
102
}
330
6A
100
AcDbModelDocViewStyle
 70
     0
  3
Imperial24
290
     1
300
Imperial24
 90
        0
100
AcDbDetailViewStyle
 70
     0
 71
     0
 90
        3
 71
     1
340
55
 62
   256
 40
0.24
340
0
 62
   256
 40
0.24
300

 40
0.36
280
     3
 71
     2
340
5D
 90
       25
 62
   256
 71
     3
340
55
 62
   256
 40
0.24
 90
        1
 40
0.75
 90
        1
300
%<\AcVar ViewType \f "%tc1">% %<\AcVar ViewDetailId>%\PSCALE %<\AcVar ViewScale \f "%sn">%
 71
     4
340
5D
 90
       25
 62
   256
340
5D
 90
       25
 62
   256
280
     0
  0
LAYOUT
  5
6F
102
{ACAD_REACTORS
330
62
102
}
330
62
100
AcDbPlotSettings
  1

  2

  4

  6

 40
0.0
 41
0.0
 42
0.0
 43
0.0
 44
0.0
 45
0.0
 46
0.0
 47
0.0
 48
0.0
 49
0.0
140
0.0
141
0.0
142
1.0
143
1.0
 70
   688
 72
     0
 73
     0
 74
     5
  7

 75
    16
147
1.0
 76
     0
 77
     2
 78
   300
148
0.0
149
0.0
100
AcDbLayout
  1
Layout1
 70
     1
 71
     1
 10
0.0
 20
0.0
 11
12.0
 21
9.0
 12
0.0
 22
0.0
 32
0.0
 14
0.0
 24
0.0
 34
0.0
 15
0.0
 25
0.0
 35
0.0
146
0.0
 13
0.0
 23
0.0
 33
0.0
 16
1.0
 26
0.0
 36
0.0
 17
0.0
 27
1.0
 37
0.0
 76
     0
330
6C
  0
LAYOUT
  5
77
102
{ACAD_REACTORS
330
62
102
}
330
62
100
AcDbPlotSettings
  1

  2

  4

  6

 40
0.0
 41
0.0
 42
0.0
 43
0.0
 44
0.0
 45
0.0
 46
0.0
 47
0.0
 48
0.0
 49
0.0
140
0.0
141
0.0
142
1.0
143
1.0
 70
   688
 72
     0
 73
     0
 74
     5
  7

 75
    16
147
1.0
 76
     0
 77
     2
 78
   300
148
0.0
149
0.0
100
AcDbLayout
  1
Layout2
 70
     1
 71
     2
 10
0.0
 20
0.0
 11
12.0
 21
9.0
 12
0.0
 22
0.0
 32
0.0
 14
0.0
 24
0.0
 34
0.0
 15
0.0
 25
0.0
 35
0.0
146
0.0
 13
0.0
 23
0.0
 33
0.0
 16
1.0
 26
0.0
 36
0.0
 17
0.0
 27
1.0
 37
0.0
 76
     0
330
74
  0
LAYOUT
  5
73
102
{ACAD_REACTORS
330
62
102
}
330
62
100
AcDbPlotSettings
  1

  2

  4

  6

 40
0.0
 41
0.0
 42
0.0
 43
0.0
 44
0.0
 45
0.0
 46
0.0
 47
0.0
 48
0.0
 49
0.0
140
0.0
141
0.0
142
1.0
143
1.0
 70
  1712
 72
     0
 73
     0
 74
     0
  7

 75
     0
147
1.0
 76
     0
 77
     2
 78
   300
148
0.0
149
0.0
100
AcDbLayout
  1
Model
 70
     1
 71
     0
 10
0.0
 20
0.0
 11
12.0
 21
9.0
 12
0.0
 22
0.0
 32
0.0
 14
0.0
 24
0.0
 34
0.0
 15
0.0
 25
0.0
 35
0.0
146
0.0
 13
0.0
 23
0.0
 33
0.0
 16
1.0
 26
0.0
 36
0.0
 17
0.0
 27
1.0
 37
0.0
 76
     0
330
70
  0
MATERIAL
  5
19
102
{ACAD_XDICTIONARY
360
1A
102
}
102
{ACAD_REACTORS
330
10
102
}
330
10
100
AcDbMaterial
  1
ByBlock
 72
     0
 43
0.0208333333333333
 43
0.0
 43
0.0
 43
0.0
 43
0.0
 43
0.0208333333333333
 43
0.0
 43
0.0
 43
0.0
 43
0.0
 43
1.0
 43
0.0
 43
0.0
 43
0.0
 43
0.0
 43
1.0
 77
     0
 47
0.0208333333333333
 47
0.0
 47
0.0
 47
0.0
 47
0.0
 47
0.0208333333333333
 47
0.0
 47
0.0
 47
0.0
 47
0.0
 47
1.0
 47
0.0
 47
0.0
 47
0.0
 47
0.0
 47
1.0
171
     0
 49
0.0208333333333333
 49
0.0
 49
0.0
 49
0.0
 49
0.0
 49
0.0208333333333333
 49
0.0
 49
0.0
 49
0.0
 49
0.0
 49
1.0
 49
0.0
 49
0.0
 49
0.0
 49
0.0
 49
1.0
175
     0
142
0.0208333333333333
142
0.0
142
0.0
142
0.0
142
0.0
142
0.0208333333333333
142
0.0
142
0.0
142
0.0
142
0.0
142
1.0
142
0.0
142
0.0
142
0.0
142
0.0
142
1.0
179
     0
144
0.0208333333333333
144
0.0
144
0.0
144
0.0
144
0.0
144
0.0208333333333333
144
0.0
144
0.0
144
0.0
144
0.0
144
1.0
144
0.0
144
0.0
144
0.0
144
0.0
144
1.0
147
0.0208333333333333
147
0.0
147
0.0
147
0.0
147
0.0
147
0.0208333333333333
147
0.0
147
0.0
147
0.0
147
0.0
147
1.0
147
0.0
147
0.0
147
0.0
147
0.0
147
1.0
  0
MATERIAL
  5
11
102
{ACAD_XDICTIONARY
360
12
102
}
102
{ACAD_REACTORS
330
10
102
}
330
10
100
AcDbMaterial
  1
ByLayer
 72
     0
 43
0.0208333333333333
 43
0.0
 43
0.0
 43
0.0
 43
0.0
 43
0.0208333333333333
 43
0.0
 43
0.0
 43
0.0
 43
0.0
 43
1.0
 43
0.0
 43
0.0
 43
0.0
 43
0.0
 43
1.0
 77
     0
 47
0.0208333333333333
 47
0.0
 47
0.0
 47
0.0
 47
0.0
 47
0.0208333333333333
 47
0.0
 47
0.0
 47
0.0
 47
0.0
 47
1.0
 47
0.0
 47
0.0
 47
0.0
 47
0.0
 47
1.0
171
     0
 49
0.0208333333333333
 49
0.0
 49
0.0
 49
0.0
 49
0.0
 49
0.0208333333333333
 49
0.0
 49
0.0
 49
0.0
 49
0.0
 49
1.0
 49
0.0
 49
0.0
 49
0.0
 49
0.0
 49
1.0
175
     0
142
0.0208333333333333
142
0.0
142
0.0
142
0.0
142
0.0
142
0.0208333333333333
142
0.0
142
0.0
142
0.0
142
0.0
142
1.0
142
0.0
142
0.0
142
0.0
142
0.0
142
1.0
179
     0
144
0.0208333333333333
144
0.0
144
0.0
144
0.0
144
0.0
144
0.0208333333333333
144
0.0
144
0.0
144
0.0
144
0.0
144
1.0
144
0.0
144
0.0
144
0.0
144
0.0
144
1.0
147
0.0208333333333333
147
0.0
147
0.0
147
0.0
147
0.0
147
0.0208333333333333
147
0.0
147
0.0
147
0.0
147
0.0
147
1.0
147
0.0
147
0.0
147
0.0
147
0.0
147
1.0
  0
MATERIAL
  5
21
102
{ACAD_XDICTIONARY
360
22
102
}
102
{ACAD_REACTORS
330
10
102
}
330
10
100
AcDbMaterial
  1
Global
 72
     0
 43
0.0208333333333333
 43
0.0
 43
0.0
 43
0.0
 43
0.0
 43
0.0208333333333333
 43
0.0
 43
0.0
 43
0.0
 43
0.0
 43
1.0
 43
0.0
 43
0.0
 43
0.0
 43
0.0
 43
1.0
 77
     0
 47
0.0208333333333333
 47
0.0
 47
0.0
 47
0.0
 47
0.0
 47
0.0208333333333333
 47
0.0
 47
0.0
 47
0.0
 47
0.0
 47
1.0
 47
0.0
 47
0.0
 47
0.0
 47
0.0
 47
1.0
171
     0
 49
0.0208333333333333
 49
0.0
 49
0.0
 49
0.0
 49
0.0
 49
0.0208333333333333
 49
0.0
 49
0.0
 49
0.0
 49
0.0
 49
1.0
 49
0.0
 49
0.0
 49
0.0
 49
0.0
 49
1.0
175
     0
142
0.0208333333333333
142
0.0
142
0.0
142
0.0
142
0.0
142
0.0208333333333333
142
0.0
142
0.0
142
0.0
142
0.0
142
1.0
142
0.0
142
0.0
142
0.0
142
0.0
142
1.0
179
     0
144
0.0208333333333333
144
0.0
144
0.0
144
0.0
144
0.0
144
0.0208333333333333
144
0.0
144
0.0
144
0.0
144
0.0
144
1.0
144
0.0
144
0.0
144
0.0
144
0.0
144
1.0
147
0.0208333333333333
147
0.0
147
0.0
147
0.0
147
0.0
147
0.0208333333333333
147
0.0
147
0.0
147
0.0
147
0.0
147
1.0
147
0.0
147
0.0
147
0.0
147
0.0
147
1.0
  0
MLEADERSTYLE
  5
67
102
{ACAD_REACTORS
330
66
102
}
330
66
100
AcDbMLeaderStyle
179
     2
170
     2
171
     1
172
     0
 90
        2
 40
0.0
 41
0.0
173
     1
 91
-1056964608
340
5B
 92
       -2
290
     1
 42
0.09
291
     1
 43
0.36
  3
Standard
 44
0.18
300

342
55
174
     1
178
     6
175
     1
176
     0
 93
-1056964608
 45
0.18
292
     0
297
     0
 46
0.18
 94
-1056964608
 47
1.0
 49
1.0
140
1.0
293
     1
141
0.0
294
     1
177
     0
142
1.0
295
     1
296
     0
143
0.125
271
     0
272
     9
273
     9
298
     1
  0
MLINESTYLE
  5
60
102
{ACAD_REACTORS
330
5F
102
}
330
5F
100
AcDbMlineStyle
  2
STANDARD
 70
     0
  3

 62
   256
 51
90.0
 52
90.0
 71
     2
 49
0.5
 62
   256
  6
BYLAYER
 49
-0.5
 62
   256
  6
BYLAYER
  0
ACDBPLACEHOLDER
  5
F
102
{ACAD_REACTORS
330
E
102
}
330
E
  0
SCALE
  5
43
102
{ACAD_REACTORS
330
42
102
}
330
42
100
AcDbScale
 70
     0
300
1:1
140
1.0
141
1.0
290
     1
  0
SCALE
  5
44
102
{ACAD_REACTORS
330
42
102
}
330
42
100
AcDbScale
 70
     0
300
1/128" = 1'-0"
140
0.0078125
141
12.0
290
     0
  0
SCALE
  5
45
102
{ACAD_REACTORS
330
42
102
}
330
42
100
AcDbScale
 70
     0
300
1/64" = 1'-0"
140
0.015625
141
12.0
290
     0
  0
SCALE
  5
46
102
{ACAD_REACTORS
330
42
102
}
330
42
100
AcDbScale
 70
     0
300
1/32" = 1'-0"
140
0.03125
141
12.0
290
     0
  0
SCALE
  5
47
102
{ACAD_REACTORS
330
42
102
}
330
42
100
AcDbScale
 70
     0
300
1/16" = 1'-0"
140
0.0625
141
12.0
290
     0
  0
SCALE
  5
48
102
{ACAD_REACTORS
330
42
102
}
330
42
100
AcDbScale
 70
     0
300
3/32" = 1'-0"
140
0.09375
141
12.0
290
     0
  0
SCALE
  5
49
102
{ACAD_REACTORS
330
42
102
}
330
42
100
AcDbScale
 70
     0
300
1/8" = 1'-0"
140
0.125
141
12.0
290
     0
  0
SCALE
  5
4A
102
{ACAD_REACTORS
330
42
102
}
330
42
100
AcDbScale
 70
     0
300
3/16" = 1'-0"
140
0.1875
141
12.0
290
     0
  0
SCALE
  5
4B
102
{ACAD_REACTORS
330
42
102
}
330
42
100
AcDbScale
 70
     0
300
1/4" = 1'-0"
140
0.25
141
12.0
290
     0
  0
SCALE
  5
4C
102
{ACAD_REACTORS
330
42
102
}
330
42
100
AcDbScale
 70
     0
300
3/8" = 1'-0"
140
0.375
141
12.0
290
     0
  0
SCALE
  5
4D
102
{ACAD_REACTORS
330
42
102
}
330
42
100
AcDbScale
 70
     0
300
1/2" = 1'-0"
140
0.5
141
12.0
290
     0
  0
SCALE
  5
4E
102
{ACAD_REACTORS
330
42
102
}
330
42
100
AcDbScale
 70
     0
300
3/4" = 1'-0"
140
0.75
141
12.0
290
     0
  0
SCALE
  5
4F
102
{ACAD_REACTORS
330
42
102
}
330
42
100
AcDbScale
 70
     0
300
1" = 1'-0"
140
1.0
141
12.0
290
     0
  0
SCALE
  5
50
102
{ACAD_REACTORS
330
42
102
}
330
42
100
AcDbScale
 70
     0
300
1-1/2" = 1'-0"
140
1.5
141
12.0
290
     0
  0
SCALE
  5
51
102
{ACAD_REACTORS
330
42
102
}
330
42
100
AcDbScale
 70
     0
300
3" = 1'-0"
140
3.0
141
12.0
290
     0
  0
SCALE
  5
52
102
{ACAD_REACTORS
330
42
102
}
330
42
100
AcDbScale
 70
     0
300
6" = 1'-0"
140
6.0
141
12.0
290
     0
  0
SCALE
  5
53
102
{ACAD_REACTORS
330
42
102
}
330
42
100
AcDbScale
 70
     0
300
1'-0" = 1'-0"
140
12.0
141
12.0
290
     0
  0
ACDBSECTIONVIEWSTYLE
  5
69
102
{ACAD_REACTORS
330
68
102
}
330
68
100
AcDbModelDocViewStyle
 70
     0
  3
Imperial24
290
     1
300
Imperial24
 90
        0
100
AcDbSectionViewStyle
 70
     0
 71
     0
 90
       78
 71
     1
340
55
 62
   256
 40
0.24
340
0
340
0
 62
   256
 40
0.24
300
I, O, Q, S, X, Z
 40
0.48
 90
        3
 40
0.18
 90
        1
 71
     2
340
5D
 90
       25
 62
   256
340
5D
 90
       50
 62
   256
 40
0.24
 40
0.0
 40
0.24
 71
     3
340
55
 62
   256
 40
0.24
 90
        1
 40
0.75
 90
        1
300
%<\AcVar ViewType \f "%tc1">% %<\AcVar ViewSectionStartId>%-%<\AcVar ViewSectionEndId>%\PSCALE %<\AcVar ViewScale \f "%sn">%
 71
     4
 62
   256
 62
   257
300
ANSI31
 40
1.0
 90
        0
290
     0
290
     0
 90
        6
 40
0.0
 40
1.570796326794896
 40
0.2617993877991494
 40
1.308996938995747
 40
-0.2617993877991494
 40
1.832595714594046
  0
TABLESTYLE
  5
65
102
{ACAD_XDICTIONARY
360
C9
102
}
102
{ACAD_REACTORS
330
64
102
}
330
64
100
AcDbTableStyle
280
     0
  3
Standard
 70
     0
 71
     0
 40
0.06
 41
0.06
280
     0
281
     0
  7
Standard
140
0.18
170
     2
 62
     0
 63
     7
283
     0
 90
      512
 91
        0
  1

274
    -2
284
     1
 64
     0
275
    -2
285
     1
 65
     0
276
    -2
286
     1
 66
     0
277
    -2
287
     1
 67
     0
278
    -2
288
     1
 68
     0
279
    -2
289
     1
 69
     0
  7
Standard
140
0.25
170
     5
 62
     0
 63
     7
283
     0
 90
      512
 91
        0
  1

274
    -2
284
     1
 64
     0
275
    -2
285
     1
 65
     0
276
    -2
286
     1
 66
     0
277
    -2
287
     1
 67
     0
278
    -2
288
     1
 68
     0
279
    -2
289
     1
 69
     0
  7
Standard
140
0.18
170
     5
 62
     0
 63
     7
283
     0
 90
      512
 91
        0
  1

274
    -2
284
     1
 64
     0
275
    -2
285
     1
 65
     0
276
    -2
286
     1
 66
     0
277
    -2
287
     1
 67
     0
278
    -2
288
     1
 68
     0
279
    -2
289
     1
 69
     0
  0
VISUALSTYLE
  5
2F
102
{ACAD_REACTORS
330
29
102
}
330
29
100
AcDbVisualStyle
  2
2dWireframe
 70
     4
177
     3
291
     0
 70
    58
 90
        0
176
     1
 90
        2
176
     1
 90
        0
176
     1
 90
        0
176
     1
 40
0.6
176
     1
 40
30.0
176
     1
 62
     7
420
 16777215
176
     1
 90
        1
176
     1
 90
        4
176
     1
 62
     7
176
     1
 62
   257
176
     1
 90
        1
176
     1
 90
        1
176
     1
 40
1.0
176
     1
 90
        0
176
     1
 62
   257
176
     1
 40
1.0
176
     1
 90
        1
176
     1
 90
        6
176
     1
 90
        2
176
     1
 62
     7
176
     1
 90
        5
176
     1
 90
        0
176
     1
 90
        0
176
     1
290
     0
176
     1
 90
        1
176
     1
 40
0.0
176
     1
 90
        0
176
     1
290
     1
176
     1
290
     1
176
     1
290
     0
176
     1
290
     0
176
     1
290
     0
176
     1
290
     0
176
     1
290
     0
176
     1
290
     0
176
     1
290
     0
176
     1
 90
       50
176
     1
 40
0.0
176
     1
 40
1.0
176
     1
 90
        0
176
     1
 62
    18
420
        0
176
     1
 90
       50
176
     1
 90
        3
176
     1
 62
     5
420
      255
176
     1
290
     0
176
     1
 90
       50
176
     1
 90
       50
176
     1
 90
       50
176
     1
290
     0
176
     1
 90
       50
176
     1
 62
   256
176
     0
 40
1.0
176
     0
 90
        2
176
     1
  1
strokes_ogs.tif
176
     1
290
     0
176
     1
 40
1.0
176
     1
 40
1.0
176
     1
  0
VISUALSTYLE
  5
2E
102
{ACAD_REACTORS
330
29
102
}
330
29
100
AcDbVisualStyle
  2
Basic
 70
     7
177
     3
291
     1
 70
    58
 90
        1
176
     1
 90
        0
176
     1
 90
        1
176
     1
 90
        0
176
     1
 40
0.6
176
     1
 40
30.0
176
     1
 62
     7
420
 16777215
176
     1
 90
        0
176
     1
 90
        4
176
     1
 62
     7
176
     1
 62
   257
176
     1
 90
        1
176
     1
 90
        1
176
     1
 40
1.0
176
     1
 90
        8
176
     1
 62
     7
176
     1
 40
1.0
176
     1
 90
        1
176
     1
 90
        6
176
     1
 90
        2
176
     1
 62
     7
176
     1
 90
        5
176
     1
 90
        0
176
     1
 90
        0
176
     1
290
     0
176
     1
 90
        1
176
     1
 40
0.0
176
     1
 90
        0
176
     1
290
     0
176
     1
290
     1
176
     1
290
     1
176
     1
290
     0
176
     1
290
     0
176
     1
290
     0
176
     1
290
     0
176
     1
290
     0
176
     1
290
     0
176
     1
 90
       50
176
     1
 40
0.0
176
     1
 40
1.0
176
     1
 90
        0
176
     1
 62
    18
420
        0
176
     1
 90
       50
176
     1
 90
        3
176
     1
 62
     5
420
      255
176
     1
290
     0
176
     1
 90
       50
176
     1
 90
       50
176
     1
 90
       50
176
     1
290
     0
176
     1
 90
       50
176
     1
 62
   256
176
     0
 40
1.0
176
     0
 90
        2
176
     1
  1
strokes_ogs.tif
176
     1
290
     0
176
     1
 40
1.0
176
     1
 40
1.0
176
     1
  0
VISUALSTYLE
  5
35
102
{ACAD_REACTORS
330
29
102
}
330
29
100
AcDbVisualStyle
  2
Brighten
 70
    12
177
     3
291
     1
 70
    58
 90
        2
176
     1
 90
        2
176
     1
 90
        0
176
     1
 90
        0
176
     1
 40
0.6
176
     1
 40
30.0
176
     1
 62
     7
420
 16777215
176
     1
 90
        1
176
     1
 90
        4
176
     1
 62
     7
176
     1
 62
   257
176
     1
 90
        1
176
     1
 90
        1
176
     1
 40
1.0
176
     1
 90
        8
176
     1
 62
     7
176
     1
 40
1.0
176
     1
 90
        1
176
     1
 90
        6
176
     1
 90
        2
176
     1
 62
     7
176
     1
 90
        5
176
     1
 90
        0
176
     1
 90
        0
176
     1
290
     0
176
     1
 90
        1
176
     1
 40
50.0
176
     1
 90
        0
176
     1
290
     0
176
     1
290
     1
176
     1
290
     1
176
     1
290
     0
176
     1
290
     0
176
     1
290
     0
176
     1
290
     0
176
     1
290
     0
176
     1
290
     0
176
     1
 90
       50
176
     1
 40
0.0
176
     1
 40
1.0
176
     1
 90
        0
176
     1
 62
    18
420
        0
176
     1
 90
       50
176
     1
 90
        3
176
     1
 62
     5
420
      255
176
     1
290
     0
176
     1
 90
       50
176
     1
 90
       50
176
     1
 90
       50
176
     1
290
     0
176
     1
 90
       50
176
     1
 62
   256
176
     0
 40
1.0
176
     0
 90
        2
176
     1
  1
strokes_ogs.tif
176
     1
290
     0
176
     1
 40
1.0
176
     1
 40
1.0
176
     1
  0
VISUALSTYLE
  5
39
102
{ACAD_REACTORS
330
29
102
}
330
29
100
AcDbVisualStyle
  2
ColorChange
 70
    16
177
     3
291
     1
 70
    58
 90
        2
176
     1
 90
        2
176
     1
 90
        3
176
     1
 90
        0
176
     1
 40
0.6
176
     1
 40
30.0
176
     1
 62
     8
420
  8421504
176
     1
 90
        1
176
     1
 90
        4
176
     1
 62
     7
176
     1
 62
   257
176
     1
 90
        1
176
     1
 90
        1
176
     1
 40
1.0
176
     1
 90
        8
176
     1
 62
     8
420
  8421504
176
     1
 40
1.0
176
     1
 90
        1
176
     1
 90
        6
176
     1
 90
        2
176
     1
 62
     7
176
     1
 90
        5
176
     1
 90
        0
176
     1
 90
        0
176
     1
290
     0
176
     1
 90
        1
176
     1
 40
0.0
176
     1
 90
        0
176
     1
290
     0
176
     1
290
     1
176
     1
290
     1
176
     1
290
     0
176
     1
290
     0
176
     1
290
     0
176
     1
290
     0
176
     1
290
     0
176
     1
290
     0
176
     1
 90
       50
176
     1
 40
0.0
176
     1
 40
1.0
176
     1
 90
        0
176
     1
 62
    18
420
        0
176
     1
 90
       50
176
     1
 90
        3
176
     1
 62
     5
420
      255
176
     1
290
     0
176
     1
 90
       50
176
     1
 90
       50
176
     1
 90
       50
176
     1
290
     0
176
     1
 90
       50
176
     1
 62
   256
176
     0
 40
1.0
176
     0
 90
        2
176
     1
  1
strokes_ogs.tif
176
     1
290
     0
176
     1
 40
1.0
176
     1
 40
1.0
176
     1
  0
VISUALSTYLE
  5
32
102
{ACAD_REACTORS
330
29
102
}
330
29
100
AcDbVisualStyle
  2
Conceptual
 70
     9
177
     3
291
     0
 70
    58
 90
        3
176
     1
 90
        2
176
     1
 90
        0
176
     1
 90
        0
176
     1
 40
0.6
176
     1
 40
30.0
176
     1
 62
     7
420
 16777215
176
     1
 90
        2
176
     1
 90
        2
176
     1
 62
     7
176
     1
 62
   257
176
     1
 90
        1
176
     1
 90
        1
176
     1
 40
179.0
176
     1
 90
        8
176
     1
 62
     7
176
     1
 40
1.0
176
     1
 90
        1
176
     1
 90
        6
176
     1
 90
        2
176
     1
 62
     7
176
     1
 90
        3
176
     1
 90
        0
176
     1
 90
        0
176
     1
290
     0
176
     1
 90
        1
176
     1
 40
0.0
176
     1
 90
        0
176
     1
290
     0
176
     1
290
     1
176
     1
290
     1
176
     1
290
     0
176
     1
290
     0
176
     1
290
     0
176
     1
290
     0
176
     1
290
     0
176
     1
290
     0
176
     1
 90
       50
176
     1
 40
0.0
176
     1
 40
1.0
176
     1
 90
        0
176
     1
 62
    18
420
        0
176
     1
 90
       50
176
     1
 90
        3
176
     1
 62
     5
420
      255
176
     1
290
     0
176
     1
 90
       50
176
     1
 90
       50
176
     1
 90
       50
176
     1
290
     0
176
     1
 90
       50
176
     1
 62
   256
176
     0
 40
1.0
176
     0
 90
        2
176
     1
  1
strokes_ogs.tif
176
     1
290
     0
176
     1
 40
1.0
176
     1
 40
1.0
176
     1
  0
VISUALSTYLE
  5
34
102
{ACAD_REACTORS
330
29
102
}
330
29
100
AcDbVisualStyle
  2
Dim
 70
    11
177
     3
291
     1
 70
    58
 90
        2
176
     1
 90
        2
176
     1
 90
        0
176
     1
 90
        0
176
     1
 40
0.6
176
     1
 40
30.0
176
     1
 62
     7
420
 16777215
176
     1
 90
        1
176
     1
 90
        4
176
     1
 62
     7
176
     1
 62
   257
176
     1
 90
        1
176
     1
 90
        1
176
     1
 40
1.0
176
     1
 90
        8
176
     1
 62
     7
176
     1
 40
1.0
176
     1
 90
        1
176
     1
 90
        6
176
     1
 90
        2
176
     1
 62
     7
176
     1
 90
        5
176
     1
 90
        0
176
     1
 90
        0
176
     1
290
     0
176
     1
 90
        1
176
     1
 40
-50.0
176
     1
 90
        0
176
     1
290
     0
176
     1
290
     1
176
     1
290
     1
176
     1
290
     0
176
     1
290
     0
176
     1
290
     0
176
     1
290
     0
176
     1
290
     0
176
     1
290
     0
176
     1
 90
       50
176
     1
 40
0.0
176
     1
 40
1.0
176
     1
 90
        0
176
     1
 62
    18
420
        0
176
     1
 90
       50
176
     1
 90
        3
176
     1
 62
     5
420
      255
176
     1
290
     0
176
     1
 90
       50
176
     1
 90
       50
176
     1
 90
       50
176
     1
290
     0
176
     1
 90
       50
176
     1
 62
   256
176
     0
 40
1.0
176
     0
 90
        2
176
     1
  1
strokes_ogs.tif
176
     1
290
     0
176
     1
 40
1.0
176
     1
 40
1.0
176
     1
  0
VISUALSTYLE
  5
41
102
{ACAD_REACTORS
330
29
102
}
330
29
100
AcDbVisualStyle
  2
EdgeColorOff
 70
    22
177
     3
291
     1
 70
    58
 90
        2
176
     0
 90
        2
176
     0
 90
        0
176
     0
 90
        0
176
     0
 40
0.6
176
     0
 40
30.0
176
     0
 62
     7
420
 16777215
176
     0
 90
        1
176
     0
 90
        4
176
     0
 62
     7
176
     0
 62
   257
176
     0
 90
        1
176
     0
 90
        1
176
     0
 40
1.0
176
     0
 90
        8
176
     2
 62
     7
176
     0
 40
1.0
176
     0
 90
        1
176
     0
 90
        6
176
     0
 90
        2
176
     0
 62
     7
176
     0
 90
        5
176
     0
 90
        0
176
     0
 90
        0
176
     0
290
     0
176
     0
 90
        1
176
     0
 40
0.0
176
     0
 90
        0
176
     0
290
     0
176
     0
290
     1
176
     0
290
     1
176
     0
290
     0
176
     0
290
     0
176
     0
290
     0
176
     0
290
     0
176
     0
290
     0
176
     0
290
     0
176
     0
 90
       50
176
     0
 40
0.0
176
     0
 40
1.0
176
     0
 90
        0
176
     0
 62
    18
420
        0
176
     0
 90
       50
176
     0
 90
        3
176
     0
 62
     5
420
      255
176
     0
290
     0
176
     0
 90
       50
176
     0
 90
       50
176
     0
 90
       50
176
     0
290
     0
176
     0
 90
       50
176
     0
 62
   256
176
     0
 40
1.0
176
     0
 90
        2
176
     0
  1
strokes_ogs.tif
176
     0
290
     0
176
     0
 40
1.0
176
     0
 40
1.0
176
     0
  0
VISUALSTYLE
  5
38
102
{ACAD_REACTORS
330
29
102
}
330
29
100
AcDbVisualStyle
  2
Facepattern
 70
    15
177
     3
291
     1
 70
    58
 90
        2
176
     1
 90
        2
176
     1
 90
        0
176
     1
 90
        0
176
     1
 40
0.6
176
     1
 40
30.0
176
     1
 62
     7
420
 16777215
176
     1
 90
        1
176
     1
 90
        4
176
     1
 62
     7
176
     1
 62
   257
176
     1
 90
        1
176
     1
 90
        1
176
     1
 40
1.0
176
     1
 90
        8
176
     1
 62
     7
176
     1
 40
1.0
176
     1
 90
        1
176
     1
 90
        6
176
     1
 90
        2
176
     1
 62
     7
176
     1
 90
        5
176
     1
 90
        0
176
     1
 90
        0
176
     1
290
     0
176
     1
 90
        1
176
     1
 40
0.0
176
     1
 90
        0
176
     1
290
     0
176
     1
290
     1
176
     1
290
     1
176
     1
290
     0
176
     1
290
     0
176
     1
290
     0
176
     1
290
     0
176
     1
290
     0
176
     1
290
     0
176
     1
 90
       50
176
     1
 40
0.0
176
     1
 40
1.0
176
     1
 90
        0
176
     1
 62
    18
420
        0
176
     1
 90
       50
176
     1
 90
        3
176
     1
 62
     5
420
      255
176
     1
290
     0
176
     1
 90
       50
176
     1
 90
       50
176
     1
 90
       50
176
     1
290
     0
176
     1
 90
       50
176
     1
 62
   256
176
     0
 40
1.0
176
     0
 90
        2
176
     1
  1
strokes_ogs.tif
176
     1
290
     0
176
     1
 40
1.0
176
     1
 40
1.0
176
     1
  0
VISUALSTYLE
  5
2A
102
{ACAD_REACTORS
330
29
102
}
330
29
100
AcDbVisualStyle
  2
Flat
 70
     0
177
     3
291
     1
 70
    58
 90
        2
176
     1
 90
        1
176
     1
 90
        1
176
     1
 90
        2
176
     1
 40
0.6
176
     1
 40
30.0
176
     1
 62
     7
420
 16777215
176
     1
 90
        0
176
     1
 90
        0
176
     1
 62
     7
176
     1
 62
   257
176
     1
 90
        1
176
     1
 90
        1
176
     1
 40
1.0
176
     1
 90
        8
176
     1
 62
     7
176
     1
 40
1.0
176
     1
 90
        1
176
     1
 90
        6
176
     1
 90
        2
176
     1
 62
     7
176
     1
 90
        5
176
     1
 90
        0
176
     1
 90
        0
176
     1
290
     0
176
     1
 90
       13
176
     1
 40
0.0
176
     1
 90
        0
176
     1
290
     0
176
     1
290
     1
176
     1
290
     1
176
     1
290
     0
176
     1
290
     0
176
     1
290
     0
176
     1
290
     0
176
     1
290
     0
176
     1
290
     0
176
     1
 90
       50
176
     1
 40
0.0
176
     1
 40
1.0
176
     1
 90
        0
176
     1
 62
    18
420
        0
176
     1
 90
       50
176
     1
 90
        3
176
     1
 62
     5
420
      255
176
     1
290
     0
176
     1
 90
       50
176
     1
 90
       50
176
     1
 90
       50
176
     1
290
     0
176
     1
 90
       50
176
     1
 62
   256
176
     0
 40
1.0
176
     0
 90
        2
176
     1
  1
strokes_ogs.tif
176
     1
290
     0
176
     1
 40
1.0
176
     1
 40
1.0
176
     1
  0
VISUALSTYLE
  5
2B
102
{ACAD_REACTORS
330
29
102
}
330
29
100
AcDbVisualStyle
  2
FlatWithEdges
 70
     1
177
     3
291
     1
 70
    58
 90
        2
176
     1
 90
        1
176
     1
 90
        1
176
     1
 90
        2
176
     1
 40
0.6
176
     1
 40
30.0
176
     1
 62
     7
420
 16777215
176
     1
 90
        1
176
     1
 90
        0
176
     1
 62
     7
176
     1
 62
   257
176
     1
 90
        1
176
     1
 90
        1
176
     1
 40
1.0
176
     1
 90
        0
176
     1
 62
   257
176
     1
 40
1.0
176
     1
 90
        1
176
     1
 90
        6
176
     1
 90
        2
176
     1
 62
     7
176
     1
 90
        5
176
     1
 90
        0
176
     1
 90
        0
176
     1
290
     0
176
     1
 90
       13
176
     1
 40
0.0
176
     1
 90
        0
176
     1
290
     0
176
     1
290
     1
176
     1
290
     1
176
     1
290
     0
176
     1
290
     0
176
     1
290
     0
176
     1
290
     0
176
     1
290
     0
176
     1
290
     0
176
     1
 90
       50
176
     1
 40
0.0
176
     1
 40
1.0
176
     1
 90
        0
176
     1
 62
    18
420
        0
176
     1
 90
       50
176
     1
 90
        3
176
     1
 62
     5
420
      255
176
     1
290
     0
176
     1
 90
       50
176
     1
 90
       50
176
     1
 90
       50
176
     1
290
     0
176
     1
 90
       50
176
     1
 62
   256
176
     0
 40
1.0
176
     0
 90
        2
176
     1
  1
strokes_ogs.tif
176
     1
290
     0
176
     1
 40
1.0
176
     1
 40
1.0
176
     1
  0
VISUALSTYLE
  5
2C
102
{ACAD_REACTORS
330
29
102
}
330
29
100
AcDbVisualStyle
  2
Gouraud
 70
     2
177
     3
291
     1
 70
    58
 90
        2
176
     1
 90
        2
176
     1
 90
        1
176
     1
 90
        2
176
     1
 40
0.6
176
     1
 40
30.0
176
     1
 62
     7
420
 16777215
176
     1
 90
        0
176
     1
 90
        0
176
     1
 62
     7
176
     1
 62
   257
176
     1
 90
        1
176
     1
 90
        1
176
     1
 40
1.0
176
     1
 90
        0
176
     1
 62
     7
176
     1
 40
1.0
176
     1
 90
        1
176
     1
 90
        6
176
     1
 90
        2
176
     1
 62
     7
176
     1
 90
        5
176
     1
 90
        0
176
     1
 90
        0
176
     1
290
     0
176
     1
 90
       13
176
     1
 40
0.0
176
     1
 90
        0
176
     1
290
     0
176
     1
290
     1
176
     1
290
     1
176
     1
290
     0
176
     1
290
     0
176
     1
290
     0
176
     1
290
     0
176
     1
290
     0
176
     1
290
     0
176
     1
 90
       50
176
     1
 40
0.0
176
     1
 40
1.0
176
     1
 90
        0
176
     1
 62
    18
420
        0
176
     1
 90
       50
176
     1
 90
        3
176
     1
 62
     5
420
      255
176
     1
290
     0
176
     1
 90
       50
176
     1
 90
       50
176
     1
 90
       50
176
     1
290
     0
176
     1
 90
       50
176
     1
 62
   256
176
     0
 40
1.0
176
     0
 90
        2
176
     1
  1
strokes_ogs.tif
176
     1
290
     0
176
     1
 40
1.0
176
     1
 40
1.0
176
     1
  0
VISUALSTYLE
  5
2D
102
{ACAD_REACTORS
330
29
102
}
330
29
100
AcDbVisualStyle
  2
GouraudWithEdges
 70
     3
177
     3
291
     1
 70
    58
 90
        2
176
     1
 90
        2
176
     1
 90
        1
176
     1
 90
        2
176
     1
 40
0.6
176
     1
 40
30.0
176
     1
 62
     7
420
 16777215
176
     1
 90
        1
176
     1
 90
        0
176
     1
 62
     7
176
     1
 62
   257
176
     1
 90
        1
176
     1
 90
        1
176
     1
 40
1.0
176
     1
 90
        0
176
     1
 62
   257
176
     1
 40
1.0
176
     1
 90
        1
176
     1
 90
        6
176
     1
 90
        2
176
     1
 62
     7
176
     1
 90
        5
176
     1
 90
        0
176
     1
 90
        0
176
     1
290
     0
176
     1
 90
       13
176
     1
 40
0.0
176
     1
 90
        0
176
     1
290
     0
176
     1
290
     1
176
     1
290
     1
176
     1
290
     0
176
     1
290
     0
176
     1
290
     0
176
     1
290
     0
176
     1
290
     0
176
     1
290
     0
176
     1
 90
       50
176
     1
 40
0.0
176
     1
 40
1.0
176
     1
 90
        0
176
     1
 62
    18
420
        0
176
     1
 90
       50
176
     1
 90
        3
176
     1
 62
     5
420
      255
176
     1
290
     0
176
     1
 90
       50
176
     1
 90
       50
176
     1
 90
       50
176
     1
290
     0
176
     1
 90
       50
176
     1
 62
   256
176
     0
 40
1.0
176
     0
 90
        2
176
     1
  1
strokes_ogs.tif
176
     1
290
     0
176
     1
 40
1.0
176
     1
 40
1.0
176
     1
  0
VISUALSTYLE
  5
31
102
{ACAD_REACTORS
330
29
102
}
330
29
100
AcDbVisualStyle
  2
Hidden
 70
     6
177
     3
291
     0
 70
    58
 90
        1
176
     1
 90
        2
176
     1
 90
        2
176
     1
 90
        0
176
     1
 40
0.6
176
     1
 40
30.0
176
     1
 62
     7
420
 16777215
176
     1
 90
        2
176
     1
 90
        2
176
     1
 62
     7
176
     1
 62
   257
176
     1
 90
        2
176
     1
 90
        1
176
     1
 40
40.0
176
     1
 90
        0
176
     1
 62
   257
176
     1
 40
1.0
176
     1
 90
        1
176
     1
 90
        6
176
     1
 90
        2
176
     1
 62
     7
176
     1
 90
        3
176
     1
 90
        0
176
     1
 90
        0
176
     1
290
     0
176
     1
 90
        1
176
     1
 40
0.0
176
     1
 90
        0
176
     1
290
     0
176
     1
290
     1
176
     1
290
     1
176
     1
290
     0
176
     1
290
     0
176
     1
290
     0
176
     1
290
     0
176
     1
290
     0
176
     1
290
     0
176
     1
 90
       50
176
     1
 40
0.0
176
     1
 40
1.0
176
     1
 90
        0
176
     1
 62
    18
420
        0
176
     1
 90
       50
176
     1
 90
        3
176
     1
 62
     5
420
      255
176
     1
290
     0
176
     1
 90
       50
176
     1
 90
       50
176
     1
 90
       50
176
     1
290
     0
176
     1
 90
       50
176
     1
 62
   256
176
     0
 40
1.0
176
     0
 90
        2
176
     1
  1
strokes_ogs.tif
176
     1
290
     0
176
     1
 40
1.0
176
     1
 40
1.0
176
     1
  0
VISUALSTYLE
  5
3F
102
{ACAD_REACTORS
330
29
102
}
330
29
100
AcDbVisualStyle
  2
JitterOff
 70
    20
177
     3
291
     1
 70
    58
 90
        2
176
     0
 90
        2
176
     0
 90
        0
176
     0
 90
        0
176
     0
 40
0.6
176
     0
 40
30.0
176
     0
 62
     7
420
 16777215
176
     0
 90
        1
176
     0
 90
        4
176
     0
 62
     7
176
     0
 62
   257
176
     0
 90
        1
176
     0
 90
        1
176
     0
 40
1.0
176
     0
 90
       10
176
     2
 62
     7
176
     0
 40
1.0
176
     0
 90
        1
176
     0
 90
        6
176
     0
 90
        2
176
     0
 62
     7
176
     0
 90
        5
176
     0
 90
        0
176
     0
 90
        0
176
     0
290
     0
176
     0
 90
        1
176
     0
 40
0.0
176
     0
 90
        0
176
     0
290
     0
176
     0
290
     1
176
     0
290
     1
176
     0
290
     0
176
     0
290
     0
176
     0
290
     0
176
     0
290
     0
176
     0
290
     0
176
     0
290
     0
176
     0
 90
       50
176
     0
 40
0.0
176
     0
 40
1.0
176
     0
 90
        0
176
     0
 62
    18
420
        0
176
     0
 90
       50
176
     0
 90
        3
176
     0
 62
     5
420
      255
176
     0
290
     0
176
     0
 90
       50
176
     0
 90
       50
176
     0
 90
       50
176
     0
290
     0
176
     0
 90
       50
176
     0
 62
   256
176
     0
 40
1.0
176
     0
 90
        2
176
     0
  1
strokes_ogs.tif
176
     0
290
     0
176
     0
 40
1.0
176
     0
 40
1.0
176
     0
  0
VISUALSTYLE
  5
37
102
{ACAD_REACTORS
330
29
102
}
330
29
100
AcDbVisualStyle
  2
Linepattern
 70
    14
177
     3
291
     1
 70
    58
 90
        2
176
     1
 90
        2
176
     1
 90
        0
176
     1
 90
        0
176
     1
 40
0.6
176
     1
 40
30.0
176
     1
 62
     7
420
 16777215
176
     1
 90
        1
176
     1
 90
        4
176
     1
 62
     7
176
     1
 62
   257
176
     1
 90
        7
176
     1
 90
        7
176
     1
 40
1.0
176
     1
 90
        8
176
     1
 62
     7
176
     1
 40
1.0
176
     1
 90
        1
176
     1
 90
        6
176
     1
 90
        2
176
     1
 62
     7
176
     1
 90
        5
176
     1
 90
        0
176
     1
 90
        0
176
     1
290
     0
176
     1
 90
        1
176
     1
 40
0.0
176
     1
 90
        0
176
     1
290
     0
176
     1
290
     1
176
     1
290
     1
176
     1
290
     0
176
     1
290
     0
176
     1
290
     0
176
     1
290
     0
176
     1
290
     0
176
     1
290
     0
176
     1
 90
       50
176
     1
 40
0.0
176
     1
 40
1.0
176
     1
 90
        0
176
     1
 62
    18
420
        0
176
     1
 90
       50
176
     1
 90
        3
176
     1
 62
     5
420
      255
176
     1
290
     0
176
     1
 90
       50
176
     1
 90
       50
176
     1
 90
       50
176
     1
290
     0
176
     1
 90
       50
176
     1
 62
   256
176
     0
 40
1.0
176
     0
 90
        2
176
     1
  1
strokes_ogs.tif
176
     1
290
     0
176
     1
 40
1.0
176
     1
 40
1.0
176
     1
  0
VISUALSTYLE
  5
40
102
{ACAD_REACTORS
330
29
102
}
330
29
100
AcDbVisualStyle
  2
OverhangOff
 70
    21
177
     3
291
     1
 70
    58
 90
        2
176
     0
 90
        2
176
     0
 90
        0
176
     0
 90
        0
176
     0
 40
0.6
176
     0
 40
30.0
176
     0
 62
     7
420
 16777215
176
     0
 90
        1
176
     0
 90
        4
176
     0
 62
     7
176
     0
 62
   257
176
     0
 90
        1
176
     0
 90
        1
176
     0
 40
1.0
176
     0
 90
        9
176
     2
 62
     7
176
     0
 40
1.0
176
     0
 90
        1
176
     0
 90
        6
176
     0
 90
        2
176
     0
 62
     7
176
     0
 90
        5
176
     0
 90
        0
176
     0
 90
        0
176
     0
290
     0
176
     0
 90
        1
176
     0
 40
0.0
176
     0
 90
        0
176
     0
290
     0
176
     0
290
     1
176
     0
290
     1
176
     0
290
     0
176
     0
290
     0
176
     0
290
     0
176
     0
290
     0
176
     0
290
     0
176
     0
290
     0
176
     0
 90
       50
176
     0
 40
0.0
176
     0
 40
1.0
176
     0
 90
        0
176
     0
 62
    18
420
        0
176
     0
 90
       50
176
     0
 90
        3
176
     0
 62
     5
420
      255
176
     0
290
     0
176
     0
 90
       50
176
     0
 90
       50
176
     0
 90
       50
176
     0
290
     0
176
     0
 90
       50
176
     0
 62
   256
176
     0
 40
1.0
176
     0
 90
        2
176
     0
  1
strokes_ogs.tif
176
     0
290
     0
176
     0
 40
1.0
176
     0
 40
1.0
176
     0
  0
VISUALSTYLE
  5
33
102
{ACAD_REACTORS
330
29
102
}
330
29
100
AcDbVisualStyle
  2
Realistic
 70
     8
177
     3
291
     0
 70
    58
 90
        2
176
     1
 90
        3
176
     1
 90
        0
176
     1
 90
        2
176
     1
 40
0.6
176
     1
 40
30.0
176
     1
 62
     7
420
 16777215
176
     1
 90
        0
176
     1
 90
        0
176
     1
 62
     7
176
     1
 62
   257
176
     1
 90
        1
176
     1
 90
        1
176
     1
 40
1.0
176
     1
 90
        8
176
     1
 62
   257
176
     1
 40
1.0
176
     1
 90
        1
176
     1
 90
        6
176
     1
 90
        2
176
     1
 62
     7
176
     1
 90
        3
176
     1
 90
        0
176
     1
 90
        0
176
     1
290
     0
176
     1
 90
       13
176
     1
 40
0.0
176
     1
 90
        0
176
     1
290
     0
176
     1
290
     1
176
     1
290
     1
176
     1
290
     0
176
     1
290
     0
176
     1
290
     0
176
     1
290
     0
176
     1
290
     0
176
     1
290
     0
176
     1
 90
       50
176
     1
 40
0.0
176
     1
 40
1.0
176
     1
 90
        0
176
     1
 62
    18
420
        0
176
     1
 90
       50
176
     1
 90
        3
176
     1
 62
     5
420
      255
176
     1
290
     0
176
     1
 90
       50
176
     1
 90
       50
176
     1
 90
       50
176
     1
290
     0
176
     1
 90
       50
176
     1
 62
   256
176
     0
 40
1.0
176
     0
 90
        2
176
     1
  1
strokes_ogs.tif
176
     1
290
     0
176
     1
 40
1.0
176
     1
 40
1.0
176
     1
  0
VISUALSTYLE
  5
3E
102
{ACAD_REACTORS
330
29
102
}
330
29
100
AcDbVisualStyle
  2
Shaded
 70
    27
177
     3
291
     0
 70
    58
 90
        2
176
     1
 90
        2
176
     1
 90
        1
176
     1
 90
        2
176
     1
 40
0.6
176
     1
 40
30.0
176
     1
 62
     7
420
 16777215
176
     1
 90
        0
176
     1
 90
        4
176
     1
 62
     7
176
     1
 62
   257
176
     1
 90
        1
176
     1
 90
        1
176
     1
 40
1.0
176
     1
 90
        8
176
     1
 62
   257
176
     1
 40
1.0
176
     1
 90
        1
176
     1
 90
        6
176
     1
 90
        2
176
     1
 62
     8
420
  7895160
176
     1
 90
        3
176
     1
 90
        0
176
     1
 90
        0
176
     1
290
     0
176
     1
 90
        5
176
     1
 40
0.0
176
     1
 90
        0
176
     1
290
     0
176
     1
290
     1
176
     1
290
     1
176
     1
290
     0
176
     1
290
     0
176
     1
290
     0
176
     1
290
     0
176
     1
290
     0
176
     1
290
     0
176
     1
 90
       50
176
     1
 40
0.0
176
     1
 40
1.0
176
     1
 90
        0
176
     1
 62
    18
420
        0
176
     1
 90
       50
176
     1
 90
        3
176
     1
 62
     5
420
      255
176
     1
290
     0
176
     1
 90
       50
176
     1
 90
       50
176
     1
 90
       50
176
     1
290
     0
176
     1
 90
       50
176
     1
 62
   256
176
     0
 40
1.0
176
     0
 90
        2
176
     1
  1
strokes_ogs.tif
176
     1
290
     0
176
     1
 40
1.0
176
     1
 40
1.0
176
     1
  0
VISUALSTYLE
  5
3D
102
{ACAD_REACTORS
330
29
102
}
330
29
100
AcDbVisualStyle
  2
Shaded with edges
 70
    26
177
     3
291
     0
 70
    58
 90
        2
176
     1
 90
        2
176
     1
 90
        1
176
     1
 90
        2
176
     1
 40
0.6
176
     1
 40
30.0
176
     1
 62
     7
420
 16777215
176
     1
 90
        1
176
     1
 90
        2
176
     1
 62
     7
176
     1
 62
   257
176
     1
 90
        2
176
     1
 90
        1
176
     1
 40
1.0
176
     1
 90
        8
176
     1
 62
   257
176
     1
 40
1.0
176
     1
 90
        1
176
     1
 90
        6
176
     1
 90
        2
176
     1
 62
     7
176
     1
 90
        3
176
     1
 90
        0
176
     1
 90
        0
176
     1
290
     0
176
     1
 90
        5
176
     1
 40
0.0
176
     1
 90
        0
176
     1
290
     0
176
     1
290
     1
176
     1
290
     1
176
     1
290
     0
176
     1
290
     0
176
     1
290
     0
176
     1
290
     0
176
     1
290
     0
176
     1
290
     0
176
     1
 90
       50
176
     1
 40
0.0
176
     1
 40
1.0
176
     1
 90
        0
176
     1
 62
    18
420
        0
176
     1
 90
       50
176
     1
 90
        3
176
     1
 62
     5
420
      255
176
     1
290
     0
176
     1
 90
       50
176
     1
 90
       50
176
     1
 90
       50
176
     1
290
     0
176
     1
 90
       50
176
     1
 62
   256
176
     0
 40
1.0
176
     0
 90
        2
176
     1
  1
strokes_ogs.tif
176
     1
290
     0
176
     1
 40
1.0
176
     1
 40
1.0
176
     1
  0
VISUALSTYLE
  5
3A
102
{ACAD_REACTORS
330
29
102
}
330
29
100
AcDbVisualStyle
  2
Shades of Gray
 70
    23
177
     3
291
     0
 70
    58
 90
        2
176
     1
 90
        2
176
     1
 90
        3
176
     1
 90
        0
176
     1
 40
0.6
176
     1
 40
30.0
176
     1
 62
     7
420
 16777215
176
     1
 90
        2
176
     1
 90
        2
176
     1
 62
     7
176
     1
 62
     7
176
     1
 90
        1
176
     1
 90
        1
176
     1
 40
40.0
176
     1
 90
        8
176
     1
 62
     7
176
     1
 40
1.0
176
     1
 90
        1
176
     1
 90
        6
176
     1
 90
        2
176
     1
 62
     7
176
     1
 90
        3
176
     1
 90
        0
176
     1
 90
        0
176
     1
290
     0
176
     1
 90
        1
176
     1
 40
0.0
176
     1
 90
        0
176
     1
290
     0
176
     1
290
     1
176
     1
290
     1
176
     1
290
     0
176
     1
290
     0
176
     1
290
     0
176
     1
290
     0
176
     1
290
     0
176
     1
290
     0
176
     1
 90
       50
176
     1
 40
0.0
176
     1
 40
1.0
176
     1
 90
        0
176
     1
 62
    18
420
        0
176
     1
 90
       50
176
     1
 90
        3
176
     1
 62
     5
420
      255
176
     1
290
     0
176
     1
 90
       50
176
     1
 90
       50
176
     1
 90
       50
176
     1
290
     0
176
     1
 90
       50
176
     1
 62
   256
176
     0
 40
1.0
176
     0
 90
        2
176
     1
  1
strokes_ogs.tif
176
     1
290
     0
176
     1
 40
1.0
176
     1
 40
1.0
176
     1
  0
VISUALSTYLE
  5
3B
102
{ACAD_REACTORS
330
29
102
}
330
29
100
AcDbVisualStyle
  2
Sketchy
 70
    24
177
     3
291
     0
 70
    58
 90
        1
176
     1
 90
        2
176
     1
 90
        2
176
     1
 90
        0
176
     1
 40
0.6
176
     1
 40
30.0
176
     1
 62
     7
420
 16777215
176
     1
 90
        2
176
     1
 90
        2
176
     1
 62
     7
176
     1
 62
     7
176
     1
 90
        1
176
     1
 90
        1
176
     1
 40
40.0
176
     1
 90
       11
176
     1
 62
     7
176
     1
 40
1.0
176
     1
 90
        1
176
     1
 90
        6
176
     1
 90
        2
176
     1
 62
     7
176
     1
 90
        6
176
     1
 90
        0
176
     1
 90
        0
176
     1
290
     0
176
     1
 90
        1
176
     1
 40
0.0
176
     1
 90
        0
176
     1
290
     0
176
     1
290
     1
176
     1
290
     1
176
     1
290
     0
176
     1
290
     0
176
     1
290
     0
176
     1
290
     0
176
     1
290
     0
176
     1
290
     0
176
     1
 90
       50
176
     1
 40
0.0
176
     1
 40
1.0
176
     1
 90
        0
176
     1
 62
    18
420
        0
176
     1
 90
       50
176
     1
 90
        3
176
     1
 62
     5
420
      255
176
     1
290
     0
176
     1
 90
       50
176
     1
 90
       50
176
     1
 90
       50
176
     1
290
     0
176
     1
 90
       50
176
     1
 62
   256
176
     0
 40
1.0
176
     0
 90
        2
176
     1
  1
strokes_ogs.tif
176
     1
290
     0
176
     1
 40
1.0
176
     1
 40
1.0
176
     1
  0
VISUALSTYLE
  5
36
102
{ACAD_REACTORS
330
29
102
}
330
29
100
AcDbVisualStyle
  2
Thicken
 70
    13
177
     3
291
     1
 70
    58
 90
        2
176
     1
 90
        2
176
     1
 90
        0
176
     1
 90
        0
176
     1
 40
0.6
176
     1
 40
30.0
176
     1
 62
     7
420
 16777215
176
     1
 90
        1
176
     1
 90
        4
176
     1
 62
     7
176
     1
 62
   257
176
     1
 90
        1
176
     1
 90
        1
176
     1
 40
1.0
176
     1
 90
       12
176
     1
 62
     7
176
     1
 40
1.0
176
     1
 90
        1
176
     1
 90
        6
176
     1
 90
        2
176
     1
 62
     7
176
     1
 90
        5
176
     1
 90
        0
176
     1
 90
        0
176
     1
290
     0
176
     1
 90
        1
176
     1
 40
0.0
176
     1
 90
        0
176
     1
290
     0
176
     1
290
     1
176
     1
290
     1
176
     1
290
     0
176
     1
290
     0
176
     1
290
     0
176
     1
290
     0
176
     1
290
     0
176
     1
290
     0
176
     1
 90
       50
176
     1
 40
0.0
176
     1
 40
1.0
176
     1
 90
        0
176
     1
 62
    18
420
        0
176
     1
 90
       50
176
     1
 90
        3
176
     1
 62
     5
420
      255
176
     1
290
     0
176
     1
 90
       50
176
     1
 90
       50
176
     1
 90
       50
176
     1
290
     0
176
     1
 90
       50
176
     1
 62
   256
176
     0
 40
1.0
176
     0
 90
        2
176
     1
  1
strokes_ogs.tif
176
     1
290
     0
176
     1
 40
1.0
176
     1
 40
1.0
176
     1
  0
VISUALSTYLE
  5
30
102
{ACAD_REACTORS
330
29
102
}
330
29
100
AcDbVisualStyle
  2
Wireframe
 70
     5
177
     3
291
     0
 70
    58
 90
        0
176
     1
 90
        2
176
     1
 90
        0
176
     1
 90
        0
176
     1
 40
0.6
176
     1
 40
30.0
176
     1
 62
     7
420
 16777215
176
     1
 90
        1
176
     1
 90
        4
176
     1
 62
     7
176
     1
 62
   257
176
     1
 90
        1
176
     1
 90
        1
176
     1
 40
1.0
176
     1
 90
        0
176
     1
 62
   257
176
     1
 40
1.0
176
     1
 90
        1
176
     1
 90
        6
176
     1
 90
        2
176
     1
 62
     7
176
     1
 90
        3
176
     1
 90
        0
176
     1
 90
        0
176
     1
290
     0
176
     1
 90
        1
176
     1
 40
0.0
176
     1
 90
        0
176
     1
290
     0
176
     1
290
     1
176
     1
290
     1
176
     1
290
     0
176
     1
290
     0
176
     1
290
     0
176
     1
290
     0
176
     1
290
     0
176
     1
290
     0
176
     1
 90
       50
176
     1
 40
0.0
176
     1
 40
1.0
176
     1
 90
        0
176
     1
 62
    18
420
        0
176
     1
 90
       50
176
     1
 90
        3
176
     1
 62
     5
420
      255
176
     1
290
     0
176
     1
 90
       50
176
     1
 90
       50
176
     1
 90
       50
176
     1
290
     0
176
     1
 90
       50
176
     1
 62
   256
176
     0
 40
1.0
176
     0
 90
        2
176
     1
  1
strokes_ogs.tif
176
     1
290
     0
176
     1
 40
1.0
176
     1
 40
1.0
176
     1
  0
VISUALSTYLE
  5
3C
102
{ACAD_REACTORS
330
29
102
}
330
29
100
AcDbVisualStyle
  2
X-Ray
 70
    25
177
     3
291
     0
 70
    58
 90
        2
176
     1
 90
        2
176
     1
 90
        1
176
     1
 90
        1
176
     1
 40
0.5
176
     1
 40
30.0
176
     1
 62
     7
420
 16777215
176
     1
 90
        1
176
     1
 90
        0
176
     1
 62
     7
176
     1
 62
   257
176
     1
 90
        1
176
     1
 90
        1
176
     1
 40
1.0
176
     1
 90
        8
176
     1
 62
     7
176
     1
 40
1.0
176
     1
 90
        1
176
     1
 90
        6
176
     1
 90
        2
176
     1
 62
     7
176
     1
 90
        3
176
     1
 90
        0
176
     1
 90
        0
176
     1
290
     0
176
     1
 90
       13
176
     1
 40
0.0
176
     1
 90
        0
176
     1
290
     0
176
     1
290
     1
176
     1
290
     1
176
     1
290
     0
176
     1
290
     0
176
     1
290
     0
176
     1
290
     0
176
     1
290
     0
176
     1
290
     0
176
     1
 90
       50
176
     1
 40
0.0
176
     1
 40
1.0
176
     1
 90
        0
176
     1
 62
    18
420
        0
176
     1
 90
       50
176
     1
 90
        3
176
     1
 62
     5
420
      255
176
     1
290
     0
176
     1
 90
       50
176
     1
 90
       50
176
     1
 90
       50
176
     1
290
     0
176
     1
 90
       50
176
     1
 62
   256
176
     0
 40
1.0
176
     0
 90
        2
176
     1
  1
strokes_ogs.tif
176
     1
290
     0
176
     1
 40
1.0
176
     1
 40
1.0
176
     1
  0
DICTIONARYVAR
  5
C8
102
{ACAD_REACTORS
330
C3
102
}
330
C3
100
DictionaryVariables
280
     0
  1
1:1
  0
DICTIONARYVAR
  5
C5
102
{ACAD_REACTORS
330
C3
102
}
330
C3
100
DictionaryVariables
280
     0
  1
STANDARD
  0
DICTIONARYVAR
  5
C4
102
{ACAD_REACTORS
330
C3
102
}
330
C3
100
DictionaryVariables
280
     0
  1
STANDARD
  0
DICTIONARYVAR
  5
C6
102
{ACAD_REACTORS
330
C3
102
}
330
C3
100
DictionaryVariables
280
     0
  1
Imperial24
  0
DICTIONARYVAR
  5
C7
102
{ACAD_REACTORS
330
C3
102
}
330
C3
100
DictionaryVariables
280
     0
  1
Imperial24
  0
DICTIONARY
  5
1A
330
19
100
AcDbDictionary
280
     1
281
     1
  3
BUMPTILE
360
1C
  3
DIFFUSETILE
360
1B
  3
OPACITYTILE
360
1F
  3
REFLECTIONTILE
360
1E
  3
REFRACTIONTILE
360
20
  3
SPECULARTILE
360
1D
  0
DICTIONARY
  5
12
330
11
100
AcDbDictionary
280
     1
281
     1
  3
BUMPTILE
360
14
  3
DIFFUSETILE
360
13
  3
OPACITYTILE
360
17
  3
REFLECTIONTILE
360
16
  3
REFRACTIONTILE
360
18
  3
SPECULARTILE
360
15
  0
DICTIONARY
  5
22
330
21
100
AcDbDictionary
280
     1
281
     1
  3
BUMPTILE
360
24
  3
DIFFUSETILE
360
23
  3
OPACITYTILE
360
27
  3
REFLECTIONTILE
360
26
  3
REFRACTIONTILE
360
28
  3
SPECULARTILE
360
25
  0
DICTIONARY
  5
C9
330
65
100
AcDbDictionary
280
     1
281
     1
  3
ACAD_ROUNDTRIP_2008_TABLESTYLE_CELLSTYLEMAP
360
CA
  0
XRECORD
  5
1C
102
{ACAD_REACTORS
330
1A
102
}
330
1A
100
AcDbXrecord
280
     1
270
     1
271
     1
  0
XRECORD
  5
1B
102
{ACAD_REACTORS
330
1A
102
}
330
1A
100
AcDbXrecord
280
     1
270
     1
271
     1
  0
XRECORD
  5
1F
102
{ACAD_REACTORS
330
1A
102
}
330
1A
100
AcDbXrecord
280
     1
270
     1
271
     1
  0
XRECORD
  5
1E
102
{ACAD_REACTORS
330
1A
102
}
330
1A
100
AcDbXrecord
280
     1
270
     1
271
     1
  0
XRECORD
  5
20
102
{ACAD_REACTORS
330
1A
102
}
330
1A
100
AcDbXrecord
280
     1
270
     1
271
     1
  0
XRECORD
  5
1D
102
{ACAD_REACTORS
330
1A
102
}
330
1A
100
AcDbXrecord
280
     1
270
     1
271
     1
  0
XRECORD
  5
14
102
{ACAD_REACTORS
330
12
102
}
330
12
100
AcDbXrecord
280
     1
270
     1
271
     1
  0
XRECORD
  5
13
102
{ACAD_REACTORS
330
12
102
}
330
12
100
AcDbXrecord
280
     1
270
     1
271
     1
  0
XRECORD
  5
17
102
{ACAD_REACTORS
330
12
102
}
330
12
100
AcDbXrecord
280
     1
270
     1
271
     1
  0
XRECORD
  5
16
102
{ACAD_REACTORS
330
12
102
}
330
12
100
AcDbXrecord
280
     1
270
     1
271
     1
  0
XRECORD
  5
18
102
{ACAD_REACTORS
330
12
102
}
330
12
100
AcDbXrecord
280
     1
270
     1
271
     1
  0
XRECORD
  5
15
102
{ACAD_REACTORS
330
12
102
}
330
12
100
AcDbXrecord
280
     1
270
     1
271
     1
  0
XRECORD
  5
24
102
{ACAD_REACTORS
330
22
102
}
330
22
100
AcDbXrecord
280
     1
270
     1
271
     1
  0
XRECORD
  5
23
102
{ACAD_REACTORS
330
22
102
}
330
22
100
AcDbXrecord
280
     1
270
     1
271
     1
  0
XRECORD
  5
27
102
{ACAD_REACTORS
330
22
102
}
330
22
100
AcDbXrecord
280
     1
270
     1
271
     1
  0
XRECORD
  5
26
102
{ACAD_REACTORS
330
22
102
}
330
22
100
AcDbXrecord
280
     1
270
     1
271
     1
  0
XRECORD
  5
28
102
{ACAD_REACTORS
330
22
102
}
330
22
100
AcDbXrecord
280
     1
270
     1
271
     1
  0
XRECORD
  5
25
102
{ACAD_REACTORS
330
22
102
}
330
22
100
AcDbXrecord
280
     1
270
     1
271
     1
  0
CELLSTYLEMAP
  5
CA
102
{ACAD_REACTORS
330
C9
102
}
330
C9
100
AcDbCellStyleMap
 90
        3
300
CELLSTYLE
  1
TABLEFORMAT_BEGIN
 90
        5
170
     1
 91
        0
 92
    32768
 62
   257
 93
        1
300
CONTENTFORMAT
  1
CONTENTFORMAT_BEGIN
 90
        0
 91
        0
 92
      512
 93
        0
300

 40
0.0
140
1.0
 94
        5
 62
     0
340
55
144
0.25
309
CONTENTFORMAT_END
171
     0
 94
        0
309
TABLEFORMAT_END
  1
CELLSTYLE_BEGIN
 90
        1
 91
        1
300
_TITLE
309
CELLSTYLE_END
300
CELLSTYLE
  1
TABLEFORMAT_BEGIN
 90
        5
170
     1
 91
        0
 92
        0
 62
   257
 93
        1
300
CONTENTFORMAT
  1
CONTENTFORMAT_BEGIN
 90
        0
 91
        0
 92
      512
 93
        0
300

 40
0.0
140
1.0
 94
        5
 62
     0
340
55
144
0.18
309
CONTENTFORMAT_END
171
     0
 94
        0
309
TABLEFORMAT_END
  1
CELLSTYLE_BEGIN
 90
        2
 91
        1
300
_HEADER
309
CELLSTYLE_END
300
CELLSTYLE
  1
TABLEFORMAT_BEGIN
 90
        5
170
     1
 91
        0
 92
        0
 62
   257
 93
        1
300
CONTENTFORMAT
  1
CONTENTFORMAT_BEGIN
 90
        0
 91
        0
 92
      512
 93
        0
300

 40
0.0
140
1.0
 94
        2
 62
     0
340
55
144
0.18
309
CONTENTFORMAT_END
171
     0
 94
        0
309
TABLEFORMAT_END
  1
CELLSTYLE_BEGIN
 90
        3
 91
        2
300
_DATA
309
CELLSTYLE_END
  0
ENDSEC
  0
EOF
